<svg width="193" height="49" viewBox="0 0 193 49" fill="none" xmlns="http://www.w3.org/2000/svg">
    <path d="M19.706 14.4496C20.4681 14.3293 21.2302 14.2691 21.9924 14.2691C24.6798 14.2691 26.9862 15.0111 28.9116 16.4953C30.877 17.9393 32.3411 19.8446 33.3038 22.2111C34.3066 24.5777 34.808 27.1248 34.808 29.8524C34.808 32.7805 34.2263 35.5682 33.0631 38.2156C31.94 40.8228 30.2353 42.9487 27.9489 44.5933C25.7027 46.1978 22.955 47 19.706 47H0.0915261V46.2178C0.853643 46.2178 1.33498 45.8769 1.53554 45.195C1.77621 44.473 1.89654 43.5504 1.89654 42.4273V7.53037C1.89654 6.20669 1.79626 5.16379 1.5957 4.40168C1.39515 3.63956 0.893754 3.2585 0.0915261 3.2585C0.171749 2.97772 0.171749 2.717 0.0915261 2.47633H2.31771C4.92495 2.47633 7.17119 2.33594 9.05643 2.05516C10.9818 1.73427 12.7266 1.07243 14.291 0.0696431H15.1935L15.1333 7.53037V18.1799C15.8954 16.0139 17.4197 14.7705 19.706 14.4496ZM16.3968 46.2178C18.0414 46.2178 19.2848 44.7738 20.1272 41.8858C20.9695 38.9577 21.3907 35.488 21.3907 31.4769C21.3907 27.5059 21.0096 24.0964 20.2475 21.2485C19.5255 18.3604 18.5428 17.0568 17.2993 17.3376C16.4971 17.4981 15.9355 18.0195 15.6146 18.902C15.3339 19.7844 15.1734 20.9877 15.1333 22.512V46.2178H16.3968ZM72.5426 46.2178C72.4624 46.4585 72.4624 46.7192 72.5426 47H57.5008V42.9086C56.1772 44.5532 54.6329 45.8368 52.868 46.7593C51.1432 47.6819 49.4384 48.1432 47.7538 48.1432C45.0663 48.1432 42.8401 47 41.0752 44.7136C39.3504 42.4273 38.488 38.9777 38.488 34.3649V22.5721C38.488 21.2485 38.3877 20.2056 38.1872 19.4435C37.9866 18.6813 37.4852 18.3003 36.683 18.3003C36.7632 18.0195 36.7632 17.7588 36.683 17.5181H38.9092C41.5164 17.5181 43.7627 17.3777 45.6479 17.0969C47.5733 16.776 49.3181 16.1142 50.8825 15.1114H51.7248V34.3649C51.7248 37.8145 51.9053 40.3816 52.2663 42.0663C52.6674 43.751 53.2891 44.5933 54.1315 44.5933C54.9738 44.5933 56.0969 43.6708 57.5008 41.8256V22.5721C57.5008 21.2485 57.4006 20.2056 57.2 19.4435C56.9994 18.6813 56.498 18.3003 55.6958 18.3003C55.776 18.0195 55.776 17.7588 55.6958 17.5181H57.922C60.5292 17.5181 62.7755 17.3777 64.6607 17.0969C66.5861 16.776 68.3309 16.1142 69.8953 15.1114H70.7376V42.4273C70.7376 43.5504 70.8379 44.473 71.0384 45.195C71.2791 45.8769 71.7805 46.2178 72.5426 46.2178ZM90.9382 47.0602C92.3822 47.0602 93.4853 46.7192 94.2474 46.0373C95.0095 45.3153 95.3906 44.3928 95.3906 43.2696C95.3906 41.7454 94.7689 40.1409 93.5254 38.4563C92.282 36.7315 90.5572 35.2674 88.3511 34.0641L85.102 32.4396C82.8959 31.3565 81.131 30.434 79.8073 29.6719C78.5238 28.8696 77.4207 27.907 76.4981 26.7838C75.6157 25.6607 75.1745 24.3772 75.1745 22.9332C75.1745 20.8474 76.0368 19.0825 77.7616 17.6384C79.4864 16.1944 81.7126 15.1515 84.4402 14.5098C87.2079 13.868 90.0758 13.6273 93.0441 13.7877C94.7288 13.8279 96.253 14.1086 97.6168 14.6301C99.0207 15.1515 100.204 15.7332 101.167 16.3749C102.169 17.0167 103.353 17.8791 104.717 18.9621L105.258 17.9994C105.499 18.1599 105.719 18.2401 105.92 18.2401L103.272 27.3253C103.032 27.1649 102.791 27.0847 102.55 27.0847C102.591 26.8841 102.611 26.5632 102.611 26.122C102.611 24.4373 102.23 22.7125 101.467 20.9476C100.705 19.1426 99.5822 17.6384 98.0981 16.4351C96.614 15.1916 94.829 14.5699 92.7433 14.5699C91.1388 14.5699 89.8552 15.0111 88.8926 15.8936C87.97 16.7359 87.5087 17.7788 87.5087 19.0223C87.5087 19.8245 87.7093 20.5666 88.1104 21.2485C88.4714 21.9304 89.1332 22.5721 90.0959 23.1738C91.0586 23.7354 92.5628 24.4975 94.6084 25.4602C97.0151 26.5432 99.0006 27.566 100.565 28.5287C102.169 29.4513 103.533 30.6546 104.656 32.1387C105.779 33.5827 106.321 35.2875 106.281 37.2529C106.241 39.4992 105.418 41.4245 103.814 43.029C102.21 44.6334 100.144 45.8368 97.6168 46.639C95.0898 47.4412 92.4023 47.8423 89.5544 47.8423C86.0647 47.8423 82.916 47.2407 80.1082 46.0373C77.3405 44.7939 75.5355 43.0691 74.6931 40.863C74.4524 40.1811 74.3321 39.5393 74.3321 38.9376C74.3321 37.5337 74.9137 36.3304 76.077 35.3276C77.2402 34.3248 78.7644 33.5627 80.6497 33.0412C80.77 33.1616 80.9906 33.2217 81.3115 33.2217C81.2714 33.6228 81.2513 34.2245 81.2513 35.0267C81.2513 37.5939 81.7527 39.8 82.7555 41.6451C83.7583 43.4501 85.0017 44.8139 86.4859 45.7365C88.0101 46.6591 89.4942 47.1003 90.9382 47.0602ZM125.297 47.0602C126.741 47.0602 127.844 46.7192 128.606 46.0373C129.368 45.3153 129.749 44.3928 129.749 43.2696C129.749 41.7454 129.128 40.1409 127.884 38.4563C126.641 36.7315 124.916 35.2674 122.71 34.0641L119.461 32.4396C117.255 31.3565 115.49 30.434 114.166 29.6719C112.882 28.8696 111.779 27.907 110.857 26.7838C109.974 25.6607 109.533 24.3772 109.533 22.9332C109.533 20.8474 110.396 19.0825 112.12 17.6384C113.845 16.1944 116.071 15.1515 118.799 14.5098C121.567 13.868 124.435 13.6273 127.403 13.7877C129.087 13.8279 130.612 14.1086 131.976 14.6301C133.379 15.1515 134.563 15.7332 135.525 16.3749C136.528 17.0167 137.711 17.8791 139.075 18.9621L139.617 17.9994C139.857 18.1599 140.078 18.2401 140.279 18.2401L137.631 27.3253C137.391 27.1649 137.15 27.0847 136.909 27.0847C136.949 26.8841 136.969 26.5632 136.969 26.122C136.969 24.4373 136.588 22.7125 135.826 20.9476C135.064 19.1426 133.941 17.6384 132.457 16.4351C130.973 15.1916 129.188 14.5699 127.102 14.5699C125.498 14.5699 124.214 15.0111 123.251 15.8936C122.329 16.7359 121.867 17.7788 121.867 19.0223C121.867 19.8245 122.068 20.5666 122.469 21.2485C122.83 21.9304 123.492 22.5721 124.455 23.1738C125.417 23.7354 126.921 24.4975 128.967 25.4602C131.374 26.5432 133.359 27.566 134.924 28.5287C136.528 29.4513 137.892 30.6546 139.015 32.1387C140.138 33.5827 140.68 35.2875 140.64 37.2529C140.599 39.4992 139.777 41.4245 138.173 43.029C136.568 44.6334 134.503 45.8368 131.976 46.639C129.448 47.4412 126.761 47.8423 123.913 47.8423C120.423 47.8423 117.275 47.2407 114.467 46.0373C111.699 44.7939 109.894 43.0691 109.052 40.863C108.811 40.1811 108.691 39.5393 108.691 38.9376C108.691 37.5337 109.272 36.3304 110.436 35.3276C111.599 34.3248 113.123 33.5627 115.008 33.0412C115.129 33.1616 115.349 33.2217 115.67 33.2217C115.63 33.6228 115.61 34.2245 115.61 35.0267C115.61 37.5939 116.111 39.8 117.114 41.6451C118.117 43.4501 119.36 44.8139 120.845 45.7365C122.369 46.6591 123.853 47.1003 125.297 47.0602ZM172.967 38.9376C173.207 38.9777 173.428 38.9777 173.629 38.9376C173.107 40.1008 172.185 41.4045 170.861 42.8485C169.537 44.2925 167.873 45.556 165.867 46.639C163.902 47.6819 161.776 48.2033 159.489 48.2033C155.679 48.2033 152.49 47.3811 149.923 45.7365C147.396 44.0518 145.51 41.9059 144.267 39.2986C143.064 36.6914 142.462 33.9638 142.462 31.1159C142.462 28.3883 143.044 25.7409 144.207 23.1738C145.41 20.6067 147.295 18.4808 149.863 16.7961C152.47 15.0713 155.719 14.2089 159.61 14.2089C160.051 14.2089 160.833 14.249 161.956 14.3293C164.323 14.5298 166.348 15.1916 168.033 16.3148C169.758 17.3978 171.041 18.7816 171.884 20.4663C172.726 22.1109 173.147 23.8357 173.147 25.6407C173.147 27.566 172.666 29.3911 171.703 31.1159C170.741 32.8006 169.297 34.1844 167.371 35.2674C165.486 36.3103 163.2 36.8318 160.512 36.8318C160.031 36.8318 159.269 36.7916 158.226 36.7114C159.148 38.2758 160.292 39.4992 161.655 40.3816C163.019 41.2641 164.503 41.7053 166.108 41.7053C168.394 41.7053 170.68 40.7827 172.967 38.9376ZM162.076 14.9309C160.953 14.7705 159.931 15.3922 159.008 16.7961C158.085 18.1599 157.363 19.9248 156.842 22.0908C156.32 24.2167 156.06 26.2825 156.06 28.288C156.06 30.8552 156.541 33.2017 157.504 35.3276C158.948 34.8462 160.171 33.8234 161.174 32.2591C162.217 30.6947 162.999 28.9098 163.52 26.9042C164.042 24.8585 164.303 22.873 164.303 20.9476C164.303 19.263 164.102 17.8591 163.701 16.7359C163.3 15.6128 162.758 15.0111 162.076 14.9309ZM190.452 42.4273C190.452 43.5504 190.553 44.473 190.753 45.195C190.994 45.8769 191.495 46.2178 192.257 46.2178V47H175.411V46.2178C176.173 46.2178 176.654 45.8769 176.855 45.195C177.095 44.473 177.216 43.5504 177.216 42.4273V7.53037C177.216 6.20669 177.115 5.16379 176.915 4.40168C176.714 3.63956 176.213 3.2585 175.411 3.2585C175.491 2.97772 175.491 2.717 175.411 2.47633H177.637C180.244 2.47633 182.49 2.33594 184.375 2.05516C186.301 1.73427 188.046 1.07243 189.61 0.0696431H190.512L190.452 7.53037V42.4273Z" fill="black"/>
</svg>
