<svg width="25" height="24" viewBox="0 0 25 24" fill="none" xmlns="http://www.w3.org/2000/svg">
<g clip-path="url(#clip0_2526_88958)">
<path d="M8.51936 20.5432C5.29245 20.3607 2.72307 17.6778 2.72307 14.4057C2.72307 11.0158 5.48075 8.25786 8.87036 8.25786C10.3863 8.25786 11.842 8.81412 12.9693 9.82415C14.2712 10.9886 15.0181 12.6587 15.0181 14.4056C15.0181 15.8707 14.4926 17.2814 13.5549 18.3858C14.2199 18.8166 14.9834 19.074 15.7791 19.1327C16.7367 17.7387 17.2412 16.1121 17.2412 14.4056C17.2412 12.5773 16.6624 10.8407 15.5674 9.38365C14.6974 8.22541 13.5394 7.3085 12.2186 6.73189C11.4866 6.4117 10.7212 6.20109 9.93276 6.10174C11.5263 4.92864 12.1357 3.94543 12.1357 3.08788C12.1357 2.05881 11.3015 1.22461 10.2724 1.22461C9.71328 1.22461 9.21206 1.47123 8.87054 1.86123C8.52902 1.47123 8.02776 1.22461 7.46864 1.22461C6.43958 1.22461 5.60537 2.05881 5.60537 3.08788C5.60537 3.94557 6.21494 4.92892 7.80908 6.10225C3.69292 6.62541 0.5 10.1497 0.5 14.4057C0.5 19.0211 4.2549 22.776 8.87036 22.776C9.50848 22.776 10.1349 22.7052 10.7448 22.5656C9.90687 22.0116 9.15435 21.3296 8.51936 20.5432Z" fill="black"/>
<path d="M16.1286 6.03516C15.4905 6.03516 14.864 6.10596 14.2542 6.24549C15.0921 6.79959 15.8446 7.4816 16.4796 8.26794C19.7065 8.45051 22.2759 11.1334 22.2759 14.4055C22.2759 17.7954 19.5183 20.5533 16.1287 20.5533C14.6128 20.5533 13.157 19.997 12.0297 18.987C10.7278 17.8225 9.98089 16.1524 9.98089 14.4055C9.98089 12.9404 10.5064 11.5296 11.4441 10.4253C10.7791 9.99444 10.0156 9.73703 9.21987 9.67833C8.26222 11.0724 7.75781 12.6989 7.75781 14.4054C7.75781 16.2338 8.33658 17.9703 9.43161 19.4274C10.3016 20.5857 11.4596 21.5026 12.7804 22.0792C13.8374 22.5415 14.9637 22.7758 16.1287 22.7758C20.7441 22.7758 24.499 19.0209 24.499 14.4054C24.4989 9.79006 20.744 6.03516 16.1286 6.03516Z" fill="black"/>
</g>
<defs>
<clipPath id="clip0_2526_88958">
<rect width="24" height="24" fill="white" transform="translate(0.5)"/>
</clipPath>
</defs>
</svg>
