<svg width="15" height="14" viewBox="0 0 15 14" fill="none" xmlns="http://www.w3.org/2000/svg">
<path d="M10.3224 2.07602V1.16602C10.3224 0.926849 10.1241 0.728516 9.8849 0.728516C9.64573 0.728516 9.4474 0.926849 9.4474 1.16602V2.04102H5.65573V1.16602C5.65573 0.926849 5.4574 0.728516 5.21823 0.728516C4.97907 0.728516 4.78073 0.926849 4.78073 1.16602V2.07602C3.20573 2.22185 2.44157 3.16102 2.3249 4.55518C2.31323 4.72435 2.45323 4.86435 2.61657 4.86435H12.4866C12.6557 4.86435 12.7957 4.71852 12.7782 4.55518C12.6616 3.16102 11.8974 2.22185 10.3224 2.07602Z" fill="#101828"/>
<path d="M12.2174 5.73926H2.88411C2.56328 5.73926 2.30078 6.00176 2.30078 6.32259V9.91592C2.30078 11.6659 3.17578 12.8326 5.21745 12.8326H9.88411C11.9258 12.8326 12.8008 11.6659 12.8008 9.91592V6.32259C12.8008 6.00176 12.5383 5.73926 12.2174 5.73926ZM5.92328 10.6218C5.89411 10.6451 5.86495 10.6743 5.83578 10.6918C5.80078 10.7151 5.76578 10.7326 5.73078 10.7443C5.69578 10.7618 5.66078 10.7734 5.62578 10.7793C5.58495 10.7851 5.54995 10.7909 5.50911 10.7909C5.43328 10.7909 5.35745 10.7734 5.28745 10.7443C5.21161 10.7151 5.15328 10.6743 5.09495 10.6218C4.98995 10.5109 4.92578 10.3593 4.92578 10.2076C4.92578 10.0559 4.98995 9.90426 5.09495 9.79342C5.15328 9.74092 5.21161 9.70009 5.28745 9.67092C5.39245 9.62426 5.50911 9.61259 5.62578 9.63592C5.66078 9.64176 5.69578 9.65342 5.73078 9.67092C5.76578 9.68259 5.80078 9.70009 5.83578 9.72342C5.86495 9.74676 5.89411 9.77009 5.92328 9.79342C6.02828 9.90426 6.09245 10.0559 6.09245 10.2076C6.09245 10.3593 6.02828 10.5109 5.92328 10.6218ZM5.92328 8.58009C5.81245 8.68509 5.66078 8.74926 5.50911 8.74926C5.35745 8.74926 5.20578 8.68509 5.09495 8.58009C4.98995 8.46926 4.92578 8.31759 4.92578 8.16592C4.92578 8.01426 4.98995 7.86259 5.09495 7.75176C5.25828 7.58842 5.51495 7.53592 5.73078 7.62926C5.80661 7.65842 5.87078 7.69926 5.92328 7.75176C6.02828 7.86259 6.09245 8.01426 6.09245 8.16592C6.09245 8.31759 6.02828 8.46926 5.92328 8.58009ZM7.96495 10.6218C7.85411 10.7268 7.70245 10.7909 7.55078 10.7909C7.39911 10.7909 7.24745 10.7268 7.13661 10.6218C7.03161 10.5109 6.96745 10.3593 6.96745 10.2076C6.96745 10.0559 7.03161 9.90426 7.13661 9.79342C7.35245 9.57759 7.74911 9.57759 7.96495 9.79342C8.06995 9.90426 8.13411 10.0559 8.13411 10.2076C8.13411 10.3593 8.06995 10.5109 7.96495 10.6218ZM7.96495 8.58009C7.93578 8.60342 7.90661 8.62676 7.87745 8.65009C7.84245 8.67342 7.80745 8.69092 7.77245 8.70259C7.73745 8.72009 7.70245 8.73176 7.66745 8.73759C7.62661 8.74342 7.59161 8.74926 7.55078 8.74926C7.39911 8.74926 7.24745 8.68509 7.13661 8.58009C7.03161 8.46926 6.96745 8.31759 6.96745 8.16592C6.96745 8.01426 7.03161 7.86259 7.13661 7.75176C7.18911 7.69926 7.25328 7.65842 7.32911 7.62926C7.54495 7.53592 7.80161 7.58842 7.96495 7.75176C8.06995 7.86259 8.13411 8.01426 8.13411 8.16592C8.13411 8.31759 8.06995 8.46926 7.96495 8.58009ZM10.0066 10.6218C9.89578 10.7268 9.74411 10.7909 9.59245 10.7909C9.44078 10.7909 9.28911 10.7268 9.17828 10.6218C9.07328 10.5109 9.00911 10.3593 9.00911 10.2076C9.00911 10.0559 9.07328 9.90426 9.17828 9.79342C9.39411 9.57759 9.79078 9.57759 10.0066 9.79342C10.1116 9.90426 10.1758 10.0559 10.1758 10.2076C10.1758 10.3593 10.1116 10.5109 10.0066 10.6218ZM10.0066 8.58009C9.97745 8.60342 9.94828 8.62676 9.91911 8.65009C9.88411 8.67342 9.84911 8.69092 9.81411 8.70259C9.77911 8.72009 9.74411 8.73176 9.70911 8.73759C9.66828 8.74342 9.62745 8.74926 9.59245 8.74926C9.44078 8.74926 9.28911 8.68509 9.17828 8.58009C9.07328 8.46926 9.00911 8.31759 9.00911 8.16592C9.00911 8.01426 9.07328 7.86259 9.17828 7.75176C9.23661 7.69926 9.29495 7.65842 9.37078 7.62926C9.47578 7.58259 9.59245 7.57092 9.70911 7.59426C9.74411 7.60009 9.77911 7.61176 9.81411 7.62926C9.84911 7.64092 9.88411 7.65842 9.91911 7.68176C9.94828 7.70509 9.97745 7.72842 10.0066 7.75176C10.1116 7.86259 10.1758 8.01426 10.1758 8.16592C10.1758 8.31759 10.1116 8.46926 10.0066 8.58009Z" fill="#101828"/>
</svg>
