<svg width="17" height="18" viewBox="0 0 17 18" fill="none" xmlns="http://www.w3.org/2000/svg">
<g clip-path="url(#clip0_2121_1615)">
<path d="M7.94425 2.66688C8.28959 2.06874 8.85839 1.63229 9.52552 1.45353C10.1927 1.27477 10.9035 1.36836 11.5016 1.71369C12.0997 2.05902 12.5362 2.62782 12.715 3.29496C12.8937 3.96209 12.8001 4.67291 12.4548 5.27105L7.7673 13.39C7.5601 13.7489 7.21882 14.0108 6.81854 14.118C6.41826 14.2253 5.99177 14.1691 5.63289 13.9619C5.27401 13.7547 5.01213 13.4135 4.90488 13.0132C4.79762 12.6129 4.85377 12.1864 5.06097 11.8275L8.70681 5.51277C8.77587 5.39314 8.88963 5.30585 9.02306 5.2701C9.15649 5.23435 9.29865 5.25306 9.41828 5.32213C9.53791 5.39119 9.6252 5.50495 9.66095 5.63838C9.6967 5.77181 9.67798 5.91397 9.60892 6.0336L5.96308 12.3484C5.89402 12.468 5.8753 12.6102 5.91105 12.7436C5.9468 12.877 6.03409 12.9908 6.15372 13.0598C6.27335 13.1289 6.41551 13.1476 6.54894 13.1119C6.68237 13.0761 6.79613 12.9888 6.86519 12.8692L11.5527 4.75021C11.6553 4.57251 11.7219 4.37635 11.7487 4.17291C11.7754 3.96948 11.7619 3.76276 11.7088 3.56456C11.6557 3.36636 11.5641 3.18056 11.4391 3.01777C11.3142 2.85499 11.1585 2.71839 10.9808 2.6158C10.8031 2.5132 10.6069 2.44661 10.4035 2.41983C10.2 2.39305 9.99332 2.4066 9.79512 2.4597C9.59693 2.51281 9.41113 2.60444 9.24834 2.72935C9.08555 2.85426 8.94896 3.01001 8.84636 3.18771L4.15886 11.3067C3.81353 11.9048 3.71995 12.6157 3.89871 13.2828C4.07747 13.9499 4.51392 14.5187 5.11206 14.8641C5.71019 15.2094 6.42101 15.303 7.08815 15.1242C7.75528 14.9455 8.32408 14.509 8.66941 13.9109L12.3152 7.5961C12.3843 7.47647 12.4981 7.38918 12.6315 7.35343C12.7649 7.31768 12.9071 7.33639 13.0267 7.40546C13.1463 7.47453 13.2336 7.58829 13.2694 7.72172C13.3051 7.85514 13.2864 7.99731 13.2174 8.11693L9.57152 14.4317C9.08806 15.2691 8.29174 15.8801 7.35775 16.1304C6.42376 16.3806 5.42861 16.2496 4.59122 15.7662C3.75383 15.2827 3.1428 14.4864 2.89253 13.5524C2.64227 12.6184 2.77329 11.6233 3.25675 10.7859L7.94425 2.66688Z" fill="#040C22"/>
</g>
<defs>
<clipPath id="clip0_2121_1615">
<rect width="16.6667" height="16.6667" fill="white" transform="translate(0.164062 0.666992)"/>
</clipPath>
</defs>
</svg>
