<svg width="15" height="14" viewBox="0 0 15 14" fill="none" xmlns="http://www.w3.org/2000/svg">
<path d="M7.20191 1.17733C3.99343 1.36858 1.53475 4.13894 1.72599 7.34741C1.91723 10.5559 4.68759 13.0146 7.89607 12.8233C11.1045 12.6321 13.5632 9.86173 13.372 6.65325C13.1807 3.44478 10.4104 0.986093 7.20191 1.17733ZM10.2059 8.92816C10.1327 9.07278 9.99164 9.15715 9.84024 9.16618C9.76455 9.17069 9.6878 9.15773 9.61515 9.11531L7.74581 8.14565C7.28148 7.90452 6.91451 7.33618 6.88362 6.81793L6.74132 4.4305C6.72709 4.19176 6.91327 3.98198 7.15201 3.96775C7.39075 3.95352 7.60054 4.1397 7.61477 4.37844L7.75707 6.76587C7.76957 6.9755 7.96265 7.2737 8.14941 7.36776L10.0188 8.33742C10.2357 8.44721 10.3215 8.7109 10.2059 8.92816Z" fill="#101828"/>
</svg>
