<svg width="26" height="25" viewBox="0 0 26 25" fill="none" xmlns="http://www.w3.org/2000/svg">
    <rect x="0.925781" width="24.25" height="24.25" rx="12.125" fill="#E1E5EB"/>
    <path d="M9.76687 7.7379C9.54765 7.51868 9.19223 7.51868 8.97301 7.7379C8.75379 7.95712 8.75379 8.31254 8.97301 8.53176L11.9441 11.5029L8.97302 14.474C8.75381 14.6932 8.75381 15.0487 8.97302 15.2679C9.19224 15.4871 9.54766 15.4871 9.76688 15.2679L12.738 12.2968L15.7091 15.2679C15.9283 15.4871 16.2838 15.4871 16.503 15.2679C16.7222 15.0487 16.7222 14.6932 16.503 14.474L13.5319 11.5029L16.503 8.53176C16.7222 8.31254 16.7222 7.95712 16.503 7.7379C16.2838 7.51868 15.9284 7.51868 15.7091 7.7379L12.738 10.709L9.76687 7.7379Z" fill="#33383F"/>
</svg>
