<svg width="37" height="37" viewBox="0 0 37 37" fill="none" xmlns="http://www.w3.org/2000/svg">
<rect width="37" height="37" rx="4.98077" fill="#F2F3F7"/>
<path d="M18.2875 20.2125L16.9 21.6C16.6075 21.8925 16.1425 21.8925 15.8425 21.6075C15.76 21.525 15.6775 21.45 15.595 21.3675C14.8225 20.5875 14.125 19.77 13.5025 18.915C12.8875 18.06 12.3925 17.205 12.0325 16.3575C11.68 15.5025 11.5 14.685 11.5 13.905C11.5 13.395 11.59 12.9075 11.77 12.4575C11.95 12 12.235 11.58 12.6325 11.205C13.1125 10.7325 13.6375 10.5 14.1925 10.5C14.4025 10.5 14.6125 10.545 14.8 10.635C14.995 10.725 15.1675 10.86 15.3025 11.055L17.0425 13.5075C17.1775 13.695 17.275 13.8675 17.3425 14.0325C17.41 14.19 17.4475 14.3475 17.4475 14.49C17.4475 14.67 17.395 14.85 17.29 15.0225C17.1925 15.195 17.05 15.375 16.87 15.555L16.3 16.1475C16.2175 16.23 16.18 16.3275 16.18 16.4475C16.18 16.5075 16.1875 16.56 16.2025 16.62C16.225 16.68 16.2475 16.725 16.2625 16.77C16.3975 17.0175 16.63 17.34 16.96 17.73C17.2975 18.12 17.6575 18.5175 18.0475 18.915C18.1225 18.99 18.205 19.065 18.28 19.14C18.58 19.4325 18.5875 19.9125 18.2875 20.2125Z" fill="#292D32"/>
<path d="M26.4767 22.7475C26.4767 22.9575 26.4392 23.175 26.3642 23.385C26.3417 23.445 26.3192 23.505 26.2892 23.565C26.1617 23.835 25.9967 24.09 25.7792 24.33C25.4117 24.735 25.0067 25.0275 24.5492 25.215C24.5417 25.215 24.5342 25.2225 24.5267 25.2225C24.0842 25.4025 23.6042 25.5 23.0867 25.5C22.3217 25.5 21.5042 25.32 20.6417 24.9525C19.7792 24.585 18.9167 24.09 18.0617 23.4675C17.7692 23.25 17.4767 23.0325 17.1992 22.8L19.6517 20.3475C19.8617 20.505 20.0492 20.625 20.2067 20.7075C20.2442 20.7225 20.2892 20.745 20.3417 20.7675C20.4017 20.79 20.4617 20.7975 20.5292 20.7975C20.6567 20.7975 20.7542 20.7525 20.8367 20.67L21.4067 20.1075C21.5942 19.92 21.7742 19.7775 21.9467 19.6875C22.1192 19.5825 22.2917 19.53 22.4792 19.53C22.6217 19.53 22.7717 19.56 22.9367 19.6275C23.1017 19.695 23.2742 19.7925 23.4617 19.92L25.9442 21.6825C26.1392 21.8175 26.2742 21.975 26.3567 22.1625C26.4317 22.35 26.4767 22.5375 26.4767 22.7475Z" fill="#292D32"/>
</svg>
