<svg width="29" height="29" viewBox="0 0 29 29" fill="none" xmlns="http://www.w3.org/2000/svg">
<rect width="28" height="28" rx="5.25" transform="matrix(1 0 0 -1 0.5 28.5)" fill="#386BF6" fill-opacity="0.1"/>
<mask id="mask0_2067_124514" style="mask-type:luminance" maskUnits="userSpaceOnUse" x="5" y="5" width="19" height="19">
<path d="M23.2329 23.2329V5.76709H5.76709V23.2329H23.2329Z" fill="white" stroke="white" stroke-width="0.0341797"/>
</mask>
<g mask="url(#mask0_2067_124514)">
<path d="M19.9365 20.6523H8.99902C7.48886 20.6523 6.26465 19.4281 6.26465 17.918H22.7393C22.7393 19.4281 21.4467 20.6523 19.9365 20.6523Z" stroke="#386BF6" stroke-width="1.02539" stroke-miterlimit="10" stroke-linecap="round" stroke-linejoin="round"/>
<path d="M14.501 10.3984C10.348 10.3984 6.98145 13.7651 6.98145 17.918H22.0205C22.0205 13.7651 18.6539 10.3984 14.501 10.3984Z" stroke="#386BF6" stroke-width="1.02539" stroke-miterlimit="10" stroke-linecap="round" stroke-linejoin="round"/>
<path d="M15.8682 10.5244V9.71453C15.8682 8.95943 15.2561 8.34734 14.501 8.34734C13.7459 8.34734 13.1338 8.95943 13.1338 9.71453V10.5244" stroke="#386BF6" stroke-width="1.02539" stroke-miterlimit="10" stroke-linecap="round" stroke-linejoin="round"/>
</g>
</svg>
