<svg width="25" height="29" viewBox="0 0 25 29" fill="none" xmlns="http://www.w3.org/2000/svg">
<mask id="mask0_2121_5392" style="mask-type:alpha" maskUnits="userSpaceOnUse" x="0" y="0" width="25" height="29">
<path d="M22.9779 28.3088H2.02206C0.905307 28.3088 0 27.4035 0 26.2868V2.02206C0 0.905307 0.905307 0 2.02206 0H15.625L25 9.375V26.2868C25 27.4035 24.0947 28.3088 22.9779 28.3088Z" fill="url(#paint0_linear_2121_5392)"/>
</mask>
<g mask="url(#mask0_2121_5392)">
<path d="M22.9779 28.3108H2.02206C0.905307 28.3108 0 27.4055 0 26.2887V2.02401C0 0.90726 0.905307 0.00195312 2.02206 0.00195312H15.625L25 9.37695V26.2887C25 27.4055 24.0947 28.3108 22.9779 28.3108Z" fill="url(#paint1_linear_2121_5392)"/>
<g opacity="0.27" filter="url(#filter0_f_2121_5392)">
<rect x="4.41406" y="13.6973" width="16.3603" height="7.72059" fill="#0072A2" style="mix-blend-mode:darken"/>
</g>
<mask id="path-4-outside-1_2121_5392" maskUnits="userSpaceOnUse" x="3.76953" y="14.3281" width="18" height="7" fill="black">
<rect fill="white" x="3.76953" y="14.3281" width="18" height="7"/>
<path d="M5.0953 20.3281C5.00333 20.3281 4.92588 20.2967 4.86295 20.2337C4.80002 20.1708 4.76856 20.0934 4.76856 20.0014V15.5939C4.76856 15.502 4.80002 15.4245 4.86295 15.3616C4.92588 15.2938 5.00333 15.2599 5.0953 15.2599H6.55477C7.10661 15.2599 7.57374 15.3834 7.95615 15.6302C8.3434 15.8723 8.63385 16.1869 8.82747 16.5742C9.0211 16.9614 9.11791 17.368 9.11791 17.794C9.11791 18.22 9.0211 18.6266 8.82747 19.0139C8.63385 19.4011 8.3434 19.7182 7.95615 19.9651C7.57374 20.2071 7.10661 20.3281 6.55477 20.3281H5.0953ZM6.4749 19.7109C6.87184 19.7109 7.22037 19.6311 7.52049 19.4713C7.82061 19.3067 8.05296 19.0816 8.21755 18.796C8.38213 18.5056 8.46442 18.1716 8.46442 17.794C8.46442 17.4165 8.38213 17.0849 8.21755 16.7993C8.05296 16.5088 7.82061 16.2837 7.52049 16.124C7.22037 15.9594 6.87184 15.8771 6.4749 15.8771H5.42931V19.7109H6.4749ZM12.9734 20.4007C12.4651 20.4007 12.0197 20.2894 11.6373 20.0667C11.2549 19.8441 10.9596 19.5367 10.7515 19.1446C10.5433 18.7525 10.4344 18.3023 10.4247 17.794C10.4344 17.2858 10.5433 16.8356 10.7515 16.4435C10.9596 16.0514 11.2549 15.744 11.6373 15.5213C12.0197 15.2987 12.4651 15.1873 12.9734 15.1873C13.4816 15.1873 13.9245 15.2987 14.3021 15.5213C14.6845 15.744 14.9798 16.0538 15.188 16.4507C15.401 16.8428 15.5123 17.2906 15.522 17.794C15.5123 18.2975 15.401 18.7476 15.188 19.1446C14.9798 19.5367 14.6845 19.8441 14.3021 20.0667C13.9245 20.2894 13.4816 20.4007 12.9734 20.4007ZM12.9734 19.7835C13.3606 19.7835 13.697 19.6964 13.9826 19.5222C14.2682 19.3479 14.4861 19.1107 14.6361 18.8106C14.7862 18.5104 14.8612 18.1716 14.8612 17.794C14.8612 17.4165 14.7862 17.0776 14.6361 16.7775C14.4861 16.4774 14.2682 16.2402 13.9826 16.0659C13.697 15.8916 13.3606 15.8045 12.9734 15.8045C12.5813 15.8045 12.2424 15.8916 11.9568 16.0659C11.676 16.2402 11.4606 16.4774 11.3106 16.7775C11.1605 17.0776 11.0855 17.4165 11.0855 17.794C11.0855 18.1716 11.1605 18.5104 11.3106 18.8106C11.4606 19.1107 11.676 19.3479 11.9568 19.5222C12.2424 19.6964 12.5813 19.7835 12.9734 19.7835ZM19.3669 20.4007C18.8828 20.4007 18.4471 20.2967 18.0599 20.0885C17.6775 19.8755 17.3749 19.573 17.1522 19.1809C16.9344 18.7839 16.8255 18.3217 16.8255 17.794C16.8255 17.2664 16.9344 16.8065 17.1522 16.4144C17.3749 16.0175 17.6775 15.715 18.0599 15.5068C18.4471 15.2938 18.8828 15.1873 19.3669 15.1873C19.696 15.1873 19.9889 15.226 20.2454 15.3035C20.5068 15.3809 20.7658 15.4923 21.0224 15.6375C21.1289 15.6956 21.1821 15.7876 21.1821 15.9134C21.1821 15.986 21.1555 16.0514 21.1022 16.1095C21.049 16.1627 20.9788 16.1893 20.8917 16.1893C20.8433 16.1893 20.7997 16.1797 20.761 16.1603C20.548 16.049 20.3398 15.9642 20.1365 15.9062C19.9332 15.8481 19.6984 15.819 19.4322 15.819C19.0159 15.819 18.6601 15.9062 18.3648 16.0804C18.0744 16.2498 17.8541 16.4846 17.7041 16.7847C17.5589 17.08 17.4863 17.4165 17.4863 17.794C17.4863 18.1716 17.5589 18.5104 17.7041 18.8106C17.8541 19.1059 18.0744 19.3406 18.3648 19.5149C18.6601 19.6843 19.0159 19.769 19.4322 19.769C19.6984 19.769 19.9332 19.74 20.1365 19.6819C20.3398 19.6238 20.548 19.5391 20.761 19.4278C20.7997 19.4084 20.8433 19.3987 20.8917 19.3987C20.9788 19.3987 21.049 19.4253 21.1022 19.4786C21.1555 19.5318 21.1821 19.5972 21.1821 19.6746C21.1821 19.8005 21.1289 19.8925 21.0224 19.9506C20.7658 20.0958 20.5068 20.2071 20.2454 20.2846C19.9889 20.362 19.696 20.4007 19.3669 20.4007Z"/>
</mask>
<path d="M5.0953 20.3281C5.00333 20.3281 4.92588 20.2967 4.86295 20.2337C4.80002 20.1708 4.76856 20.0934 4.76856 20.0014V15.5939C4.76856 15.502 4.80002 15.4245 4.86295 15.3616C4.92588 15.2938 5.00333 15.2599 5.0953 15.2599H6.55477C7.10661 15.2599 7.57374 15.3834 7.95615 15.6302C8.3434 15.8723 8.63385 16.1869 8.82747 16.5742C9.0211 16.9614 9.11791 17.368 9.11791 17.794C9.11791 18.22 9.0211 18.6266 8.82747 19.0139C8.63385 19.4011 8.3434 19.7182 7.95615 19.9651C7.57374 20.2071 7.10661 20.3281 6.55477 20.3281H5.0953ZM6.4749 19.7109C6.87184 19.7109 7.22037 19.6311 7.52049 19.4713C7.82061 19.3067 8.05296 19.0816 8.21755 18.796C8.38213 18.5056 8.46442 18.1716 8.46442 17.794C8.46442 17.4165 8.38213 17.0849 8.21755 16.7993C8.05296 16.5088 7.82061 16.2837 7.52049 16.124C7.22037 15.9594 6.87184 15.8771 6.4749 15.8771H5.42931V19.7109H6.4749ZM12.9734 20.4007C12.4651 20.4007 12.0197 20.2894 11.6373 20.0667C11.2549 19.8441 10.9596 19.5367 10.7515 19.1446C10.5433 18.7525 10.4344 18.3023 10.4247 17.794C10.4344 17.2858 10.5433 16.8356 10.7515 16.4435C10.9596 16.0514 11.2549 15.744 11.6373 15.5213C12.0197 15.2987 12.4651 15.1873 12.9734 15.1873C13.4816 15.1873 13.9245 15.2987 14.3021 15.5213C14.6845 15.744 14.9798 16.0538 15.188 16.4507C15.401 16.8428 15.5123 17.2906 15.522 17.794C15.5123 18.2975 15.401 18.7476 15.188 19.1446C14.9798 19.5367 14.6845 19.8441 14.3021 20.0667C13.9245 20.2894 13.4816 20.4007 12.9734 20.4007ZM12.9734 19.7835C13.3606 19.7835 13.697 19.6964 13.9826 19.5222C14.2682 19.3479 14.4861 19.1107 14.6361 18.8106C14.7862 18.5104 14.8612 18.1716 14.8612 17.794C14.8612 17.4165 14.7862 17.0776 14.6361 16.7775C14.4861 16.4774 14.2682 16.2402 13.9826 16.0659C13.697 15.8916 13.3606 15.8045 12.9734 15.8045C12.5813 15.8045 12.2424 15.8916 11.9568 16.0659C11.676 16.2402 11.4606 16.4774 11.3106 16.7775C11.1605 17.0776 11.0855 17.4165 11.0855 17.794C11.0855 18.1716 11.1605 18.5104 11.3106 18.8106C11.4606 19.1107 11.676 19.3479 11.9568 19.5222C12.2424 19.6964 12.5813 19.7835 12.9734 19.7835ZM19.3669 20.4007C18.8828 20.4007 18.4471 20.2967 18.0599 20.0885C17.6775 19.8755 17.3749 19.573 17.1522 19.1809C16.9344 18.7839 16.8255 18.3217 16.8255 17.794C16.8255 17.2664 16.9344 16.8065 17.1522 16.4144C17.3749 16.0175 17.6775 15.715 18.0599 15.5068C18.4471 15.2938 18.8828 15.1873 19.3669 15.1873C19.696 15.1873 19.9889 15.226 20.2454 15.3035C20.5068 15.3809 20.7658 15.4923 21.0224 15.6375C21.1289 15.6956 21.1821 15.7876 21.1821 15.9134C21.1821 15.986 21.1555 16.0514 21.1022 16.1095C21.049 16.1627 20.9788 16.1893 20.8917 16.1893C20.8433 16.1893 20.7997 16.1797 20.761 16.1603C20.548 16.049 20.3398 15.9642 20.1365 15.9062C19.9332 15.8481 19.6984 15.819 19.4322 15.819C19.0159 15.819 18.6601 15.9062 18.3648 16.0804C18.0744 16.2498 17.8541 16.4846 17.7041 16.7847C17.5589 17.08 17.4863 17.4165 17.4863 17.794C17.4863 18.1716 17.5589 18.5104 17.7041 18.8106C17.8541 19.1059 18.0744 19.3406 18.3648 19.5149C18.6601 19.6843 19.0159 19.769 19.4322 19.769C19.6984 19.769 19.9332 19.74 20.1365 19.6819C20.3398 19.6238 20.548 19.5391 20.761 19.4278C20.7997 19.4084 20.8433 19.3987 20.8917 19.3987C20.9788 19.3987 21.049 19.4253 21.1022 19.4786C21.1555 19.5318 21.1821 19.5972 21.1821 19.6746C21.1821 19.8005 21.1289 19.8925 21.0224 19.9506C20.7658 20.0958 20.5068 20.2071 20.2454 20.2846C19.9889 20.362 19.696 20.4007 19.3669 20.4007Z" fill="white"/>
<path d="M4.86295 20.2337L4.99293 20.1037L4.86295 20.2337ZM4.86295 15.3616L4.99302 15.4917L4.99766 15.4867L4.86295 15.3616ZM7.95615 15.6302L7.85644 15.7847L7.85872 15.7861L7.95615 15.6302ZM8.82747 16.5742L8.66306 16.6564L8.82747 16.5742ZM8.82747 19.0139L8.66306 18.9317L8.82747 19.0139ZM7.95615 19.9651L8.05446 20.1204L8.05497 20.1201L7.95615 19.9651ZM7.52049 19.4713L7.60686 19.6336L7.60888 19.6325L7.52049 19.4713ZM8.21755 18.796L8.37682 18.8878L8.37748 18.8867L8.21755 18.796ZM8.21755 16.7993L8.05761 16.8899L8.05828 16.891L8.21755 16.7993ZM7.52049 16.124L7.43209 16.2852L7.43412 16.2863L7.52049 16.124ZM5.42931 15.8771V15.6933H5.24549V15.8771H5.42931ZM5.42931 19.7109H5.24549V19.8948H5.42931V19.7109ZM5.0953 20.1443C5.05026 20.1443 5.02012 20.1309 4.99293 20.1037L4.73297 20.3637C4.83164 20.4624 4.9564 20.5119 5.0953 20.5119V20.1443ZM4.99293 20.1037C4.96575 20.0766 4.95238 20.0464 4.95238 20.0014H4.58473C4.58473 20.1403 4.6343 20.265 4.73297 20.3637L4.99293 20.1037ZM4.95238 20.0014V15.5939H4.58473V20.0014H4.95238ZM4.95238 15.5939C4.95238 15.5489 4.96575 15.5188 4.99293 15.4916L4.73297 15.2316C4.6343 15.3303 4.58473 15.455 4.58473 15.5939H4.95238ZM4.99766 15.4867C5.02602 15.4561 5.05477 15.4437 5.0953 15.4437V15.0761C4.95189 15.0761 4.82574 15.1315 4.72825 15.2365L4.99766 15.4867ZM5.0953 15.4437H6.55477V15.0761H5.0953V15.4437ZM6.55477 15.4437C7.07881 15.4437 7.50953 15.5607 7.85645 15.7847L8.05585 15.4758C7.63794 15.206 7.1344 15.0761 6.55477 15.0761V15.4437ZM7.85872 15.7861C8.21894 16.0113 8.4854 16.3011 8.66306 16.6564L8.99189 16.492C8.78229 16.0728 8.46787 15.7333 8.05358 15.4744L7.85872 15.7861ZM8.66306 16.6564C8.84414 17.0185 8.93409 17.3971 8.93409 17.794H9.30174C9.30174 17.339 9.19806 16.9043 8.99189 16.492L8.66306 16.6564ZM8.93409 17.794C8.93409 18.191 8.84414 18.5695 8.66306 18.9317L8.99189 19.0961C9.19806 18.6837 9.30174 18.249 9.30174 17.794H8.93409ZM8.66306 18.9317C8.48522 19.2873 8.21831 19.5799 7.85733 19.8101L8.05497 20.1201C8.4685 19.8565 8.78247 19.5149 8.99189 19.0961L8.66306 18.9317ZM7.85784 19.8097C7.51071 20.0295 7.07947 20.1443 6.55477 20.1443V20.5119C7.13375 20.5119 7.63676 20.3848 8.05446 20.1204L7.85784 19.8097ZM6.55477 20.1443H5.0953V20.5119H6.55477V20.1443ZM6.4749 19.8948C6.8969 19.8948 7.27601 19.8097 7.60686 19.6336L7.43412 19.3091C7.16472 19.4524 6.84677 19.5271 6.4749 19.5271V19.8948ZM7.60888 19.6325C7.93735 19.4524 8.19475 19.2038 8.37682 18.8878L8.05828 18.7043C7.91118 18.9595 7.70387 19.1611 7.4321 19.3101L7.60888 19.6325ZM8.37748 18.8867C8.55968 18.5651 8.64825 18.1991 8.64825 17.794H8.2806C8.2806 18.1441 8.20458 18.4461 8.05762 18.7054L8.37748 18.8867ZM8.64825 17.794C8.64825 17.389 8.55971 17.0248 8.37682 16.7075L8.05828 16.891C8.20455 17.1449 8.2806 17.4439 8.2806 17.794H8.64825ZM8.37748 16.7086C8.19534 16.3872 7.93721 16.1375 7.60686 15.9617L7.43412 16.2863C7.70401 16.4299 7.91058 16.6304 8.05762 16.8899L8.37748 16.7086ZM7.60888 15.9628C7.27762 15.7812 6.89777 15.6933 6.4749 15.6933V16.0609C6.84591 16.0609 7.16311 16.1377 7.4321 16.2852L7.60888 15.9628ZM6.4749 15.6933H5.42931V16.0609H6.4749V15.6933ZM5.24549 15.8771V19.7109H5.61313V15.8771H5.24549ZM5.42931 19.8948H6.4749V19.5271H5.42931V19.8948ZM11.6373 20.0667L11.7298 19.9079L11.6373 20.0667ZM10.7515 19.1446L10.5891 19.2308L10.7515 19.1446ZM10.4247 17.794L10.2408 17.7905L10.2409 17.7975L10.4247 17.794ZM10.7515 16.4435L10.9138 16.5297L10.7515 16.4435ZM11.6373 15.5213L11.5448 15.3625L11.6373 15.5213ZM14.3021 15.5213L14.2087 15.6797L14.2096 15.6802L14.3021 15.5213ZM15.188 16.4507L15.0252 16.5361L15.0264 16.5385L15.188 16.4507ZM15.522 17.794L15.7059 17.7976L15.7058 17.7905L15.522 17.794ZM15.188 19.1446L15.026 19.0577L15.0256 19.0584L15.188 19.1446ZM14.3021 20.0667L14.2096 19.9079L14.2087 19.9084L14.3021 20.0667ZM13.9826 19.5222L13.8869 19.3652L13.9826 19.5222ZM14.6361 18.8106L14.8005 18.8928L14.6361 18.8106ZM14.6361 16.7775L14.8005 16.6953L14.6361 16.7775ZM13.9826 16.0659L13.8869 16.2228L13.9826 16.0659ZM11.9568 16.0659L11.8611 15.909L11.8599 15.9097L11.9568 16.0659ZM11.3106 16.7775L11.1462 16.6953L11.3106 16.7775ZM11.3106 18.8106L11.1462 18.8928L11.3106 18.8106ZM11.9568 19.5222L11.8599 19.6783L11.8611 19.6791L11.9568 19.5222ZM12.9734 20.2169C12.4927 20.2169 12.0802 20.1119 11.7298 19.9079L11.5448 20.2256C11.9593 20.4669 12.4375 20.5846 12.9734 20.5846V20.2169ZM11.7298 19.9079C11.3771 19.7025 11.106 19.4203 10.9138 19.0584L10.5891 19.2308C10.8133 19.653 11.1327 19.9856 11.5448 20.2256L11.7298 19.9079ZM10.9138 19.0584C10.7211 18.6953 10.6177 18.2741 10.6085 17.7905L10.2409 17.7975C10.2511 18.3305 10.3656 18.8097 10.5891 19.2308L10.9138 19.0584ZM10.6085 17.7975C10.6177 17.3139 10.7211 16.8928 10.9138 16.5297L10.5891 16.3573C10.3656 16.7784 10.2511 17.2576 10.2409 17.7905L10.6085 17.7975ZM10.9138 16.5297C11.106 16.1677 11.3771 15.8856 11.7298 15.6802L11.5448 15.3625C11.1327 15.6024 10.8133 15.935 10.5891 16.3573L10.9138 16.5297ZM11.7298 15.6802C12.0802 15.4762 12.4927 15.3711 12.9734 15.3711V15.0035C12.4375 15.0035 11.9593 15.1211 11.5448 15.3625L11.7298 15.6802ZM12.9734 15.3711C13.4541 15.3711 13.8637 15.4762 14.2087 15.6797L14.3955 15.363C13.9854 15.1211 13.5092 15.0035 12.9734 15.0035V15.3711ZM14.2096 15.6802C14.5618 15.8852 14.8329 16.1694 15.0252 16.5361L15.3508 16.3654C15.1268 15.9382 14.8073 15.6028 14.3946 15.3625L14.2096 15.6802ZM15.0264 16.5385C15.2236 16.9015 15.329 17.3198 15.3382 17.7976L15.7058 17.7905C15.6956 17.2614 15.5783 16.7841 15.3495 16.363L15.0264 16.5385ZM15.3382 17.7905C15.329 18.2683 15.2236 18.6893 15.026 19.0577L15.3499 19.2315C15.5783 18.806 15.6956 18.3266 15.7058 17.7976L15.3382 17.7905ZM15.0256 19.0584C14.8335 19.4203 14.5623 19.7025 14.2096 19.9079L14.3946 20.2256C14.8067 19.9856 15.1262 19.653 15.3503 19.2308L15.0256 19.0584ZM14.2087 19.9084C13.8637 20.1119 13.4541 20.2169 12.9734 20.2169V20.5846C13.5092 20.5846 13.9854 20.4669 14.3955 20.2251L14.2087 19.9084ZM12.9734 19.9674C13.389 19.9674 13.7597 19.8735 14.0784 19.6791L13.8869 19.3652C13.6344 19.5193 13.3322 19.5997 12.9734 19.5997V19.9674ZM14.0784 19.6791C14.3935 19.4868 14.6351 19.2237 14.8005 18.8928L14.4717 18.7284C14.337 18.9977 14.143 19.209 13.8869 19.3652L14.0784 19.6791ZM14.8005 18.8928C14.9649 18.5641 15.045 18.1965 15.045 17.794H14.6774C14.6774 18.1467 14.6075 18.4568 14.4717 18.7284L14.8005 18.8928ZM15.045 17.794C15.045 17.3915 14.9649 17.024 14.8005 16.6953L14.4717 16.8597C14.6075 17.1312 14.6774 17.4414 14.6774 17.794H15.045ZM14.8005 16.6953C14.6351 16.3644 14.3935 16.1013 14.0784 15.909L13.8869 16.2228C14.143 16.3791 14.337 16.5903 14.4717 16.8597L14.8005 16.6953ZM14.0784 15.909C13.7597 15.7145 13.389 15.6207 12.9734 15.6207V15.9883C13.3322 15.9883 13.6344 16.0688 13.8869 16.2228L14.0784 15.909ZM12.9734 15.6207C12.5534 15.6207 12.1801 15.7143 11.8611 15.909L12.0526 16.2228C12.3047 16.069 12.6092 15.9883 12.9734 15.9883V15.6207ZM11.8599 15.9097C11.5497 16.1022 11.3112 16.3652 11.1462 16.6953L11.475 16.8597C11.6101 16.5895 11.8024 16.3781 12.0537 16.2221L11.8599 15.9097ZM11.1462 16.6953C10.9818 17.024 10.9017 17.3915 10.9017 17.794H11.2693C11.2693 17.4414 11.3392 17.1312 11.475 16.8597L11.1462 16.6953ZM10.9017 17.794C10.9017 18.1965 10.9818 18.5641 11.1462 18.8928L11.475 18.7284C11.3392 18.4568 11.2693 18.1467 11.2693 17.794H10.9017ZM11.1462 18.8928C11.3112 19.2228 11.5497 19.4858 11.8599 19.6783L12.0537 19.366C11.8024 19.2099 11.6101 18.9986 11.475 18.7284L11.1462 18.8928ZM11.8611 19.6791C12.1801 19.8738 12.5534 19.9674 12.9734 19.9674V19.5997C12.6092 19.5997 12.3047 19.5191 12.0526 19.3652L11.8611 19.6791ZM18.0599 20.0885L17.9704 20.2491L17.9728 20.2504L18.0599 20.0885ZM17.1522 19.1809L16.9911 19.2693L16.9924 19.2717L17.1522 19.1809ZM17.1522 16.4144L16.9919 16.3245L16.9916 16.3252L17.1522 16.4144ZM18.0599 15.5068L18.1478 15.6683L18.1485 15.6679L18.0599 15.5068ZM20.2454 15.3035L20.1923 15.4795L20.1932 15.4797L20.2454 15.3035ZM21.0224 15.6375L20.9318 15.7975L20.9343 15.7989L21.0224 15.6375ZM21.1022 16.1095L21.2323 16.2396L21.2378 16.2337L21.1022 16.1095ZM20.761 16.1603L20.6758 16.3232L20.6788 16.3247L20.761 16.1603ZM20.1365 15.9062L20.187 15.7294L20.1365 15.9062ZM18.3648 16.0804L18.4575 16.2392L18.4583 16.2387L18.3648 16.0804ZM17.7041 16.7847L17.5397 16.7025L17.5391 16.7036L17.7041 16.7847ZM17.7041 18.8106L17.5386 18.8907L17.5402 18.8939L17.7041 18.8106ZM18.3648 19.5149L18.2702 19.6725L18.2734 19.6743L18.3648 19.5149ZM20.1365 19.6819L20.187 19.8586L20.1365 19.6819ZM20.761 19.4278L20.6788 19.2633L20.6758 19.2648L20.761 19.4278ZM21.1022 19.4786L21.2322 19.3486V19.3486L21.1022 19.4786ZM21.0224 19.9506L20.9343 19.7892L20.9318 19.7906L21.0224 19.9506ZM20.2454 20.2846L20.1932 20.1083L20.1923 20.1086L20.2454 20.2846ZM19.3669 20.2169C18.91 20.2169 18.5048 20.119 18.1469 19.9266L17.9728 20.2504C18.3895 20.4744 18.8555 20.5846 19.3669 20.5846V20.2169ZM18.1493 19.9279C17.7972 19.7318 17.5187 19.4538 17.3121 19.0901L16.9924 19.2717C17.2312 19.6921 17.5577 20.0192 17.9704 20.2491L18.1493 19.9279ZM17.3134 19.0924C17.1127 18.7268 17.0093 18.2959 17.0093 17.794H16.6417C16.6417 18.3474 16.7561 18.8411 16.9911 19.2693L17.3134 19.0924ZM17.0093 17.794C17.0093 17.2921 17.1128 16.864 17.3129 16.5037L16.9916 16.3252C16.7561 16.749 16.6417 17.2407 16.6417 17.794H17.0093ZM17.3126 16.5044C17.5191 16.1362 17.7972 15.8591 18.1478 15.6683L17.972 15.3453C17.5578 15.5708 17.2307 15.8988 16.9919 16.3245L17.3126 16.5044ZM18.1485 15.6679C18.506 15.4712 18.9107 15.3711 19.3669 15.3711V15.0035C18.8548 15.0035 18.3882 15.1164 17.9713 15.3457L18.1485 15.6679ZM19.3669 15.3711C19.682 15.3711 19.9564 15.4082 20.1923 15.4795L20.2986 15.1275C20.0214 15.0438 19.7101 15.0035 19.3669 15.0035V15.3711ZM20.1932 15.4797C20.4402 15.5529 20.6864 15.6586 20.9318 15.7975L21.1129 15.4775C20.8452 15.326 20.5734 15.209 20.2977 15.1272L20.1932 15.4797ZM20.9343 15.7989C20.9623 15.8141 20.9756 15.8293 20.9831 15.8421C20.9908 15.8554 20.9983 15.8768 20.9983 15.9134H21.3659C21.3659 15.8241 21.3469 15.7367 21.3013 15.6579C21.2555 15.5788 21.189 15.519 21.1104 15.4761L20.9343 15.7989ZM20.9983 15.9134C20.9983 15.9359 20.9918 15.9579 20.9667 15.9853L21.2378 16.2337C21.3192 16.1448 21.3659 16.0361 21.3659 15.9134H20.9983ZM20.9723 15.9795C20.9589 15.9928 20.9383 16.0055 20.8917 16.0055V16.3732C21.0193 16.3732 21.1391 16.3326 21.2322 16.2394L20.9723 15.9795ZM20.8917 16.0055C20.8684 16.0055 20.8535 16.001 20.8432 15.9959L20.6788 16.3247C20.7459 16.3583 20.8181 16.3732 20.8917 16.3732V16.0055ZM20.8461 15.9974C20.6236 15.881 20.4038 15.7913 20.187 15.7294L20.086 16.0829C20.2758 16.1371 20.4724 16.2169 20.6758 16.3232L20.8461 15.9974ZM20.187 15.7294C19.9637 15.6656 19.7113 15.6352 19.4322 15.6352V16.0028C19.6856 16.0028 19.9027 16.0305 20.086 16.0829L20.187 15.7294ZM19.4322 15.6352C18.9901 15.6352 18.6005 15.7279 18.2714 15.9221L18.4583 16.2387C18.7197 16.0844 19.0417 16.0028 19.4322 16.0028V15.6352ZM18.2722 15.9216C17.951 16.109 17.7057 16.3704 17.5397 16.7025L17.8685 16.867C18.0025 16.5989 18.1978 16.3907 18.4575 16.2392L18.2722 15.9216ZM17.5391 16.7036C17.3798 17.0276 17.3024 17.3925 17.3024 17.794H17.6701C17.6701 17.4404 17.7379 17.1324 17.869 16.8659L17.5391 16.7036ZM17.3024 17.794C17.3024 18.1956 17.3798 18.5624 17.5386 18.8906L17.8696 18.7305C17.7379 18.4585 17.6701 18.1476 17.6701 17.794H17.3024ZM17.5402 18.8939C17.7063 19.2207 17.9509 19.4809 18.2703 19.6725L18.4594 19.3573C18.1979 19.2004 18.002 18.991 17.868 18.7273L17.5402 18.8939ZM18.2734 19.6743C18.6021 19.8629 18.9909 19.9528 19.4322 19.9528V19.5852C19.0409 19.5852 18.7182 19.5057 18.4563 19.3554L18.2734 19.6743ZM19.4322 19.9528C19.7113 19.9528 19.9637 19.9225 20.187 19.8586L20.086 19.5051C19.9027 19.5575 19.6856 19.5852 19.4322 19.5852V19.9528ZM20.187 19.8586C20.4038 19.7967 20.6236 19.707 20.8461 19.5907L20.6758 19.2648C20.4724 19.3712 20.2758 19.4509 20.086 19.5051L20.187 19.8586ZM20.8432 19.5922C20.8535 19.587 20.8684 19.5825 20.8917 19.5825V19.2149C20.8181 19.2149 20.7459 19.2298 20.6788 19.2633L20.8432 19.5922ZM20.8917 19.5825C20.9383 19.5825 20.9589 19.5952 20.9723 19.6086L21.2322 19.3486C21.1391 19.2554 21.0193 19.2149 20.8917 19.2149V19.5825ZM20.9723 19.6086C20.99 19.6263 20.9983 19.6444 20.9983 19.6746H21.3659C21.3659 19.55 21.321 19.4374 21.2322 19.3486L20.9723 19.6086ZM20.9983 19.6746C20.9983 19.7112 20.9908 19.7327 20.9831 19.7459C20.9756 19.7588 20.9623 19.7739 20.9343 19.7892L21.1104 20.1119C21.189 20.0691 21.2555 20.0092 21.3013 19.9301C21.3469 19.8514 21.3659 19.7639 21.3659 19.6746H20.9983ZM20.9318 19.7906C20.6864 19.9295 20.4402 20.0351 20.1932 20.1083L20.2977 20.4608C20.5734 20.3791 20.8452 20.2621 21.1129 20.1105L20.9318 19.7906ZM20.1923 20.1086C19.9564 20.1798 19.682 20.2169 19.3669 20.2169V20.5846C19.7101 20.5846 20.0214 20.5442 20.2986 20.4605L20.1923 20.1086Z" fill="white" mask="url(#path-4-outside-1_2121_5392)"/>
<mask id="mask1_2121_5392" style="mask-type:alpha" maskUnits="userSpaceOnUse" x="0" y="0" width="25" height="29">
<path d="M22.9779 28.3109H2.02206C0.905307 28.3109 0 27.4056 0 26.2888V2.02413C0 0.907382 0.905307 0.0020752 2.02206 0.0020752H15.625L25 9.37707V26.2888C25 27.4056 24.0947 28.3109 22.9779 28.3109Z" fill="url(#paint2_linear_2121_5392)"/>
</mask>
<g mask="url(#mask1_2121_5392)">
<ellipse opacity="0.05" cx="-1.33273" cy="-1.14809" rx="20.5423" ry="19.7151" fill="url(#paint3_linear_2121_5392)"/>
<ellipse opacity="0.07" cx="-1.32859" cy="-1.14556" rx="12.9136" ry="12.3621" fill="url(#paint4_linear_2121_5392)"/>
</g>
<g filter="url(#filter1_d_2121_5392)">
<path d="M24.9991 9.37606H17.6471C16.5303 9.37606 15.625 8.47075 15.625 7.354V0.00195312L24.9991 9.37606Z" fill="url(#paint5_linear_2121_5392)"/>
</g>
<g opacity="0.11">
<line x1="6.71094" y1="12.0403" x2="18.2907" y2="12.0403" stroke="white" stroke-width="1.10294"/>
<line x1="6.71094" y1="14.7983" x2="18.2907" y2="14.7983" stroke="white" stroke-width="1.10294"/>
<line x1="6.71094" y1="17.5541" x2="18.2907" y2="17.5541" stroke="white" stroke-width="1.10294"/>
<line x1="6.71094" y1="20.312" x2="18.2907" y2="20.312" stroke="white" stroke-width="1.10294"/>
<line x1="6.71094" y1="23.0696" x2="18.2907" y2="23.0696" stroke="white" stroke-width="1.10294"/>
</g>
</g>
<defs>
<filter id="filter0_f_2121_5392" x="0.829504" y="10.1127" width="23.5295" height="14.8897" filterUnits="userSpaceOnUse" color-interpolation-filters="sRGB">
<feFlood flood-opacity="0" result="BackgroundImageFix"/>
<feBlend mode="normal" in="SourceGraphic" in2="BackgroundImageFix" result="shape"/>
<feGaussianBlur stdDeviation="1.79228" result="effect1_foregroundBlur_2121_5392"/>
</filter>
<filter id="filter1_d_2121_5392" x="13.511" y="-2.20393" width="13.9696" height="13.9697" filterUnits="userSpaceOnUse" color-interpolation-filters="sRGB">
<feFlood flood-opacity="0" result="BackgroundImageFix"/>
<feColorMatrix in="SourceAlpha" type="matrix" values="0 0 0 0 0 0 0 0 0 0 0 0 0 0 0 0 0 0 127 0" result="hardAlpha"/>
<feOffset dx="0.183824" dy="0.0919118"/>
<feGaussianBlur stdDeviation="1.1489"/>
<feColorMatrix type="matrix" values="0 0 0 0 0 0 0 0 0 0 0 0 0 0 0 0 0 0 0.33 0"/>
<feBlend mode="normal" in2="BackgroundImageFix" result="effect1_dropShadow_2121_5392"/>
<feBlend mode="normal" in="SourceGraphic" in2="effect1_dropShadow_2121_5392" result="shape"/>
</filter>
<linearGradient id="paint0_linear_2121_5392" x1="12.5" y1="0" x2="12.5" y2="28.3088" gradientUnits="userSpaceOnUse">
<stop stop-color="#FF7979"/>
<stop offset="1" stop-color="#E85555"/>
</linearGradient>
<linearGradient id="paint1_linear_2121_5392" x1="12.5" y1="0.00195312" x2="12.5" y2="28.3108" gradientUnits="userSpaceOnUse">
<stop stop-color="#6ABDF8"/>
<stop offset="1" stop-color="#008BD6"/>
</linearGradient>
<linearGradient id="paint2_linear_2121_5392" x1="12.5" y1="0.0020752" x2="12.5" y2="28.3109" gradientUnits="userSpaceOnUse">
<stop stop-color="#6ABDF8"/>
<stop offset="1" stop-color="#008BD6"/>
</linearGradient>
<linearGradient id="paint3_linear_2121_5392" x1="0.158792" y1="-0.470593" x2="6.3885" y2="16.0631" gradientUnits="userSpaceOnUse">
<stop stop-color="white" stop-opacity="0"/>
<stop offset="1" stop-color="white"/>
</linearGradient>
<linearGradient id="paint4_linear_2121_5392" x1="-0.390965" y1="-0.720743" x2="3.50785" y2="9.65308" gradientUnits="userSpaceOnUse">
<stop stop-color="white" stop-opacity="0"/>
<stop offset="1" stop-color="white"/>
</linearGradient>
<linearGradient id="paint5_linear_2121_5392" x1="20.3121" y1="0.00195312" x2="20.3121" y2="9.37606" gradientUnits="userSpaceOnUse">
<stop stop-color="#009FE3"/>
<stop offset="1" stop-color="#0087C1"/>
</linearGradient>
</defs>
</svg>
