<svg width="12" height="13" viewBox="0 0 12 13" fill="none" xmlns="http://www.w3.org/2000/svg">
    <path d="M8.33333 0.667969H3.66667C1.625 0.667969 0.75 1.83464 0.75 3.58464V9.41797C0.75 11.168 1.625 12.3346 3.66667 12.3346H8.33333C10.375 12.3346 11.25 11.168 11.25 9.41797V3.58464C11.25 1.83464 10.375 0.667969 8.33333 0.667969ZM3.66667 6.64714H6C6.23917 6.64714 6.4375 6.84547 6.4375 7.08464C6.4375 7.3238 6.23917 7.52214 6 7.52214H3.66667C3.4275 7.52214 3.22917 7.3238 3.22917 7.08464C3.22917 6.84547 3.4275 6.64714 3.66667 6.64714ZM8.33333 9.85547H3.66667C3.4275 9.85547 3.22917 9.65714 3.22917 9.41797C3.22917 9.1788 3.4275 8.98047 3.66667 8.98047H8.33333C8.5725 8.98047 8.77083 9.1788 8.77083 9.41797C8.77083 9.65714 8.5725 9.85547 8.33333 9.85547ZM9.79167 4.89714H8.625C7.73833 4.89714 7.02083 4.17964 7.02083 3.29297V2.1263C7.02083 1.88714 7.21917 1.6888 7.45833 1.6888C7.6975 1.6888 7.89583 1.88714 7.89583 2.1263V3.29297C7.89583 3.69547 8.2225 4.02214 8.625 4.02214H9.79167C10.0308 4.02214 10.2292 4.22047 10.2292 4.45964C10.2292 4.6988 10.0308 4.89714 9.79167 4.89714Z" fill="white"/>
</svg>
