<svg width="37" height="37" viewBox="0 0 37 37" fill="none" xmlns="http://www.w3.org/2000/svg">
<rect width="37" height="37" rx="4.98077" fill="#F2F3F7"/>
<path d="M22.75 11.625H15.25C13 11.625 11.5 12.75 11.5 15.375V20.625C11.5 23.25 13 24.375 15.25 24.375H22.75C25 24.375 26.5 23.25 26.5 20.625V15.375C26.5 12.75 25 11.625 22.75 11.625ZM23.1025 16.1925L20.755 18.0675C20.26 18.465 19.63 18.66 19 18.66C18.37 18.66 17.7325 18.465 17.245 18.0675L14.8975 16.1925C14.6575 15.9975 14.62 15.6375 14.8075 15.3975C15.0025 15.1575 15.355 15.1125 15.595 15.3075L17.9425 17.1825C18.5125 17.64 19.48 17.64 20.05 17.1825L22.3975 15.3075C22.6375 15.1125 22.9975 15.15 23.185 15.3975C23.38 15.6375 23.3425 15.9975 23.1025 16.1925Z" fill="#292D32"/>
</svg>
