<svg width="88" height="64" viewBox="0 0 88 64" fill="none" xmlns="http://www.w3.org/2000/svg">
<path d="M68.7268 64H49.8557V44.9312H56.0921C57.6737 44.9312 58.6083 43.134 57.6737 41.8399L45.5423 25.0536C44.7694 23.9753 43.1699 23.9753 42.3971 25.0536L30.2657 41.8399C29.3311 43.134 30.2477 44.9312 31.8472 44.9312H38.0837V64H16.9481C7.5125 63.4788 0 54.6543 0 45.093C0 38.4971 3.57652 32.7459 8.87841 29.6366C8.39315 28.3246 8.14153 26.9228 8.14153 25.449C8.14153 18.7094 13.5872 13.2637 20.3269 13.2637C21.7826 13.2637 23.1845 13.5153 24.4965 14.0006C28.3965 5.73322 36.8076 0 46.5847 0C59.2373 0.0179725 69.6613 9.70514 70.8475 22.0522C80.5706 23.7237 87.9573 32.7279 87.9573 42.9183C87.9573 53.8096 79.4743 63.2452 68.7268 64Z" fill="black"/>
</svg>
