<svg width="55" height="55" viewBox="0 0 55 55" fill="none" xmlns="http://www.w3.org/2000/svg">
<rect x="0.75" y="0.75" width="53.5" height="53.5" rx="7.25" fill="#FBF5F1" stroke="black" stroke-width="1.5"/>
<path d="M19 24C18.9995 23.1129 19.3124 22.2508 19.8894 21.5493C20.4664 20.8478 21.2749 20.3468 22.1875 20.125L22.1875 17L24.3125 17L24.3125 20.126C25.0821 20.313 25.7806 20.6994 26.3285 21.2413C26.8765 21.7832 27.2521 22.4589 27.4125 23.1916C27.573 23.9243 27.5119 24.6846 27.2362 25.3863C26.9605 26.0879 26.4813 26.7028 25.853 27.1609C25.2247 27.6191 24.4724 27.9023 23.6817 27.9783C22.891 28.0543 22.0934 27.92 21.3797 27.5908C20.666 27.2616 20.0646 26.7506 19.6439 26.1159C19.2233 25.4811 19.0002 24.7481 19 24ZM25.375 24C25.3746 23.6084 25.252 23.2254 25.0224 22.8988C24.7929 22.5721 24.4665 22.3161 24.0838 22.1624C23.701 22.0087 23.2787 21.9642 22.8693 22.0344C22.46 22.1045 22.0815 22.2863 21.7808 22.557C21.4802 22.8278 21.2706 23.1757 21.1781 23.5576C21.0857 23.9394 21.1143 24.3384 21.2606 24.7051C21.4069 25.0717 21.6643 25.3899 22.001 25.6201C22.3376 25.8503 22.7387 25.9824 23.1544 26L22.7294 26L23.25 26C23.8136 26 24.3541 25.7893 24.7526 25.4142C25.1511 25.0391 25.375 24.5304 25.375 24ZM22.1875 38L22.1875 29L24.3125 29L24.3125 38L22.1875 38ZM27.5 29C27.4998 28.113 27.8127 27.2512 28.3897 26.5499C28.9667 25.8486 29.775 25.3477 30.6875 25.126L30.6875 18L32.8125 18L32.8125 25.126C33.5821 25.313 34.2806 25.6994 34.8285 26.2413C35.3765 26.7832 35.7521 27.4589 35.9125 28.1916C36.073 28.9243 36.0119 29.6846 35.7362 30.3863C35.4605 31.0879 34.9813 31.7028 34.353 32.1609C33.7247 32.6191 32.9724 32.9023 32.1817 32.9783C31.391 33.0543 30.5934 32.92 29.8797 32.5908C29.1659 32.2616 28.5646 31.7506 28.1439 31.1159C27.7233 30.4811 27.5002 29.7481 27.5 29ZM33.875 29C33.8746 28.6084 33.752 28.2254 33.5224 27.8988C33.2929 27.5721 32.9665 27.3161 32.5838 27.1624C32.201 27.0087 31.7787 26.9642 31.3693 27.0344C30.96 27.1045 30.5815 27.2863 30.2808 27.557C29.9802 27.8278 29.7706 28.1757 29.6781 28.5576C29.5857 28.9394 29.6143 29.3384 29.7606 29.7051C29.9069 30.0717 30.1643 30.3899 30.501 30.6201C30.8376 30.8503 31.2387 30.9824 31.6544 31L31.2294 31L31.75 31C32.3136 31 32.8541 30.7893 33.2526 30.4142C33.6511 30.0391 33.875 29.5304 33.875 29ZM30.6875 38L30.6875 34L32.8125 34L32.8125 38L30.6875 38Z" fill="black"/>
</svg>
