<svg width="21" height="20" viewBox="0 0 21 20" fill="none" xmlns="http://www.w3.org/2000/svg">
    <g clip-path="url(#clip0_652_260924)">
        <path d="M20.0158 17.6115C19.906 17.3071 19.5702 17.1493 19.2658 17.2592L17.5762 17.8687L16.676 15.3953C18.2051 13.1437 18.5639 10.3036 17.6283 7.73285L16.2678 3.99496C16.2147 3.84894 16.1057 3.73 15.9648 3.66434C15.824 3.59867 15.6629 3.59164 15.5168 3.6448L10.0507 5.63426L4.58471 3.64473C4.43869 3.59156 4.27756 3.59859 4.13666 3.66426C3.99584 3.72992 3.88682 3.84887 3.83369 3.99488L2.47322 7.73277C1.53752 10.3035 1.89635 13.1436 3.42553 15.3952L2.52525 17.8687L0.835721 17.2591C0.531346 17.1493 0.195526 17.3071 0.0857214 17.6115C-0.0241224 17.9159 0.133651 18.2517 0.438065 18.3615L4.88185 19.9646C5.18658 20.0746 5.52217 19.9164 5.63185 19.6123C5.7417 19.3079 5.58392 18.9721 5.27951 18.8623L3.6276 18.2663L4.52678 15.796C7.03045 15.0867 9.05963 13.2772 10.0508 10.8729C11.0419 13.2772 13.0711 15.0867 15.5748 15.796L16.474 18.2664L14.8221 18.8623C14.5177 18.9722 14.3599 19.308 14.4697 19.6123C14.5795 19.9168 14.9154 20.0745 15.2197 19.9647L19.6635 18.3615C19.9679 18.2516 20.1256 17.9159 20.0158 17.6115ZM4.32592 14.6345C3.08279 12.7361 2.79057 10.373 3.54459 8.21941C4.36662 8.27598 5.13181 8.62223 5.72006 9.21047C6.57092 10.0613 7.70494 10.5343 8.91767 10.5459C8.06256 12.5205 6.38748 14.0128 4.32592 14.6345ZM9.35803 9.37457H8.9635C8.0465 9.37457 7.18892 9.02199 6.54873 8.38176C5.83779 7.67082 4.93459 7.22227 3.95639 7.08414L4.73451 4.94629L9.8551 6.81004L9.85525 6.81008L10.2404 6.95027L9.35803 9.37457ZM10.6051 9.37461L11.542 6.80051C11.5981 6.64625 11.5853 6.48387 11.5194 6.34672L15.367 4.94633L16.1451 7.08418C15.1669 7.22234 14.2637 7.67094 13.5528 8.3818C12.9126 9.02203 12.055 9.37461 11.138 9.37461H10.6051ZM15.7756 14.6345C13.714 14.0128 12.0389 12.5205 11.1838 10.5459C12.3966 10.5343 13.5306 10.0613 14.3815 9.21051C14.9697 8.62227 15.7349 8.27601 16.5569 8.21945C17.3109 10.373 17.0187 12.7361 15.7756 14.6345Z" fill="white"/>
        <path d="M10.0508 0C9.72719 0 9.46484 0.262344 9.46484 0.585938V1.83594C9.46484 2.15953 9.72719 2.42188 10.0508 2.42188C10.3744 2.42188 10.6367 2.15953 10.6367 1.83594V0.585938C10.6367 0.262344 10.3744 0 10.0508 0Z" fill="white"/>
        <path d="M13.2234 1.5935C12.9946 1.36467 12.6236 1.36467 12.3948 1.5935L11.5662 2.42213C11.3373 2.65096 11.3373 3.02193 11.5662 3.25076C11.7949 3.47959 12.166 3.47963 12.3948 3.25076L13.2234 2.42213C13.4522 2.1933 13.4522 1.82232 13.2234 1.5935Z" fill="white"/>
        <path d="M8.53592 2.42213L7.70729 1.5935C7.4785 1.36467 7.10748 1.36467 6.87865 1.5935C6.64982 1.82232 6.64982 2.1933 6.87865 2.42213L7.70729 3.25072C7.93607 3.47955 8.30709 3.47959 8.53592 3.25072C8.76475 3.02189 8.76475 2.65096 8.53592 2.42213Z" fill="white"/>
    </g>
    <defs>
        <clipPath id="clip0_652_260924">
            <rect width="20" height="20" fill="white" transform="translate(0.0507812)"/>
        </clipPath>
    </defs>
</svg>
