<svg width="21" height="20" viewBox="0 0 21 20" fill="none" xmlns="http://www.w3.org/2000/svg">
    <path d="M18.5383 4.82006L12.7783 0.79006C11.2083 -0.30994 8.79828 -0.24994 7.28828 0.92006L2.27828 4.83006C1.27828 5.61006 0.488281 7.21006 0.488281 8.47006V15.3701C0.488281 17.9201 2.55828 20.0001 5.10828 20.0001H15.8883C18.4383 20.0001 20.5083 17.9301 20.5083 15.3801V8.60006C20.5083 7.25006 19.6383 5.59006 18.5383 4.82006ZM11.2483 16.0001C11.2483 16.4101 10.9083 16.7501 10.4983 16.7501C10.0883 16.7501 9.74828 16.4101 9.74828 16.0001V13.0001C9.74828 12.5901 10.0883 12.2501 10.4983 12.2501C10.9083 12.2501 11.2483 12.5901 11.2483 13.0001V16.0001Z" fill="#B0B0B0"/>
</svg>
