<svg width="68" height="64" viewBox="0 0 68 64" fill="none" xmlns="http://www.w3.org/2000/svg">
<path d="M67.4553 30.2335V50.9651C67.6582 52.7157 67.4626 54.4896 66.8832 56.1539C66.3038 57.8183 65.3555 59.3302 64.1093 60.5763C62.8631 61.8225 61.3513 62.7708 59.6869 63.3502C58.0225 63.9296 56.2487 64.1252 54.498 63.9223H13.035C11.2843 64.1252 9.51045 63.9296 7.84606 63.3502C6.18168 62.7708 4.66985 61.8225 3.42367 60.5763C2.17749 59.3302 1.22923 57.8183 0.649814 56.1539C0.0703972 54.4896 -0.125173 52.7157 0.0777342 50.9651V16.4125C-0.125173 14.6618 0.0703972 12.888 0.649814 11.2236C1.22923 9.5592 2.17749 8.04737 3.42367 6.80119C4.66985 5.55502 6.18168 4.60675 7.84606 4.02734C9.51045 3.44792 11.2843 3.25235 13.035 3.45526H37.2218C37.909 3.45526 38.5682 3.72828 39.0542 4.21427C39.5402 4.70026 39.8132 5.35941 39.8132 6.0467C39.8132 6.73399 39.5402 7.39314 39.0542 7.87913C38.5682 8.36512 37.909 8.63814 37.2218 8.63814H13.035C7.58601 8.63814 5.26062 10.9635 5.26062 16.4125V48.3736L14.037 39.5973C14.6894 38.9499 15.5712 38.5866 16.4902 38.5866C17.4093 38.5866 18.2911 38.9499 18.9434 39.5973L22.1914 42.8452C22.5143 43.1617 22.9485 43.3391 23.4007 43.3391C23.8529 43.3391 24.2871 43.1617 24.6101 42.8452L41.679 25.7762C42.3314 25.1289 43.2132 24.7656 44.1323 24.7656C45.0513 24.7656 45.9331 25.1289 46.5855 25.7762L62.2724 41.4631V30.2335C62.2724 29.5462 62.5454 28.8871 63.0314 28.4011C63.5174 27.9151 64.1765 27.6421 64.8638 27.6421C65.5511 27.6421 66.2103 27.9151 66.6962 28.4011C67.1822 28.8871 67.4553 29.5462 67.4553 30.2335ZM19.9213 19.0039C18.7741 19.0071 17.6751 19.4655 16.8656 20.2784C16.0561 21.0913 15.6023 22.1922 15.6039 23.3394C15.6055 24.4866 16.0624 25.5862 16.8741 26.3969C17.6859 27.2075 18.7862 27.6628 19.9334 27.6628C21.0806 27.6628 22.1809 27.2075 22.9926 26.3969C23.8044 25.5862 24.2612 24.4866 24.2628 23.3394C24.2644 22.1922 23.8106 21.0913 23.0012 20.2784C22.1917 19.4655 21.0927 19.0071 19.9455 19.0039H19.9213ZM51.0428 12.0934H55.3619V16.4125C55.3619 17.0998 55.6349 17.7589 56.1209 18.2449C56.6069 18.7309 57.266 19.0039 57.9533 19.0039C58.6406 19.0039 59.2997 18.7309 59.7857 18.2449C60.2717 17.7589 60.5447 17.0998 60.5447 16.4125V12.0934H64.8638C65.5511 12.0934 66.2103 11.8204 66.6962 11.3344C67.1822 10.8484 67.4553 10.1893 67.4553 9.50196C67.4553 8.81467 67.1822 8.15552 66.6962 7.66953C66.2103 7.18354 65.5511 6.91052 64.8638 6.91052H60.5447V2.59144C60.5447 1.90415 60.2717 1.24501 59.7857 0.759016C59.2997 0.273026 58.6406 0 57.9533 0C57.266 0 56.6069 0.273026 56.1209 0.759016C55.6349 1.24501 55.3619 1.90415 55.3619 2.59144V6.91052H51.0428C50.3555 6.91052 49.6963 7.18354 49.2104 7.66953C48.7244 8.15552 48.4513 8.81467 48.4513 9.50196C48.4513 10.1893 48.7244 10.8484 49.2104 11.3344C49.6963 11.8204 50.3555 12.0934 51.0428 12.0934Z" fill="black"/>
</svg>
