<svg width="25" height="28" viewBox="0 0 25 28" fill="none" xmlns="http://www.w3.org/2000/svg">
<mask id="mask0_2121_5450" style="mask-type:alpha" maskUnits="userSpaceOnUse" x="0" y="0" width="25" height="28">
<path d="M22.9779 28H2.02206C0.905307 28 0 27.1046 0 26V2C0 0.895431 0.905307 0 2.02206 0H15.625L25 9.27273V26C25 27.1046 24.0947 28 22.9779 28Z" fill="url(#paint0_linear_2121_5450)"/>
</mask>
<g mask="url(#mask0_2121_5450)">
<path d="M22.9779 28H2.02206C0.905307 28 0 27.1046 0 26V2C0 0.895431 0.905307 0 2.02206 0H15.625L25 9.27273V26C25 27.1046 24.0947 28 22.9779 28Z" fill="url(#paint1_linear_2121_5450)"/>
<g opacity="0.51" filter="url(#filter0_f_2121_5450)">
<rect x="4.41016" y="13.5469" width="16.3603" height="7.63636" fill="#E33CC8" style="mix-blend-mode:darken"/>
</g>
<g opacity="0.12">
<path fill-rule="evenodd" clip-rule="evenodd" d="M7.26057 11.3627C6.85448 11.3627 6.52528 11.6884 6.52528 12.09V22.2718C6.52528 22.6735 6.85448 22.9991 7.26057 22.9991H17.5547C17.9608 22.9991 18.29 22.6735 18.29 22.2718V12.09C18.29 11.6884 17.9608 11.3627 17.5547 11.3627H7.26057ZM5.05469 12.09C5.05469 10.885 6.04229 9.9082 7.26057 9.9082H17.5547C18.773 9.9082 19.7606 10.885 19.7606 12.09V22.2718C19.7606 23.4768 18.773 24.4537 17.5547 24.4537H7.26057C6.04229 24.4537 5.05469 23.4768 5.05469 22.2718V12.09Z" fill="white"/>
<path fill-rule="evenodd" clip-rule="evenodd" d="M14.8289 15.2121C15.116 14.9281 15.5816 14.9281 15.8687 15.2121L19.5452 18.8485C19.8324 19.1325 19.8324 19.593 19.5452 19.877C19.2581 20.161 18.7925 20.161 18.5053 19.877L15.3488 16.7549L7.7805 24.2406C7.49335 24.5247 7.02779 24.5247 6.74064 24.2406C6.45349 23.9566 6.45349 23.4961 6.74064 23.2121L14.8289 15.2121Z" fill="white"/>
<path fill-rule="evenodd" clip-rule="evenodd" d="M9.8341 14.2718C9.63105 14.2718 9.46645 14.4346 9.46645 14.6355C9.46645 14.8363 9.63105 14.9991 9.8341 14.9991C10.0371 14.9991 10.2017 14.8363 10.2017 14.6355C10.2017 14.4346 10.0371 14.2718 9.8341 14.2718ZM7.99586 14.6355C7.99586 13.6313 8.81887 12.8173 9.8341 12.8173C10.8493 12.8173 11.6723 13.6313 11.6723 14.6355C11.6723 15.6396 10.8493 16.4537 9.8341 16.4537C8.81887 16.4537 7.99586 15.6396 7.99586 14.6355Z" fill="white"/>
</g>
<mask id="mask1_2121_5450" style="mask-type:alpha" maskUnits="userSpaceOnUse" x="0" y="0" width="25" height="28">
<path d="M22.9779 28H2.02206C0.905307 28 0 27.1046 0 26V2C0 0.895431 0.905307 0 2.02206 0H15.625L25 9.27273V26C25 27.1046 24.0947 28 22.9779 28Z" fill="url(#paint2_linear_2121_5450)"/>
</mask>
<g mask="url(#mask1_2121_5450)">
<ellipse opacity="0.05" cx="-1.33272" cy="-1.86328" rx="20.5423" ry="19.5" fill="url(#paint3_linear_2121_5450)"/>
<ellipse opacity="0.05" cx="-1.33249" cy="-1.86452" rx="12.9136" ry="12.2273" fill="url(#paint4_linear_2121_5450)"/>
</g>
<mask id="path-8-outside-1_2121_5450" maskUnits="userSpaceOnUse" x="3.6875" y="14.1816" width="16" height="7" fill="black">
<rect fill="white" x="3.6875" y="14.1816" width="16" height="7"/>
<path d="M5.90735 20.2543C5.55398 20.2543 5.23208 20.172 4.94164 20.0074C4.83514 19.9444 4.78189 19.8549 4.78189 19.7387C4.78189 19.6613 4.8061 19.5935 4.8545 19.5354C4.90775 19.4725 4.97552 19.441 5.05781 19.441C5.10622 19.441 5.14979 19.4507 5.18851 19.4701C5.41118 19.5766 5.63627 19.6298 5.86379 19.6298C6.12518 19.6298 6.33575 19.5548 6.4955 19.4047C6.66008 19.2546 6.74237 18.9715 6.74237 18.5552V15.4111C6.74237 15.3192 6.77384 15.2417 6.83676 15.1788C6.89969 15.111 6.97714 15.0771 7.06912 15.0771C7.16109 15.0771 7.23854 15.111 7.30147 15.1788C7.36924 15.2417 7.40312 15.3192 7.40312 15.4111V18.5116C7.40312 19.1457 7.26032 19.5959 6.97472 19.8622C6.69396 20.1236 6.33817 20.2543 5.90735 20.2543ZM9.60917 20.2179C9.5172 20.2179 9.43975 20.1865 9.37682 20.1236C9.31389 20.0606 9.28243 19.9832 9.28243 19.8912V15.4474C9.28243 15.3555 9.31389 15.278 9.37682 15.2151C9.43975 15.1473 9.5172 15.1134 9.60917 15.1134H11.2647C11.7246 15.1134 12.0997 15.1909 12.3901 15.3458C12.6806 15.5007 12.8887 15.6992 13.0146 15.9412C13.1405 16.1832 13.2034 16.4446 13.2034 16.7254C13.2034 17.0062 13.1405 17.2675 13.0146 17.5096C12.8887 17.7516 12.6806 17.9501 12.3901 18.105C12.0997 18.2599 11.7246 18.3373 11.2647 18.3373H9.94318V19.8912C9.94318 19.9832 9.9093 20.0606 9.84153 20.1236C9.7786 20.1865 9.70115 20.2179 9.60917 20.2179ZM11.1993 17.7129C11.6931 17.7129 12.0392 17.6185 12.2377 17.4297C12.441 17.2409 12.5426 17.0062 12.5426 16.7254C12.5426 16.4446 12.441 16.2099 12.2377 16.0211C12.0392 15.8323 11.6931 15.7379 11.1993 15.7379H9.94318V17.7129H11.1993ZM16.9129 20.2543C16.4143 20.2543 15.9713 20.1453 15.5841 19.9275C15.1968 19.7048 14.8967 19.3974 14.6837 19.0054C14.4707 18.6084 14.3642 18.1582 14.3642 17.6548C14.3642 17.1417 14.4756 16.6867 14.6982 16.2897C14.9209 15.8928 15.2235 15.5854 15.6059 15.3676C15.9931 15.1497 16.4215 15.0408 16.8911 15.0408C17.2687 15.0408 17.5978 15.0868 17.8786 15.1788C18.1642 15.2708 18.4377 15.399 18.6991 15.5636C18.7378 15.583 18.7717 15.6169 18.8007 15.6653C18.8298 15.7137 18.8443 15.7669 18.8443 15.825C18.8443 15.9073 18.8153 15.9775 18.7572 16.0356C18.7039 16.0937 18.6313 16.1227 18.5393 16.1227C18.4861 16.1227 18.4353 16.1106 18.3868 16.0864C18.1593 15.9509 17.9318 15.8492 17.7043 15.7815C17.4768 15.7137 17.2299 15.6798 16.9637 15.6798C16.5958 15.6798 16.2642 15.7573 15.9689 15.9122C15.6736 16.0671 15.4413 16.2946 15.2719 16.5947C15.1073 16.89 15.025 17.2433 15.025 17.6548C15.025 18.0324 15.1024 18.3712 15.2573 18.6713C15.4171 18.9666 15.6446 19.2014 15.9399 19.3757C16.24 19.5451 16.5934 19.6298 17 19.6298C17.455 19.6298 17.8786 19.5233 18.2707 19.3103V17.9961H17.0726C16.9903 17.9961 16.9201 17.967 16.862 17.9089C16.8039 17.8509 16.7749 17.7807 16.7749 17.6984C16.7749 17.6161 16.8039 17.5459 16.862 17.4878C16.9201 17.4297 16.9903 17.4007 17.0726 17.4007H18.503C18.5998 17.4007 18.6821 17.4346 18.7499 17.5023C18.8177 17.5701 18.8516 17.6524 18.8516 17.7492V19.3974C18.8516 19.4991 18.8249 19.5911 18.7717 19.6734C18.7233 19.7508 18.6579 19.8089 18.5756 19.8476C18.0335 20.1187 17.4792 20.2543 16.9129 20.2543Z"/>
</mask>
<path d="M5.90735 20.2543C5.55398 20.2543 5.23208 20.172 4.94164 20.0074C4.83514 19.9444 4.78189 19.8549 4.78189 19.7387C4.78189 19.6613 4.8061 19.5935 4.8545 19.5354C4.90775 19.4725 4.97552 19.441 5.05781 19.441C5.10622 19.441 5.14979 19.4507 5.18851 19.4701C5.41118 19.5766 5.63627 19.6298 5.86379 19.6298C6.12518 19.6298 6.33575 19.5548 6.4955 19.4047C6.66008 19.2546 6.74237 18.9715 6.74237 18.5552V15.4111C6.74237 15.3192 6.77384 15.2417 6.83676 15.1788C6.89969 15.111 6.97714 15.0771 7.06912 15.0771C7.16109 15.0771 7.23854 15.111 7.30147 15.1788C7.36924 15.2417 7.40312 15.3192 7.40312 15.4111V18.5116C7.40312 19.1457 7.26032 19.5959 6.97472 19.8622C6.69396 20.1236 6.33817 20.2543 5.90735 20.2543ZM9.60917 20.2179C9.5172 20.2179 9.43975 20.1865 9.37682 20.1236C9.31389 20.0606 9.28243 19.9832 9.28243 19.8912V15.4474C9.28243 15.3555 9.31389 15.278 9.37682 15.2151C9.43975 15.1473 9.5172 15.1134 9.60917 15.1134H11.2647C11.7246 15.1134 12.0997 15.1909 12.3901 15.3458C12.6806 15.5007 12.8887 15.6992 13.0146 15.9412C13.1405 16.1832 13.2034 16.4446 13.2034 16.7254C13.2034 17.0062 13.1405 17.2675 13.0146 17.5096C12.8887 17.7516 12.6806 17.9501 12.3901 18.105C12.0997 18.2599 11.7246 18.3373 11.2647 18.3373H9.94318V19.8912C9.94318 19.9832 9.9093 20.0606 9.84153 20.1236C9.7786 20.1865 9.70115 20.2179 9.60917 20.2179ZM11.1993 17.7129C11.6931 17.7129 12.0392 17.6185 12.2377 17.4297C12.441 17.2409 12.5426 17.0062 12.5426 16.7254C12.5426 16.4446 12.441 16.2099 12.2377 16.0211C12.0392 15.8323 11.6931 15.7379 11.1993 15.7379H9.94318V17.7129H11.1993ZM16.9129 20.2543C16.4143 20.2543 15.9713 20.1453 15.5841 19.9275C15.1968 19.7048 14.8967 19.3974 14.6837 19.0054C14.4707 18.6084 14.3642 18.1582 14.3642 17.6548C14.3642 17.1417 14.4756 16.6867 14.6982 16.2897C14.9209 15.8928 15.2235 15.5854 15.6059 15.3676C15.9931 15.1497 16.4215 15.0408 16.8911 15.0408C17.2687 15.0408 17.5978 15.0868 17.8786 15.1788C18.1642 15.2708 18.4377 15.399 18.6991 15.5636C18.7378 15.583 18.7717 15.6169 18.8007 15.6653C18.8298 15.7137 18.8443 15.7669 18.8443 15.825C18.8443 15.9073 18.8153 15.9775 18.7572 16.0356C18.7039 16.0937 18.6313 16.1227 18.5393 16.1227C18.4861 16.1227 18.4353 16.1106 18.3868 16.0864C18.1593 15.9509 17.9318 15.8492 17.7043 15.7815C17.4768 15.7137 17.2299 15.6798 16.9637 15.6798C16.5958 15.6798 16.2642 15.7573 15.9689 15.9122C15.6736 16.0671 15.4413 16.2946 15.2719 16.5947C15.1073 16.89 15.025 17.2433 15.025 17.6548C15.025 18.0324 15.1024 18.3712 15.2573 18.6713C15.4171 18.9666 15.6446 19.2014 15.9399 19.3757C16.24 19.5451 16.5934 19.6298 17 19.6298C17.455 19.6298 17.8786 19.5233 18.2707 19.3103V17.9961H17.0726C16.9903 17.9961 16.9201 17.967 16.862 17.9089C16.8039 17.8509 16.7749 17.7807 16.7749 17.6984C16.7749 17.6161 16.8039 17.5459 16.862 17.4878C16.9201 17.4297 16.9903 17.4007 17.0726 17.4007H18.503C18.5998 17.4007 18.6821 17.4346 18.7499 17.5023C18.8177 17.5701 18.8516 17.6524 18.8516 17.7492V19.3974C18.8516 19.4991 18.8249 19.5911 18.7717 19.6734C18.7233 19.7508 18.6579 19.8089 18.5756 19.8476C18.0335 20.1187 17.4792 20.2543 16.9129 20.2543Z" fill="white"/>
<path d="M4.94164 20.0074L4.8481 20.1657L4.85101 20.1673L4.94164 20.0074ZM4.8545 19.5354L4.71417 19.4167L4.71329 19.4177L4.8545 19.5354ZM5.18851 19.4701L5.10629 19.6345L5.1092 19.6359L5.18851 19.4701ZM6.4955 19.4047L6.37163 19.2689L6.36964 19.2707L6.4955 19.4047ZM6.83676 15.1788L6.96684 15.3089L6.97147 15.3039L6.83676 15.1788ZM7.30147 15.1788L7.1664 15.3042L7.17639 15.3135L7.30147 15.1788ZM6.97472 19.8622L7.09998 19.9967L7.10007 19.9966L6.97472 19.8622ZM5.90735 20.0704C5.58382 20.0704 5.29344 19.9954 5.03226 19.8474L4.85101 20.1673C5.17072 20.3485 5.52414 20.4381 5.90735 20.4381V20.0704ZM5.03515 19.8491C4.98021 19.8167 4.96572 19.7849 4.96572 19.7387H4.59807C4.59807 19.9249 4.69007 20.0722 4.84812 20.1656L5.03515 19.8491ZM4.96572 19.7387C4.96572 19.7031 4.97556 19.6773 4.99572 19.6531L4.71329 19.4177C4.63663 19.5097 4.59807 19.6194 4.59807 19.7387H4.96572ZM4.99483 19.6541C5.01322 19.6324 5.0297 19.6248 5.05781 19.6248V19.2572C4.92134 19.2572 4.80228 19.3125 4.71418 19.4167L4.99483 19.6541ZM5.05781 19.6248C5.08109 19.6248 5.09598 19.6293 5.1063 19.6345L5.27072 19.3056C5.20359 19.2721 5.13135 19.2572 5.05781 19.2572V19.6248ZM5.1092 19.6359C5.3545 19.7532 5.60655 19.8136 5.86379 19.8136V19.446C5.666 19.446 5.46787 19.3999 5.26782 19.3042L5.1092 19.6359ZM5.86379 19.8136C6.16238 19.8136 6.42114 19.7268 6.62136 19.5387L6.36964 19.2707C6.25037 19.3828 6.08799 19.446 5.86379 19.446V19.8136ZM6.61935 19.5405C6.84442 19.3353 6.92619 18.9823 6.92619 18.5552H6.55855C6.55855 18.9606 6.47574 19.174 6.37164 19.2689L6.61935 19.5405ZM6.92619 18.5552V15.4111H6.55855V18.5552H6.92619ZM6.92619 15.4111C6.92619 15.3661 6.93956 15.336 6.96675 15.3088L6.70678 15.0488C6.60811 15.1475 6.55855 15.2722 6.55855 15.4111H6.92619ZM6.97147 15.3039C6.99984 15.2733 7.02858 15.261 7.06912 15.261V14.8933C6.92571 14.8933 6.79955 14.9487 6.70206 15.0537L6.97147 15.3039ZM7.06912 15.261C7.10965 15.261 7.1384 15.2733 7.16677 15.3039L7.43618 15.0537C7.33868 14.9487 7.21253 14.8933 7.06912 14.8933V15.261ZM7.17639 15.3135C7.20694 15.3419 7.2193 15.3706 7.2193 15.4111H7.58695C7.58695 15.2677 7.53154 15.1416 7.42655 15.0441L7.17639 15.3135ZM7.2193 15.4111V18.5116H7.58695V15.4111H7.2193ZM7.2193 18.5116C7.2193 19.1255 7.07995 19.5128 6.84938 19.7277L7.10007 19.9966C7.4407 19.6791 7.58695 19.166 7.58695 18.5116H7.2193ZM6.84946 19.7276C6.60699 19.9534 6.29787 20.0704 5.90735 20.0704V20.4381C6.37848 20.4381 6.78094 20.2937 7.09998 19.9967L6.84946 19.7276ZM9.37682 20.1236L9.5068 19.9936L9.37682 20.1236ZM9.37682 15.2151L9.50689 15.3452L9.51152 15.3402L9.37682 15.2151ZM13.0146 15.9412L12.8515 16.026L13.0146 15.9412ZM13.0146 17.5096L12.8515 17.4248V17.4248L13.0146 17.5096ZM9.94318 18.3373V18.1535H9.75936V18.3373H9.94318ZM9.84153 20.1236L9.71636 19.9888L9.71154 19.9936L9.84153 20.1236ZM12.2377 17.4297L12.1126 17.295L12.111 17.2965L12.2377 17.4297ZM12.2377 16.0211L12.111 16.1543L12.1126 16.1558L12.2377 16.0211ZM9.94318 15.7379V15.5541H9.75936V15.7379H9.94318ZM9.94318 17.7129H9.75936V17.8967H9.94318V17.7129ZM9.60917 20.0341C9.56413 20.0341 9.53399 20.0208 9.5068 19.9936L9.24684 20.2535C9.34551 20.3522 9.47027 20.4018 9.60917 20.4018V20.0341ZM9.5068 19.9936C9.47962 19.9664 9.46625 19.9362 9.46625 19.8912H9.0986C9.0986 20.0301 9.14817 20.1549 9.24684 20.2535L9.5068 19.9936ZM9.46625 19.8912V15.4474H9.0986V19.8912H9.46625ZM9.46625 15.4474C9.46625 15.4024 9.47962 15.3723 9.5068 15.3451L9.24684 15.0851C9.14817 15.1838 9.0986 15.3085 9.0986 15.4474H9.46625ZM9.51152 15.3402C9.53989 15.3096 9.56864 15.2973 9.60917 15.2973V14.9296C9.46576 14.9296 9.33961 14.985 9.24212 15.09L9.51152 15.3402ZM9.60917 15.2973H11.2647V14.9296H9.60917V15.2973ZM11.2647 15.2973C11.7057 15.2973 12.0483 15.3718 12.3036 15.508L12.4767 15.1836C12.1511 15.01 11.7434 14.9296 11.2647 14.9296V15.2973ZM12.3036 15.508C12.5682 15.6491 12.746 15.8232 12.8515 16.026L13.1777 15.8564C13.0314 15.5751 12.793 15.3523 12.4767 15.1836L12.3036 15.508ZM12.8515 16.026C12.9633 16.2411 13.0196 16.4733 13.0196 16.7254H13.3872C13.3872 16.416 13.3176 16.1254 13.1777 15.8564L12.8515 16.026ZM13.0196 16.7254C13.0196 16.9775 12.9633 17.2097 12.8515 17.4248L13.1777 17.5944C13.3176 17.3254 13.3872 17.0348 13.3872 16.7254H13.0196ZM12.8515 17.4248C12.746 17.6276 12.5682 17.8017 12.3036 17.9428L12.4767 18.2672C12.793 18.0985 13.0314 17.8757 13.1777 17.5944L12.8515 17.4248ZM12.3036 17.9428C12.0483 18.079 11.7057 18.1535 11.2647 18.1535V18.5212C11.7434 18.5212 12.1511 18.4408 12.4767 18.2672L12.3036 17.9428ZM11.2647 18.1535H9.94318V18.5212H11.2647V18.1535ZM9.75936 18.3373V19.8912H10.127V18.3373H9.75936ZM9.75936 19.8912C9.75936 19.9317 9.74699 19.9605 9.71644 19.9888L9.96661 20.2583C10.0716 20.1608 10.127 20.0346 10.127 19.8912H9.75936ZM9.71154 19.9936C9.68436 20.0208 9.65422 20.0341 9.60917 20.0341V20.4018C9.74808 20.4018 9.87284 20.3522 9.97151 20.2535L9.71154 19.9936ZM11.1993 17.8967C11.706 17.8967 12.1131 17.8019 12.3644 17.5629L12.111 17.2965C11.9653 17.4351 11.6802 17.5291 11.1993 17.5291V17.8967ZM12.3627 17.5644C12.604 17.3404 12.7265 17.0566 12.7265 16.7254H12.3588C12.3588 16.9557 12.2779 17.1415 12.1126 17.295L12.3627 17.5644ZM12.7265 16.7254C12.7265 16.3942 12.604 16.1104 12.3627 15.8864L12.1126 16.1558C12.2779 16.3093 12.3588 16.4951 12.3588 16.7254H12.7265ZM12.3644 15.8879C12.1131 15.6489 11.706 15.5541 11.1993 15.5541V15.9217C11.6802 15.9217 11.9653 16.0157 12.111 16.1543L12.3644 15.8879ZM11.1993 15.5541H9.94318V15.9217H11.1993V15.5541ZM9.75936 15.7379V17.7129H10.127V15.7379H9.75936ZM9.94318 17.8967H11.1993V17.5291H9.94318V17.8967ZM15.5841 19.9275L15.4925 20.0869L15.494 20.0877L15.5841 19.9275ZM14.6837 19.0054L14.5217 19.0923L14.5222 19.0931L14.6837 19.0054ZM14.6982 16.2897L14.8586 16.3797L14.6982 16.2897ZM15.6059 15.3676L15.5158 15.2074L15.5149 15.2079L15.6059 15.3676ZM17.8786 15.1788L17.8214 15.3535L17.8222 15.3538L17.8786 15.1788ZM18.6991 15.5636L18.6011 15.7192L18.6088 15.724L18.6169 15.728L18.6991 15.5636ZM18.8007 15.6653L18.6431 15.7599V15.7599L18.8007 15.6653ZM18.7572 16.0356L18.6271 15.9055L18.6217 15.9114L18.7572 16.0356ZM18.3868 16.0864L18.2925 16.2448L18.3046 16.2508L18.3868 16.0864ZM17.7043 15.7815L17.7568 15.6053L17.7043 15.7815ZM15.9689 15.9122L16.0543 16.0749L15.9689 15.9122ZM15.2719 16.5947L15.1118 16.5043L15.1113 16.5052L15.2719 16.5947ZM15.2573 18.6713L15.094 18.7557L15.0957 18.7588L15.2573 18.6713ZM15.9399 19.3757L15.8464 19.534L15.8495 19.5357L15.9399 19.3757ZM18.2707 19.3103L18.3584 19.4718L18.4545 19.4197V19.3103H18.2707ZM18.2707 17.9961H18.4545V17.8122H18.2707V17.9961ZM18.7717 19.6734L18.6173 19.5735L18.6158 19.5759L18.7717 19.6734ZM18.5756 19.8476L18.4973 19.6813L18.4934 19.6832L18.5756 19.8476ZM16.9129 20.0704C16.4419 20.0704 16.0307 19.9678 15.6742 19.7673L15.494 20.0877C15.912 20.3228 16.3866 20.4381 16.9129 20.4381V20.0704ZM15.6757 19.7681C15.3179 19.5624 15.042 19.2798 14.8453 18.9176L14.5222 19.0931C14.7514 19.5151 15.0758 19.8473 15.4925 20.0869L15.6757 19.7681ZM14.8457 18.9184C14.6487 18.5512 14.5481 18.1315 14.5481 17.6548H14.1804C14.1804 18.1849 14.2928 18.6656 14.5217 19.0923L14.8457 18.9184ZM14.5481 17.6548C14.5481 17.1691 14.6532 16.7458 14.8586 16.3797L14.5379 16.1998C14.298 16.6276 14.1804 17.1143 14.1804 17.6548H14.5481ZM14.8586 16.3797C15.0655 16.0108 15.3445 15.728 15.6969 15.5273L15.5149 15.2079C15.1024 15.4428 14.7764 15.7748 14.5379 16.1998L14.8586 16.3797ZM15.696 15.5278C16.0542 15.3263 16.4512 15.2247 16.8911 15.2247V14.857C16.3918 14.857 15.9321 14.9732 15.5158 15.2074L15.696 15.5278ZM16.8911 15.2247C17.2543 15.2247 17.5634 15.269 17.8214 15.3535L17.9358 15.0041C17.6323 14.9047 17.283 14.857 16.8911 14.857V15.2247ZM17.8222 15.3538C18.0928 15.4409 18.3523 15.5625 18.6011 15.7192L18.797 15.4081C18.523 15.2355 18.2356 15.1006 17.9349 15.0038L17.8222 15.3538ZM18.6169 15.728C18.6169 15.7281 18.6175 15.7283 18.6185 15.7291C18.6196 15.7299 18.6213 15.7313 18.6235 15.7335C18.6282 15.7382 18.635 15.7463 18.6431 15.7599L18.9584 15.5707C18.9167 15.5013 18.8595 15.4383 18.7813 15.3992L18.6169 15.728ZM18.6431 15.7599C18.6545 15.7788 18.6605 15.7992 18.6605 15.825H19.0281C19.0281 15.7346 19.0051 15.6485 18.9584 15.5707L18.6431 15.7599ZM18.6605 15.825C18.6605 15.8587 18.6507 15.8821 18.6272 15.9056L18.8871 16.1656C18.9798 16.0729 19.0281 15.956 19.0281 15.825H18.6605ZM18.6217 15.9114C18.6091 15.925 18.5892 15.9389 18.5393 15.9389V16.3065C18.6734 16.3065 18.7987 16.2623 18.8927 16.1598L18.6217 15.9114ZM18.5393 15.9389C18.5151 15.9389 18.4924 15.9337 18.4691 15.922L18.3046 16.2508C18.3781 16.2876 18.4571 16.3065 18.5393 16.3065V15.9389ZM18.4809 15.9285C18.2418 15.7861 18.0004 15.6779 17.7568 15.6053L17.6518 15.9576C17.8632 16.0206 18.0768 16.1157 18.2928 16.2443L18.4809 15.9285ZM17.7568 15.6053C17.5103 15.5319 17.2456 15.496 16.9637 15.496V15.8636C17.2143 15.8636 17.4433 15.8955 17.6518 15.9576L17.7568 15.6053ZM16.9637 15.496C16.5692 15.496 16.2078 15.5793 15.8835 15.7494L16.0543 16.0749C16.3206 15.9352 16.6224 15.8636 16.9637 15.8636V15.496ZM15.8835 15.7494C15.5558 15.9213 15.298 16.1745 15.1118 16.5043L15.4319 16.6851C15.5846 16.4147 15.7915 16.2128 16.0543 16.0749L15.8835 15.7494ZM15.1113 16.5052C14.9285 16.8332 14.8412 17.2188 14.8412 17.6548H15.2088C15.2088 17.2679 15.2861 16.9468 15.4324 16.6842L15.1113 16.5052ZM14.8412 17.6548C14.8412 18.0582 14.9241 18.4265 15.094 18.7557L15.4207 18.587C15.2808 18.3159 15.2088 18.0065 15.2088 17.6548H14.8412ZM15.0957 18.7588C15.2717 19.0841 15.5231 19.3431 15.8465 19.534L16.0333 19.2174C15.7661 19.0597 15.5625 18.8491 15.419 18.5839L15.0957 18.7588ZM15.8495 19.5357C16.1818 19.7233 16.5674 19.8136 17 19.8136V19.446C16.6193 19.446 16.2982 19.3669 16.0302 19.2156L15.8495 19.5357ZM17 19.8136C17.485 19.8136 17.9388 19.6998 18.3584 19.4718L18.1829 19.1488C17.8183 19.3468 17.425 19.446 17 19.446V19.8136ZM18.4545 19.3103V17.9961H18.0869V19.3103H18.4545ZM18.2707 17.8122H17.0726V18.1799H18.2707V17.8122ZM17.0726 17.8122C17.039 17.8122 17.0156 17.8025 16.992 17.779L16.7321 18.0389C16.8247 18.1316 16.9417 18.1799 17.0726 18.1799V17.8122ZM16.992 17.779C16.9685 17.7554 16.9587 17.732 16.9587 17.6984H16.5911C16.5911 17.8293 16.6394 17.9463 16.7321 18.0389L16.992 17.779ZM16.9587 17.6984C16.9587 17.6647 16.9685 17.6413 16.992 17.6178L16.7321 17.3578C16.6394 17.4504 16.5911 17.5674 16.5911 17.6984H16.9587ZM16.992 17.6178C17.0156 17.5942 17.039 17.5845 17.0726 17.5845V17.2168C16.9417 17.2168 16.8247 17.2652 16.7321 17.3578L16.992 17.6178ZM17.0726 17.5845H18.503V17.2168H17.0726V17.5845ZM18.503 17.5845C18.5516 17.5845 18.587 17.5994 18.6199 17.6323L18.8799 17.3723C18.7772 17.2697 18.648 17.2168 18.503 17.2168V17.5845ZM18.6199 17.6323C18.6528 17.6652 18.6677 17.7006 18.6677 17.7492H19.0354C19.0354 17.6042 18.9825 17.475 18.8799 17.3723L18.6199 17.6323ZM18.6677 17.7492V19.3974H19.0354V17.7492H18.6677ZM18.6677 19.3974C18.6677 19.4651 18.6506 19.5221 18.6174 19.5735L18.926 19.7732C18.9993 19.66 19.0354 19.5332 19.0354 19.3974H18.6677ZM18.6158 19.5759C18.586 19.6236 18.5476 19.6577 18.4974 19.6813L18.6539 20.014C18.7683 19.9601 18.8605 19.8781 18.9276 19.7708L18.6158 19.5759ZM18.4934 19.6832C17.975 19.9425 17.4487 20.0704 16.9129 20.0704V20.4381C17.5097 20.4381 18.092 20.295 18.6578 20.0121L18.4934 19.6832Z" fill="white" mask="url(#path-8-outside-1_2121_5450)"/>
<g filter="url(#filter1_d_2121_5450)">
<path d="M25 9.27273H17.6471C16.5303 9.27273 15.625 8.36742 15.625 7.25067V0L25 9.27273Z" fill="url(#paint5_linear_2121_5450)"/>
</g>
</g>
<defs>
<filter id="filter0_f_2121_5450" x="0.825598" y="9.96232" width="23.5295" height="14.8055" filterUnits="userSpaceOnUse" color-interpolation-filters="sRGB">
<feFlood flood-opacity="0" result="BackgroundImageFix"/>
<feBlend mode="normal" in="SourceGraphic" in2="BackgroundImageFix" result="shape"/>
<feGaussianBlur stdDeviation="1.79228" result="effect1_foregroundBlur_2121_5450"/>
</filter>
<filter id="filter1_d_2121_5450" x="13.511" y="-2.20588" width="13.9706" height="13.8683" filterUnits="userSpaceOnUse" color-interpolation-filters="sRGB">
<feFlood flood-opacity="0" result="BackgroundImageFix"/>
<feColorMatrix in="SourceAlpha" type="matrix" values="0 0 0 0 0 0 0 0 0 0 0 0 0 0 0 0 0 0 127 0" result="hardAlpha"/>
<feOffset dx="0.183823" dy="0.0919117"/>
<feGaussianBlur stdDeviation="1.1489"/>
<feColorMatrix type="matrix" values="0 0 0 0 0 0 0 0 0 0 0 0 0 0 0 0 0 0 0.33 0"/>
<feBlend mode="normal" in2="BackgroundImageFix" result="effect1_dropShadow_2121_5450"/>
<feBlend mode="normal" in="SourceGraphic" in2="effect1_dropShadow_2121_5450" result="shape"/>
</filter>
<linearGradient id="paint0_linear_2121_5450" x1="12.5" y1="0" x2="12.5" y2="28" gradientUnits="userSpaceOnUse">
<stop stop-color="#FF7979"/>
<stop offset="1" stop-color="#E85555"/>
</linearGradient>
<linearGradient id="paint1_linear_2121_5450" x1="12.5" y1="0" x2="12.5" y2="28" gradientUnits="userSpaceOnUse">
<stop stop-color="#ED81FF"/>
<stop offset="1" stop-color="#DC5DD7"/>
</linearGradient>
<linearGradient id="paint2_linear_2121_5450" x1="12.5" y1="0" x2="12.5" y2="28" gradientUnits="userSpaceOnUse">
<stop stop-color="#ED81FF"/>
<stop offset="1" stop-color="#DC5DD7"/>
</linearGradient>
<linearGradient id="paint3_linear_2121_5450" x1="0.158794" y1="-1.19318" x2="6.26981" y2="15.2044" gradientUnits="userSpaceOnUse">
<stop stop-color="white" stop-opacity="0"/>
<stop offset="1" stop-color="white"/>
</linearGradient>
<linearGradient id="paint4_linear_2121_5450" x1="-0.394871" y1="-1.44434" x2="3.42961" y2="8.84395" gradientUnits="userSpaceOnUse">
<stop stop-color="white" stop-opacity="0"/>
<stop offset="1" stop-color="white"/>
</linearGradient>
<linearGradient id="paint5_linear_2121_5450" x1="17.693" y1="-2.90909" x2="20.2581" y2="9.28418" gradientUnits="userSpaceOnUse">
<stop stop-color="#F171BE"/>
<stop offset="1" stop-color="#D823D1"/>
</linearGradient>
</defs>
</svg>
