<svg width="37" height="37" viewBox="0 0 37 37" fill="none" xmlns="http://www.w3.org/2000/svg">
<rect width="37" height="37" rx="4.98077" fill="#F2F3F7"/>
<path d="M25.4648 15.3375C24.6773 11.8725 21.6548 10.3125 18.9998 10.3125C18.9998 10.3125 18.9998 10.3125 18.9923 10.3125C16.3448 10.3125 13.3148 11.865 12.5273 15.33C11.6498 19.2 14.0198 22.4775 16.1648 24.54C16.9598 25.305 17.9798 25.6875 18.9998 25.6875C20.0198 25.6875 21.0398 25.305 21.8273 24.54C23.9723 22.4775 26.3423 19.2075 25.4648 15.3375ZM18.9998 19.095C17.6948 19.095 16.6373 18.0375 16.6373 16.7325C16.6373 15.4275 17.6948 14.37 18.9998 14.37C20.3048 14.37 21.3623 15.4275 21.3623 16.7325C21.3623 18.0375 20.3048 19.095 18.9998 19.095Z" fill="#292D32"/>
</svg>
