<svg width="12" height="15" viewBox="0 0 12 15" fill="none" xmlns="http://www.w3.org/2000/svg">
    <path d="M6.05078 0.307617C4.59262 0.309395 3.19468 0.905348 2.1636 1.96475C1.13253 3.02415 0.552511 4.4605 0.550781 5.95872C0.550781 10.7941 5.55078 14.4464 5.76367 14.5994C5.84787 14.6598 5.94809 14.6922 6.05078 14.6922C6.15348 14.6922 6.2537 14.6598 6.33789 14.5994C6.55078 14.4464 11.5508 10.7941 11.5508 5.95872C11.5491 4.4605 10.969 3.02415 9.93796 1.96475C8.90688 0.905347 7.50894 0.309395 6.05078 0.307617ZM6.05115 3.90396C6.44671 3.90396 6.83339 4.02448 7.16229 4.25028C7.49119 4.47608 7.74753 4.79702 7.89891 5.17251C8.05028 5.548 8.08989 5.96118 8.01272 6.3598C7.93555 6.75842 7.74507 7.12458 7.46536 7.41197C7.18566 7.69936 6.82929 7.89507 6.44133 7.97436C6.05337 8.05365 5.65123 8.01296 5.28578 7.85742C4.92033 7.70189 4.60797 7.4385 4.38821 7.10057C4.16845 6.76263 4.05115 6.36533 4.05115 5.9589C4.05114 5.68904 4.10287 5.42182 4.20337 5.1725C4.30388 4.92318 4.4512 4.69664 4.63692 4.50582C4.82264 4.315 5.04312 4.16363 5.28577 4.06036C5.52843 3.9571 5.7885 3.90395 6.05115 3.90396Z" fill="#101828"/>
</svg>
