<svg width="24" height="24" viewBox="0 0 24 24" fill="none" xmlns="http://www.w3.org/2000/svg">
    <rect width="24" height="24" rx="12" fill="white" fill-opacity="0.2"/>
    <path d="M10.0177 15.9549H9.73505C7.47418 15.9549 6.34375 15.3897 6.34375 12.5636V9.7375C6.34375 7.47663 7.47418 6.34619 9.73505 6.34619H14.2568C16.5177 6.34619 17.6481 7.47663 17.6481 9.7375V12.5636C17.6481 14.8245 16.5177 15.9549 14.2568 15.9549H13.9742C13.799 15.9549 13.6294 16.0397 13.522 16.181L12.6742 17.3114C12.3011 17.8088 11.6907 17.8088 11.3177 17.3114L10.4698 16.181C10.3794 16.0566 10.1703 15.9549 10.0177 15.9549Z" stroke="white" stroke-width="0.847826" stroke-miterlimit="10" stroke-linecap="round" stroke-linejoin="round"/>
    <path d="M14.2561 11.4335H14.2611" stroke="white" stroke-width="1.13043" stroke-linecap="round" stroke-linejoin="round"/>
    <path d="M11.9904 11.4335H11.9955" stroke="white" stroke-width="1.13043" stroke-linecap="round" stroke-linejoin="round"/>
    <path d="M9.73263 11.4335H9.73771" stroke="white" stroke-width="1.13043" stroke-linecap="round" stroke-linejoin="round"/>
</svg>
