<svg width="20" height="20" viewBox="0 0 20 20" fill="none" xmlns="http://www.w3.org/2000/svg">
<path d="M7.22738 15.5394H6.83154C3.66488 15.5394 2.08154 14.7477 2.08154 10.7894V6.83106C2.08154 3.66439 3.66488 2.08105 6.83154 2.08105H13.1649C16.3315 2.08105 17.9149 3.66439 17.9149 6.83106V10.7894C17.9149 13.9561 16.3315 15.5394 13.1649 15.5394H12.769C12.5236 15.5394 12.2861 15.6581 12.1357 15.8561L10.9482 17.4394C10.4257 18.1361 9.57071 18.1361 9.04821 17.4394L7.86071 15.8561C7.73404 15.6819 7.44113 15.5394 7.22738 15.5394Z" stroke="#292D32" stroke-width="1.5" stroke-miterlimit="10" stroke-linecap="round" stroke-linejoin="round"/>
<path d="M13.1576 9.20644H13.1647" stroke="#292D32" stroke-width="1.5" stroke-linecap="round" stroke-linejoin="round"/>
<path d="M9.99061 9.20644H9.99772" stroke="#292D32" stroke-width="1.5" stroke-linecap="round" stroke-linejoin="round"/>
<path d="M6.82508 9.20644H6.83219" stroke="#292D32" stroke-width="1.5" stroke-linecap="round" stroke-linejoin="round"/>
</svg>
