<svg width="29" height="29" viewBox="0 0 29 29" fill="none" xmlns="http://www.w3.org/2000/svg">
<rect width="28" height="28" rx="5.25" transform="matrix(1 0 0 -1 0.5 28.5)" fill="#F94DC6" fill-opacity="0.1"/>
<mask id="mask0_2067_124537" style="mask-type:luminance" maskUnits="userSpaceOnUse" x="5" y="5" width="19" height="19">
<path d="M5.75 5.75H23.25V23.25H5.75V5.75Z" fill="white"/>
</mask>
<g mask="url(#mask0_2067_124537)">
<path d="M11.2035 17.7949H7.35938V11.7542H11.2035V17.7949Z" stroke="#F94DC6" stroke-width="1.03" stroke-miterlimit="10" stroke-linecap="round" stroke-linejoin="round"/>
<path d="M17.7956 6.2627C15.9179 6.2627 14.2797 7.28344 13.4023 8.79955L16.1481 12.8525H19.4431L22.1888 8.79955C21.3115 7.28344 19.6733 6.2627 17.7956 6.2627Z" stroke="#F94DC6" stroke-width="1.03" stroke-miterlimit="10" stroke-linecap="round" stroke-linejoin="round"/>
<path d="M16.1484 12.8525V22.1882C16.1484 22.4902 16.3956 22.7373 16.6976 22.7373H18.8942C19.1962 22.7373 19.4434 22.4902 19.4434 22.1882V12.8525H16.1484Z" stroke="#F94DC6" stroke-width="1.03" stroke-miterlimit="10" stroke-linecap="round" stroke-linejoin="round"/>
<path d="M6.8125 17.7949V22.1881C6.8125 22.4902 7.05962 22.7373 7.36163 22.7373H11.2057C11.5077 22.7373 11.7549 22.4902 11.7549 22.1881V17.7949H6.8125Z" stroke="#F94DC6" stroke-width="1.03" stroke-miterlimit="10" stroke-linecap="round" stroke-linejoin="round"/>
<path d="M10.1461 6.46655L8.42005 7.15695C8.1396 7.26913 7.91016 7.60802 7.91016 7.91006V11.7542H10.6559V6.81177C10.6559 6.50972 10.4265 6.35437 10.1461 6.46655Z" stroke="#F94DC6" stroke-width="1.03" stroke-miterlimit="10" stroke-linecap="round" stroke-linejoin="round"/>
<path d="M17.5179 12.8525L16.9688 11.2051" stroke="#F94DC6" stroke-width="1.03" stroke-miterlimit="10" stroke-linecap="round" stroke-linejoin="round"/>
<path d="M18.6155 11.2051L18.0664 12.8525" stroke="#F94DC6" stroke-width="1.03" stroke-miterlimit="10" stroke-linecap="round" stroke-linejoin="round"/>
</g>
</svg>
