<svg width="21" height="20" viewBox="0 0 21 20" fill="none" xmlns="http://www.w3.org/2000/svg">
    <g clip-path="url(#clip0_652_260968)">
        <path d="M10.0508 7.07007C8.43533 7.07007 7.12109 8.38431 7.12109 9.99976C7.12109 11.6152 8.43533 12.9294 10.0508 12.9294C11.6662 12.9294 12.9805 11.6152 12.9805 9.99976C12.9805 8.38431 11.6662 7.07007 10.0508 7.07007ZM10.0508 11.7576C9.08154 11.7576 8.29297 10.969 8.29297 9.99976C8.29297 9.03052 9.08154 8.24194 10.0508 8.24194C11.02 8.24194 11.8086 9.03052 11.8086 9.99976C11.8086 10.969 11.02 11.7576 10.0508 11.7576Z" fill="white"/>
        <path d="M10.6367 9.99976C10.6367 10.3234 10.3744 10.5857 10.0508 10.5857C9.72714 10.5857 9.46484 10.3234 9.46484 9.99976C9.46484 9.67612 9.72714 9.41382 10.0508 9.41382C10.3744 9.41382 10.6367 9.67612 10.6367 9.99976Z" fill="white"/>
        <path d="M10.0508 5.89819C10.3744 5.89819 10.6367 5.63589 10.6367 5.31226C10.6367 4.98862 10.3744 4.72632 10.0508 4.72632C7.14307 4.72632 4.77734 7.09204 4.77734 9.99976C4.77734 10.3234 5.03964 10.5857 5.36328 10.5857C5.68692 10.5857 5.94922 10.3234 5.94922 9.99976C5.94922 7.7381 7.78912 5.89819 10.0508 5.89819Z" fill="white"/>
        <path d="M10.0508 3.55444C10.3744 3.55444 10.6367 3.29214 10.6367 2.96851C10.6367 2.64487 10.3744 2.38257 10.0508 2.38257C5.85065 2.38257 2.43359 5.79962 2.43359 9.99976C2.43359 10.3234 2.69589 10.5857 3.01953 10.5857C3.34317 10.5857 3.60547 10.3234 3.60547 9.99976C3.60547 6.44583 6.49686 3.55444 10.0508 3.55444Z" fill="white"/>
        <path d="M17.1219 2.92892C15.2331 1.04019 12.7218 0 10.0508 0C7.37973 0 4.86844 1.04019 2.97971 2.92892C1.09097 4.81766 0.0507812 7.32895 0.0507812 10C0.0507812 12.6711 1.09097 15.1823 2.97971 17.0711C4.86844 18.9598 7.37973 20 10.0508 20C12.7218 20 15.2331 18.9598 17.1219 17.0711C19.0106 15.1823 20.0508 12.6711 20.0508 10C20.0508 7.32895 19.0106 4.81766 17.1219 2.92892ZM16.2932 16.2424C14.6258 17.9099 12.4089 18.8281 10.0508 18.8281C7.69269 18.8281 5.47574 17.9099 3.80841 16.2424C2.14093 14.575 1.22266 12.3581 1.22266 10C1.22266 7.64191 2.14093 5.42496 3.80841 3.75763C5.47574 2.09015 7.69269 1.17188 10.0508 1.17188C12.4089 1.17188 14.6258 2.09015 16.2932 3.75763C17.9606 5.42496 18.8789 7.64191 18.8789 10C18.8789 12.3581 17.9606 14.575 16.2932 16.2424Z" fill="white"/>
    </g>
    <defs>
        <clipPath id="clip0_652_260968">
            <rect width="20" height="20" fill="white" transform="translate(0.0507812)"/>
        </clipPath>
    </defs>
</svg>
