<svg width="71" height="71" viewBox="0 0 71 71" fill="none" xmlns="http://www.w3.org/2000/svg">
<path d="M37.425 4.73309C38.3736 4.11129 39.6311 4.25626 40.4133 5.07761L42.3174 7.07691C42.9031 7.6919 43.7752 7.94279 44.5982 7.73307L47.2736 7.05128C48.3728 6.77119 49.515 7.3166 49.9882 8.34744L51.14 10.8567C51.4942 11.6285 52.2376 12.149 53.0841 12.2179L55.8359 12.4417C56.9665 12.5337 57.8697 13.4204 57.9825 14.5491L58.2572 17.2963C58.3416 18.1414 58.8757 18.875 59.654 19.215L62.184 20.3203C63.2234 20.7743 63.7898 21.9063 63.5301 23.0104L62.8978 25.698C62.7033 26.5247 62.9702 27.392 63.5959 27.9663L65.63 29.8332C66.4657 30.6001 66.6338 31.8547 66.0296 32.8146L64.5589 35.1513C64.1066 35.87 64.0774 36.777 64.4828 37.5233L65.8005 39.9495C66.3418 40.9462 66.0935 42.1874 65.2103 42.8992L63.0606 44.6317C62.3994 45.1646 62.0773 46.013 62.2184 46.8505L62.6769 49.5731C62.8653 50.6916 62.2274 51.7849 61.161 52.1713L58.5652 53.112C57.7667 53.4013 57.1867 54.0991 57.0481 54.937L56.5978 57.661C56.4128 58.7801 55.4545 59.607 54.3204 59.6262L51.5598 59.6731C50.7107 59.6875 49.9354 60.1591 49.5324 60.9067L48.2219 63.3368C47.6836 64.3352 46.5087 64.8062 45.4298 64.4561L42.8036 63.604C41.9958 63.3419 41.1094 63.5363 40.4855 64.1125L38.457 65.9855C37.6236 66.7549 36.3595 66.8189 35.4527 66.1375L33.2455 64.4789C32.5665 63.9687 31.6651 63.8647 30.8878 64.2071L28.3611 65.3199C27.3231 65.7771 26.1066 65.4271 25.4702 64.4882L23.9212 62.2028C23.4447 61.4998 22.6258 61.1088 21.7795 61.1802L19.0283 61.4123C17.8981 61.5077 16.8612 60.7817 16.5642 59.687L15.8411 57.0224C15.6187 56.2028 14.9711 55.5671 14.1475 55.3598L11.47 54.6861C10.3701 54.4093 9.62509 53.386 9.69958 52.2542L9.88089 49.4992C9.93666 48.6517 9.53061 47.8402 8.81894 47.3768L6.50529 45.8701C5.55481 45.2512 5.18245 44.0414 5.6204 42.9951L6.68643 40.4482C7.01434 39.6648 6.8938 38.7654 6.37116 38.096L4.67208 35.9198C3.97407 35.0258 4.0147 33.7606 4.76865 32.9132L6.60388 30.8505C7.1684 30.216 7.34642 29.3262 7.06946 28.5234L6.16906 25.9133C5.79916 24.8411 6.24838 23.6577 7.23663 23.101L9.64219 21.746C10.3821 21.3292 10.8394 20.5454 10.8382 19.6961L10.834 16.9351C10.8323 15.8009 11.6414 14.8275 12.7569 14.6219L15.4721 14.1213C16.3073 13.9673 16.9943 13.3745 17.2689 12.5708L18.1614 9.95813C18.5281 8.88479 19.6095 8.22684 20.7312 8.39454L23.4619 8.80274C24.3018 8.9283 25.1441 8.59065 25.6647 7.91967L27.3573 5.73835C28.0526 4.84222 29.289 4.57104 30.2955 5.09389L32.7457 6.3666C33.4993 6.75809 34.4056 6.71222 35.1159 6.24665L37.425 4.73309Z" fill="white"/>
<path d="M43.1711 35.2825L26.25 35.2825" stroke="#0C111F" stroke-width="2" stroke-linecap="round" stroke-linejoin="round"/>
<path d="M36.6484 27.9084C36.6485 31.0688 43.2384 35.2826 43.2384 35.2826C43.2384 35.2826 36.6484 39.4964 36.6484 42.6567" stroke="#0C111F" stroke-width="2" stroke-linecap="round" stroke-linejoin="round"/>
</svg>
