<svg width="32" height="33" viewBox="0 0 32 33" fill="none" xmlns="http://www.w3.org/2000/svg">
    <rect opacity="0.1" x="0.825781" y="1.275" width="30.45" height="30.45" rx="9.425" stroke="#292D32" stroke-width="1.45"/>
    <path d="M21.9615 18.5034L21.156 17.1663C20.9869 16.8683 20.8338 16.3045 20.8338 15.9742V13.9363C20.8338 12.0434 19.7222 10.4083 18.1193 9.64305C17.7005 8.902 16.9272 8.44287 16.0411 8.44287C15.1632 8.44287 14.3738 8.91811 13.9549 9.66722C12.3842 10.4485 11.2968 12.0676 11.2968 13.9363V15.9742C11.2968 16.3045 11.1438 16.8683 10.9746 17.1583L10.1611 18.5034C9.83887 19.0431 9.76638 19.6392 9.96775 20.1869C10.1611 20.7266 10.6202 21.1454 11.2163 21.3468C12.7789 21.8784 14.4221 22.1362 16.0653 22.1362C17.7085 22.1362 19.3517 21.8784 20.9144 21.3549C21.4782 21.1696 21.9132 20.7427 22.1226 20.1869C22.332 19.6311 22.2756 19.019 21.9615 18.5034Z" fill="#292D32"/>
    <path d="M18.3284 22.9497C17.9901 23.8841 17.096 24.5526 16.0488 24.5526C15.4125 24.5526 14.7842 24.2949 14.3412 23.8357C14.0834 23.5941 13.8901 23.2719 13.7773 22.9417C13.8821 22.9578 13.9868 22.9658 14.0995 22.9819C14.2848 23.0061 14.4781 23.0303 14.6714 23.0464C15.1306 23.0866 15.5978 23.1108 16.0649 23.1108C16.5241 23.1108 16.9832 23.0866 17.4343 23.0464C17.6034 23.0303 17.7726 23.0222 17.9337 22.998C18.0625 22.9819 18.1914 22.9658 18.3284 22.9497Z" fill="#292D32"/>
</svg>
