<svg width="26" height="29" viewBox="0 0 26 29" fill="none" xmlns="http://www.w3.org/2000/svg">
<path d="M23.3011 28.7068H2.05049C0.918038 28.7068 0 27.7888 0 26.6563V2.05037C0 0.917916 0.918038 -0.00012207 2.05049 -0.00012207H15.8447L25.3516 9.50671V26.6563C25.3516 27.7888 24.4335 28.7068 23.3011 28.7068Z" fill="url(#paint0_linear_2121_5366)"/>
<path opacity="0.12" fill-rule="evenodd" clip-rule="evenodd" d="M18.5484 12.957H6.80469V11.8385H18.5484V12.957ZM18.5484 15.7519H6.80469V14.6334H18.5484V15.7519ZM6.80469 18.5487H18.5484V17.4303H6.80469V18.5487ZM18.5484 21.3456H6.80469V20.2272H18.5484V21.3456ZM6.80469 24.1405H18.5484V23.0221H6.80469V24.1405Z" fill="white"/>
<mask id="path-3-outside-1_2121_5366" maskUnits="userSpaceOnUse" x="4.75391" y="14.5156" width="16" height="7" fill="black">
<rect fill="white" x="4.75391" y="14.5156" width="16" height="7"/>
<path d="M5.79947 20.5524C5.70621 20.5524 5.62767 20.5205 5.56385 20.4567C5.50004 20.3928 5.46813 20.3143 5.46813 20.221V15.7148C5.46813 15.6215 5.50004 15.543 5.56385 15.4792C5.62767 15.4105 5.70621 15.3761 5.79947 15.3761H7.47827C7.9446 15.3761 8.32503 15.4546 8.61955 15.6117C8.91408 15.7688 9.12516 15.9701 9.25278 16.2155C9.38041 16.4609 9.44423 16.726 9.44423 17.0107C9.44423 17.2954 9.38041 17.5605 9.25278 17.8059C9.12516 18.0514 8.91408 18.2526 8.61955 18.4097C8.32503 18.5668 7.9446 18.6453 7.47827 18.6453H6.13818V20.221C6.13818 20.3143 6.10381 20.3928 6.03509 20.4567C5.97128 20.5205 5.89274 20.5524 5.79947 20.5524ZM7.412 18.0121C7.91269 18.0121 8.26367 17.9164 8.46493 17.7249C8.6711 17.5335 8.77418 17.2954 8.77418 17.0107C8.77418 16.726 8.6711 16.4879 8.46493 16.2965C8.26367 16.105 7.91269 16.0093 7.412 16.0093H6.13818V18.0121H7.412ZM11.262 20.5156C11.1687 20.5156 11.0902 20.4837 11.0264 20.4198C10.9626 20.356 10.9307 20.2775 10.9307 20.1842V15.7148C10.9307 15.6215 10.9626 15.543 11.0264 15.4792C11.0902 15.4105 11.1687 15.3761 11.262 15.3761H12.742C13.3016 15.3761 13.7753 15.5013 14.1631 15.7516C14.5558 15.9971 14.8503 16.3161 15.0467 16.7088C15.243 17.1015 15.3412 17.5139 15.3412 17.9458C15.3412 18.3778 15.243 18.7901 15.0467 19.1828C14.8503 19.5755 14.5558 19.8971 14.1631 20.1474C13.7753 20.3928 13.3016 20.5156 12.742 20.5156H11.262ZM12.661 19.8897C13.0635 19.8897 13.4169 19.8087 13.7213 19.6467C14.0256 19.4798 14.2613 19.2516 14.4281 18.9619C14.595 18.6674 14.6785 18.3287 14.6785 17.9458C14.6785 17.5629 14.595 17.2267 14.4281 16.9371C14.2613 16.6426 14.0256 16.4143 13.7213 16.2523C13.4169 16.0854 13.0635 16.002 12.661 16.002H11.6007V19.8897H12.661ZM17.307 20.5524C17.2137 20.5524 17.1352 20.5205 17.0713 20.4567C17.0075 20.3928 16.9756 20.3143 16.9756 20.221V15.7148C16.9756 15.6215 17.0075 15.543 17.0713 15.4792C17.1352 15.4105 17.2137 15.3761 17.307 15.3761H20.1712C20.2596 15.3761 20.3332 15.408 20.3921 15.4718C20.4559 15.5307 20.4878 15.6044 20.4878 15.6927C20.4878 15.7811 20.4559 15.8547 20.3921 15.9136C20.3332 15.9725 20.2596 16.002 20.1712 16.002H17.6457V17.6292H19.9135C20.0019 17.6292 20.0755 17.6611 20.1344 17.7249C20.1982 17.7838 20.2301 17.8575 20.2301 17.9458C20.2301 18.0342 20.1982 18.1078 20.1344 18.1667C20.0755 18.2256 20.0019 18.2551 19.9135 18.2551H17.6457V20.221C17.6457 20.3143 17.6113 20.3928 17.5426 20.4567C17.4788 20.5205 17.4002 20.5524 17.307 20.5524Z"/>
</mask>
<path d="M5.79947 20.5524C5.70621 20.5524 5.62767 20.5205 5.56385 20.4567C5.50004 20.3928 5.46813 20.3143 5.46813 20.221V15.7148C5.46813 15.6215 5.50004 15.543 5.56385 15.4792C5.62767 15.4105 5.70621 15.3761 5.79947 15.3761H7.47827C7.9446 15.3761 8.32503 15.4546 8.61955 15.6117C8.91408 15.7688 9.12516 15.9701 9.25278 16.2155C9.38041 16.4609 9.44423 16.726 9.44423 17.0107C9.44423 17.2954 9.38041 17.5605 9.25278 17.8059C9.12516 18.0514 8.91408 18.2526 8.61955 18.4097C8.32503 18.5668 7.9446 18.6453 7.47827 18.6453H6.13818V20.221C6.13818 20.3143 6.10381 20.3928 6.03509 20.4567C5.97128 20.5205 5.89274 20.5524 5.79947 20.5524ZM7.412 18.0121C7.91269 18.0121 8.26367 17.9164 8.46493 17.7249C8.6711 17.5335 8.77418 17.2954 8.77418 17.0107C8.77418 16.726 8.6711 16.4879 8.46493 16.2965C8.26367 16.105 7.91269 16.0093 7.412 16.0093H6.13818V18.0121H7.412ZM11.262 20.5156C11.1687 20.5156 11.0902 20.4837 11.0264 20.4198C10.9626 20.356 10.9307 20.2775 10.9307 20.1842V15.7148C10.9307 15.6215 10.9626 15.543 11.0264 15.4792C11.0902 15.4105 11.1687 15.3761 11.262 15.3761H12.742C13.3016 15.3761 13.7753 15.5013 14.1631 15.7516C14.5558 15.9971 14.8503 16.3161 15.0467 16.7088C15.243 17.1015 15.3412 17.5139 15.3412 17.9458C15.3412 18.3778 15.243 18.7901 15.0467 19.1828C14.8503 19.5755 14.5558 19.8971 14.1631 20.1474C13.7753 20.3928 13.3016 20.5156 12.742 20.5156H11.262ZM12.661 19.8897C13.0635 19.8897 13.4169 19.8087 13.7213 19.6467C14.0256 19.4798 14.2613 19.2516 14.4281 18.9619C14.595 18.6674 14.6785 18.3287 14.6785 17.9458C14.6785 17.5629 14.595 17.2267 14.4281 16.9371C14.2613 16.6426 14.0256 16.4143 13.7213 16.2523C13.4169 16.0854 13.0635 16.002 12.661 16.002H11.6007V19.8897H12.661ZM17.307 20.5524C17.2137 20.5524 17.1352 20.5205 17.0713 20.4567C17.0075 20.3928 16.9756 20.3143 16.9756 20.221V15.7148C16.9756 15.6215 17.0075 15.543 17.0713 15.4792C17.1352 15.4105 17.2137 15.3761 17.307 15.3761H20.1712C20.2596 15.3761 20.3332 15.408 20.3921 15.4718C20.4559 15.5307 20.4878 15.6044 20.4878 15.6927C20.4878 15.7811 20.4559 15.8547 20.3921 15.9136C20.3332 15.9725 20.2596 16.002 20.1712 16.002H17.6457V17.6292H19.9135C20.0019 17.6292 20.0755 17.6611 20.1344 17.7249C20.1982 17.7838 20.2301 17.8575 20.2301 17.9458C20.2301 18.0342 20.1982 18.1078 20.1344 18.1667C20.0755 18.2256 20.0019 18.2551 19.9135 18.2551H17.6457V20.221C17.6457 20.3143 17.6113 20.3928 17.5426 20.4567C17.4788 20.5205 17.4002 20.5524 17.307 20.5524Z" fill="white"/>
<path d="M5.56385 20.4567L5.69566 20.3248L5.56385 20.4567ZM5.56385 15.4792L5.69575 15.6111L5.70045 15.606L5.56385 15.4792ZM8.61955 15.6117L8.70728 15.4472L8.61955 15.6117ZM9.25278 16.2155L9.0874 16.3015L9.25278 16.2155ZM9.25278 17.8059L9.0874 17.7199V17.7199L9.25278 17.8059ZM8.61955 18.4097L8.70728 18.5742L8.61955 18.4097ZM6.13818 18.6453V18.4589H5.95177V18.6453H6.13818ZM6.03509 20.4567L5.90816 20.32L5.90328 20.3248L6.03509 20.4567ZM8.46493 17.7249L8.33808 17.5883L8.33645 17.5899L8.46493 17.7249ZM8.46493 16.2965L8.33644 16.4316L8.33809 16.4331L8.46493 16.2965ZM6.13818 16.0093V15.8229H5.95177V16.0093H6.13818ZM6.13818 18.0121H5.95177V18.1985H6.13818V18.0121ZM5.79947 20.366C5.7538 20.366 5.72323 20.3524 5.69566 20.3248L5.43204 20.5885C5.5321 20.6885 5.65862 20.7388 5.79947 20.7388V20.366ZM5.69566 20.3248C5.66809 20.2973 5.65454 20.2667 5.65454 20.221H5.28172C5.28172 20.3619 5.33198 20.4884 5.43204 20.5885L5.69566 20.3248ZM5.65454 20.221V15.7148H5.28172V20.221H5.65454ZM5.65454 15.7148C5.65454 15.6691 5.66809 15.6386 5.69566 15.611L5.43204 15.3474C5.33198 15.4474 5.28172 15.5739 5.28172 15.7148H5.65454ZM5.70045 15.606C5.72922 15.575 5.75837 15.5625 5.79947 15.5625V15.1897C5.65405 15.1897 5.52612 15.2459 5.42725 15.3523L5.70045 15.606ZM5.79947 15.5625H7.47827V15.1897H5.79947V15.5625ZM7.47827 15.5625C7.92548 15.5625 8.27288 15.6381 8.53183 15.7762L8.70728 15.4472C8.37717 15.2712 7.96372 15.1897 7.47827 15.1897V15.5625ZM8.53183 15.7762C8.80011 15.9193 8.98046 16.0958 9.0874 16.3015L9.41817 16.1295C9.26985 15.8443 9.02804 15.6183 8.70728 15.4472L8.53183 15.7762ZM9.0874 16.3015C9.2008 16.5196 9.25782 16.755 9.25782 17.0107H9.63063C9.63063 16.697 9.56002 16.4023 9.41817 16.1295L9.0874 16.3015ZM9.25782 17.0107C9.25782 17.2664 9.2008 17.5018 9.0874 17.7199L9.41817 17.8919C9.56002 17.6191 9.63063 17.3245 9.63063 17.0107H9.25782ZM9.0874 17.7199C8.98046 17.9256 8.80011 18.1021 8.53183 18.2452L8.70728 18.5742C9.02804 18.4031 9.26985 18.1772 9.41817 17.8919L9.0874 17.7199ZM8.53183 18.2452C8.27288 18.3833 7.92548 18.4589 7.47827 18.4589V18.8317C7.96372 18.8317 8.37717 18.7502 8.70728 18.5742L8.53183 18.2452ZM7.47827 18.4589H6.13818V18.8317H7.47827V18.4589ZM5.95177 18.6453V20.221H6.32458V18.6453H5.95177ZM5.95177 20.221C5.95177 20.2621 5.93923 20.2913 5.90825 20.3201L6.16193 20.5933C6.2684 20.4944 6.32458 20.3665 6.32458 20.221H5.95177ZM5.90328 20.3248C5.87571 20.3524 5.84515 20.366 5.79947 20.366V20.7388C5.94033 20.7388 6.06684 20.6885 6.1669 20.5885L5.90328 20.3248ZM7.412 18.1985C7.92574 18.1985 8.33859 18.1024 8.5934 17.86L8.33645 17.5899C8.18875 17.7304 7.89964 17.8257 7.412 17.8257V18.1985ZM8.59177 17.8615C8.83643 17.6343 8.96059 17.3465 8.96059 17.0107H8.58777C8.58777 17.2443 8.50576 17.4326 8.33809 17.5883L8.59177 17.8615ZM8.96059 17.0107C8.96059 16.6749 8.83643 16.3871 8.59177 16.1599L8.33809 16.4331C8.50576 16.5888 8.58777 16.7771 8.58777 17.0107H8.96059ZM8.5934 16.1614C8.33859 15.919 7.92574 15.8229 7.412 15.8229V16.1957C7.89964 16.1957 8.18875 16.2911 8.33645 16.4315L8.5934 16.1614ZM7.412 15.8229H6.13818V16.1957H7.412V15.8229ZM5.95177 16.0093V18.0121H6.32458V16.0093H5.95177ZM6.13818 18.1985H7.412V17.8257H6.13818V18.1985ZM11.0264 20.4198L11.1582 20.288L11.0264 20.4198ZM11.0264 15.4792L11.1583 15.6111L11.163 15.606L11.0264 15.4792ZM14.1631 15.7516L14.062 15.9082L14.0643 15.9097L14.1631 15.7516ZM15.0467 16.7088L14.8799 16.7922L15.0467 16.7088ZM15.0467 19.1828L14.8799 19.0995L15.0467 19.1828ZM14.1631 20.1474L14.2628 20.3049L14.2633 20.3046L14.1631 20.1474ZM13.7213 19.6467L13.8089 19.8113L13.8109 19.8102L13.7213 19.6467ZM14.4281 18.9619L14.5897 19.055L14.5903 19.0538L14.4281 18.9619ZM14.4281 16.9371L14.266 17.029L14.2666 17.0302L14.4281 16.9371ZM13.7213 16.2523L13.6316 16.4158L13.6337 16.4169L13.7213 16.2523ZM11.6007 16.002V15.8156H11.4143V16.002H11.6007ZM11.6007 19.8897H11.4143V20.0761H11.6007V19.8897ZM11.262 20.3292C11.2163 20.3292 11.1858 20.3156 11.1582 20.288L10.8946 20.5517C10.9946 20.6517 11.1211 20.702 11.262 20.702V20.3292ZM11.1582 20.288C11.1306 20.2605 11.1171 20.2299 11.1171 20.1842H10.7442C10.7442 20.3251 10.7945 20.4516 10.8946 20.5517L11.1582 20.288ZM11.1171 20.1842V15.7148H10.7442V20.1842H11.1171ZM11.1171 15.7148C11.1171 15.6691 11.1306 15.6386 11.1582 15.611L10.8946 15.3474C10.7945 15.4474 10.7442 15.5739 10.7442 15.7148H11.1171ZM11.163 15.606C11.1917 15.575 11.2209 15.5625 11.262 15.5625V15.1897C11.1166 15.1897 10.9886 15.2459 10.8898 15.3523L11.163 15.606ZM11.262 15.5625H12.742V15.1897H11.262V15.5625ZM12.742 15.5625C13.2734 15.5625 13.7102 15.6811 14.062 15.9082L14.2642 15.595C13.8404 15.3214 13.3298 15.1897 12.742 15.1897V15.5625ZM14.0643 15.9097C14.4296 16.138 14.6998 16.4319 14.8799 16.7922L15.2134 16.6255C15.0008 16.2004 14.682 15.8561 14.2619 15.5935L14.0643 15.9097ZM14.8799 16.7922C15.0636 17.1594 15.1548 17.5433 15.1548 17.9458H15.5276C15.5276 17.4844 15.4225 17.0436 15.2134 16.6255L14.8799 16.7922ZM15.1548 17.9458C15.1548 18.3484 15.0636 18.7322 14.8799 19.0995L15.2134 19.2662C15.4225 18.8481 15.5276 18.4072 15.5276 17.9458H15.1548ZM14.8799 19.0995C14.6996 19.4601 14.4289 19.7569 14.0629 19.9902L14.2633 20.3046C14.6826 20.0373 15.001 19.6909 15.2134 19.2662L14.8799 19.0995ZM14.0634 19.9899C13.7114 20.2127 13.2741 20.3292 12.742 20.3292V20.702C13.3291 20.702 13.8392 20.573 14.2628 20.3049L14.0634 19.9899ZM12.742 20.3292H11.262V20.702H12.742V20.3292ZM12.661 20.0761C13.0889 20.0761 13.4734 19.9898 13.8089 19.8113L13.6337 19.4822C13.3605 19.6276 13.0381 19.7033 12.661 19.7033V20.0761ZM13.8109 19.8102C14.144 19.6275 14.405 19.3754 14.5897 19.055L14.2666 18.8689C14.1175 19.1277 13.9073 19.3321 13.6317 19.4833L13.8109 19.8102ZM14.5903 19.0538C14.7751 18.7278 14.8649 18.3566 14.8649 17.9458H14.4921C14.4921 18.3008 14.415 18.6071 14.266 18.87L14.5903 19.0538ZM14.8649 17.9458C14.8649 17.5351 14.7751 17.1658 14.5897 16.844L14.2666 17.0302C14.415 17.2876 14.4921 17.5908 14.4921 17.9458H14.8649ZM14.5903 16.8452C14.4056 16.5192 14.1439 16.2661 13.8089 16.0878L13.6337 16.4169C13.9074 16.5625 14.1169 16.7659 14.266 17.029L14.5903 16.8452ZM13.8109 16.0889C13.475 15.9046 13.0898 15.8156 12.661 15.8156V16.1884C13.0372 16.1884 13.3589 16.2662 13.6317 16.4158L13.8109 16.0889ZM12.661 15.8156H11.6007V16.1884H12.661V15.8156ZM11.4143 16.002V19.8897H11.7871V16.002H11.4143ZM11.6007 20.0761H12.661V19.7033H11.6007V20.0761ZM17.0713 20.4567L17.2032 20.3248L17.0713 20.4567ZM17.0713 15.4792L17.2032 15.6111L17.2079 15.606L17.0713 15.4792ZM20.3921 15.4718L20.2551 15.5983L20.2602 15.6037L20.2657 15.6088L20.3921 15.4718ZM20.3921 15.9136L20.2656 15.7765L20.2603 15.7818L20.3921 15.9136ZM17.6457 16.002V15.8156H17.4593V16.002H17.6457ZM17.6457 17.6292H17.4593V17.8156H17.6457V17.6292ZM20.1344 17.7249L19.9974 17.8514L20.0025 17.8569L20.008 17.8619L20.1344 17.7249ZM20.1344 18.1667L20.0079 18.0296L20.0026 18.0349L20.1344 18.1667ZM17.6457 18.2551V18.0687H17.4593V18.2551H17.6457ZM17.5426 20.4567L17.4157 20.32L17.4108 20.3248L17.5426 20.4567ZM17.307 20.366C17.2613 20.366 17.2307 20.3524 17.2032 20.3248L16.9395 20.5885C17.0396 20.6885 17.1661 20.7388 17.307 20.7388V20.366ZM17.2032 20.3248C17.1756 20.2973 17.162 20.2667 17.162 20.221H16.7892C16.7892 20.3619 16.8395 20.4884 16.9395 20.5885L17.2032 20.3248ZM17.162 20.221V15.7148H16.7892V20.221H17.162ZM17.162 15.7148C17.162 15.6691 17.1756 15.6386 17.2032 15.611L16.9395 15.3474C16.8395 15.4474 16.7892 15.5739 16.7892 15.7148H17.162ZM17.2079 15.606C17.2367 15.575 17.2659 15.5625 17.307 15.5625V15.1897C17.1615 15.1897 17.0336 15.2459 16.9347 15.3523L17.2079 15.606ZM17.307 15.5625H20.1712V15.1897H17.307V15.5625ZM20.1712 15.5625C20.2086 15.5625 20.2322 15.5734 20.2551 15.5983L20.5291 15.3454C20.4342 15.2426 20.3106 15.1897 20.1712 15.1897V15.5625ZM20.2657 15.6088C20.2905 15.6317 20.3014 15.6553 20.3014 15.6927H20.6742C20.6742 15.5534 20.6213 15.4297 20.5186 15.3348L20.2657 15.6088ZM20.3014 15.6927C20.3014 15.7301 20.2905 15.7537 20.2657 15.7766L20.5186 16.0506C20.6213 15.9557 20.6742 15.8321 20.6742 15.6927H20.3014ZM20.2603 15.7818C20.2386 15.8035 20.2135 15.8156 20.1712 15.8156V16.1884C20.3057 16.1884 20.4278 16.1416 20.5239 16.0454L20.2603 15.7818ZM20.1712 15.8156H17.6457V16.1884H20.1712V15.8156ZM17.4593 16.002V17.6292H17.8321V16.002H17.4593ZM17.6457 17.8156H19.9135V17.4428H17.6457V17.8156ZM19.9135 17.8156C19.9509 17.8156 19.9745 17.8265 19.9974 17.8514L20.2714 17.5985C20.1765 17.4957 20.0529 17.4428 19.9135 17.4428V17.8156ZM20.008 17.8619C20.0328 17.8848 20.0437 17.9085 20.0437 17.9458H20.4165C20.4165 17.8065 20.3636 17.6828 20.2608 17.588L20.008 17.8619ZM20.0437 17.9458C20.0437 17.9832 20.0328 18.0068 20.008 18.0297L20.2608 18.3037C20.3636 18.2088 20.4165 18.0852 20.4165 17.9458H20.0437ZM20.0026 18.0349C19.9809 18.0566 19.9558 18.0687 19.9135 18.0687V18.4415C20.048 18.4415 20.1701 18.3947 20.2662 18.2985L20.0026 18.0349ZM19.9135 18.0687H17.6457V18.4415H19.9135V18.0687ZM17.4593 18.2551V20.221H17.8321V18.2551H17.4593ZM17.4593 20.221C17.4593 20.2621 17.4467 20.2913 17.4157 20.3201L17.6694 20.5933C17.7759 20.4944 17.8321 20.3665 17.8321 20.221H17.4593ZM17.4108 20.3248C17.3832 20.3524 17.3526 20.366 17.307 20.366V20.7388C17.4478 20.7388 17.5743 20.6885 17.6744 20.5885L17.4108 20.3248Z" fill="white" mask="url(#path-3-outside-1_2121_5366)"/>
<mask id="mask0_2121_5366" style="mask-type:alpha" maskUnits="userSpaceOnUse" x="0" y="0" width="26" height="29">
<path d="M23.3011 28.7069H2.05049C0.918038 28.7069 0 27.7888 0 26.6564V2.05043C0 0.917977 0.918038 -6.10352e-05 2.05049 -6.10352e-05H15.8447L25.3516 9.50677V26.6564C25.3516 27.7888 24.4335 28.7069 23.3011 28.7069Z" fill="url(#paint1_linear_2121_5366)"/>
</mask>
<g mask="url(#mask0_2121_5366)">
<ellipse opacity="0.08" cx="-2.56338" cy="-0.605341" rx="20.8312" ry="19.9923" fill="url(#paint2_linear_2121_5366)"/>
<ellipse opacity="0.08" cx="-2.56105" cy="-0.604712" rx="13.0952" ry="12.536" fill="url(#paint3_linear_2121_5366)"/>
</g>
<g filter="url(#filter0_d_2121_5366)">
<path d="M25.3506 9.50671H17.8942C16.7618 9.50671 15.8438 8.58868 15.8438 7.45622V-0.00012207L25.3506 9.50671Z" fill="url(#paint4_linear_2121_5366)"/>
</g>
<defs>
<filter id="filter0_d_2121_5366" x="13.7001" y="-2.23702" width="14.167" height="14.167" filterUnits="userSpaceOnUse" color-interpolation-filters="sRGB">
<feFlood flood-opacity="0" result="BackgroundImageFix"/>
<feColorMatrix in="SourceAlpha" type="matrix" values="0 0 0 0 0 0 0 0 0 0 0 0 0 0 0 0 0 0 127 0" result="hardAlpha"/>
<feOffset dx="0.186409" dy="0.0932043"/>
<feGaussianBlur stdDeviation="1.16505"/>
<feColorMatrix type="matrix" values="0 0 0 0 0 0 0 0 0 0 0 0 0 0 0 0 0 0 0.33 0"/>
<feBlend mode="normal" in2="BackgroundImageFix" result="effect1_dropShadow_2121_5366"/>
<feBlend mode="normal" in="SourceGraphic" in2="effect1_dropShadow_2121_5366" result="shape"/>
</filter>
<linearGradient id="paint0_linear_2121_5366" x1="12.6758" y1="-0.00012207" x2="12.6758" y2="28.7068" gradientUnits="userSpaceOnUse">
<stop stop-color="#FF7981"/>
<stop offset="1" stop-color="#E85567"/>
</linearGradient>
<linearGradient id="paint1_linear_2121_5366" x1="12.6758" y1="-6.10352e-05" x2="12.6758" y2="28.7069" gradientUnits="userSpaceOnUse">
<stop stop-color="#FF7981"/>
<stop offset="1" stop-color="#E85567"/>
</linearGradient>
<linearGradient id="paint2_linear_2121_5366" x1="-1.05089" y1="0.08168" x2="5.26642" y2="16.8479" gradientUnits="userSpaceOnUse">
<stop stop-color="white" stop-opacity="0"/>
<stop offset="1" stop-color="white"/>
</linearGradient>
<linearGradient id="paint3_linear_2121_5366" x1="-1.61024" y1="-0.173922" x2="2.3434" y2="10.3458" gradientUnits="userSpaceOnUse">
<stop stop-color="white" stop-opacity="0"/>
<stop offset="1" stop-color="white"/>
</linearGradient>
<linearGradient id="paint4_linear_2121_5366" x1="20.5972" y1="-0.00012207" x2="20.5972" y2="9.50671" gradientUnits="userSpaceOnUse">
<stop stop-color="#D03954"/>
<stop offset="1" stop-color="#C02A3C"/>
</linearGradient>
</defs>
</svg>
