<svg width="47" height="46" viewBox="0 0 47 46" fill="none" xmlns="http://www.w3.org/2000/svg">
    <rect x="3.55078" y="3" width="40" height="40" rx="20" fill="#F2F4F7"/>
    <rect x="3.55078" y="3" width="40" height="40" rx="20" stroke="#F9FAFB" stroke-width="6"/>
    <g clip-path="url(#clip0_652_263168)">
        <path d="M26.8833 26.3332L23.55 22.9999M23.55 22.9999L20.2167 26.3332M23.55 22.9999V30.4999M30.5417 28.3249C31.3545 27.8818 31.9965 27.1806 32.3666 26.3321C32.7366 25.4835 32.8135 24.5359 32.5852 23.6388C32.3568 22.7417 31.8363 21.9462 31.1056 21.3778C30.3749 20.8094 29.4757 20.5005 28.55 20.4999H27.5C27.2478 19.5243 26.7776 18.6185 26.125 17.8507C25.4723 17.0829 24.6541 16.4731 23.7318 16.0671C22.8095 15.661 21.8071 15.4694 20.8001 15.5065C19.7931 15.5436 18.8076 15.8085 17.9177 16.2813C17.0278 16.7541 16.2566 17.4225 15.6622 18.2362C15.0678 19.05 14.6656 19.9879 14.4858 20.9794C14.3061 21.9709 14.3534 22.9903 14.6244 23.961C14.8953 24.9316 15.3827 25.8281 16.05 26.5832" stroke="#475467" stroke-width="1.66667" stroke-linecap="round" stroke-linejoin="round"/>
    </g>
    <defs>
        <clipPath id="clip0_652_263168">
            <rect width="20" height="20" fill="white" transform="translate(13.5508 13)"/>
        </clipPath>
    </defs>
</svg>
