<svg width="344" height="92" viewBox="0 0 344 92" fill="none" xmlns="http://www.w3.org/2000/svg">
    <g clip-path="url(#clip0_652_260977)">
        <rect x="0.550781" width="343" height="92" rx="10" fill="#E5E6E1"/>
        <rect x="0.550781" width="343" height="92" rx="10" fill="url(#paint0_linear_652_260977)"/>
        <path d="M27.4003 -0.0083797C106.345 -6.09071 93.9957 -41.014 172.94 -47.0964C251.885 -53.1787 243.348 -42.9545 322.293 -49.0368C401.238 -55.1191 390.401 -38.5676 469.346 -44.6499C548.291 -50.7322 562.342 -43.7409 641.287 -49.8232" stroke="white" stroke-opacity="0.1" stroke-width="2.0694" stroke-linecap="round"/>
        <path d="M27.3984 -0.00697599C104.533 -5.94984 112.286 -31.4887 189.42 -37.4316C266.555 -43.3744 252.098 -62.0771 329.233 -68.02C406.368 -73.9629 407.253 -46.0144 484.387 -51.9573C561.522 -57.9002 566.901 -44.1938 644.035 -50.1367" stroke="white" stroke-opacity="0.1" stroke-width="2.0694" stroke-linecap="round"/>
        <path d="M37.1838 23.3917L36.9422 21.0834C36.5922 18.5667 35.4505 17.5417 33.0088 17.5417H31.0422H29.8088H27.2755H26.0422H24.0422C21.5922 17.5417 20.4588 18.5667 20.1005 21.1084L19.8755 23.4001C19.7922 24.2917 20.0338 25.1584 20.5588 25.8334C21.1922 26.6584 22.1672 27.1251 23.2505 27.1251C24.3005 27.1251 25.3088 26.6001 25.9422 25.7584C26.5088 26.6001 27.4755 27.1251 28.5505 27.1251C29.6255 27.1251 30.5672 26.6251 31.1422 25.7917C31.7838 26.6167 32.7755 27.1251 33.8088 27.1251C34.9172 27.1251 35.9172 26.6334 36.5422 25.7667C37.0422 25.1001 37.2672 24.2584 37.1838 23.3917Z" fill="#101828"/>
        <path d="M28.0068 30.3836C26.9484 30.492 26.1484 31.392 26.1484 32.4586V34.742C26.1484 34.9669 26.3318 35.1503 26.5568 35.1503H30.5318C30.7568 35.1503 30.9401 34.9669 30.9401 34.742V32.7503C30.9484 31.0086 29.9234 30.1836 28.0068 30.3836Z" fill="#101828"/>
        <path d="M36.3589 28.5001V30.9834C36.3589 33.2834 34.4922 35.1501 32.1922 35.1501C31.9672 35.1501 31.7839 34.9667 31.7839 34.7417V32.7501C31.7839 31.6834 31.4589 30.8501 30.8255 30.2834C30.2672 29.7751 29.5089 29.5251 28.5672 29.5251C28.3589 29.5251 28.1505 29.5334 27.9255 29.5584C26.4422 29.7084 25.3172 30.9584 25.3172 32.4584V34.7417C25.3172 34.9667 25.1339 35.1501 24.9089 35.1501C22.6089 35.1501 20.7422 33.2834 20.7422 30.9834V28.5167C20.7422 27.9334 21.3172 27.5417 21.8589 27.7334C22.0839 27.8084 22.3089 27.8667 22.5422 27.9001C22.6422 27.9167 22.7505 27.9334 22.8505 27.9334C22.9839 27.9501 23.1172 27.9584 23.2505 27.9584C24.2172 27.9584 25.1672 27.6001 25.9172 26.9834C26.6339 27.6001 27.5672 27.9584 28.5505 27.9584C29.5422 27.9584 30.4589 27.6167 31.1755 27.0001C31.9255 27.6084 32.8589 27.9584 33.8089 27.9584C33.9589 27.9584 34.1089 27.9501 34.2505 27.9334C34.3505 27.9251 34.4422 27.9167 34.5339 27.9001C34.7922 27.8667 35.0255 27.7917 35.2589 27.7167C35.8005 27.5334 36.3589 27.9334 36.3589 28.5001Z" fill="#101828"/>
        <path d="M55.6228 21.512L51.4628 33H48.8068L44.6788 21.512H47.3028L50.2148 30.168L53.1908 21.512H55.6228ZM59.3017 33.144C56.7417 33.144 55.0297 31.368 55.0297 28.696C55.0297 26.152 56.8057 24.296 59.2697 24.296C61.9737 24.296 63.7657 26.488 63.3657 29.272H57.3017C57.4457 30.664 58.1177 31.432 59.2537 31.432C60.2297 31.432 60.8857 30.952 61.1417 30.104H63.3497C62.8697 32.04 61.3817 33.144 59.3017 33.144ZM59.2217 25.928C58.1817 25.928 57.5257 26.6 57.3337 27.864H61.0137C60.9497 26.68 60.2777 25.928 59.2217 25.928ZM67.0793 28.344V33H64.8553V24.456H66.9033V25.672C67.5273 24.824 68.4073 24.296 69.5273 24.296C71.2393 24.296 72.4233 25.416 72.4233 27.48V33H70.2153V28.232C70.2153 26.968 69.7193 26.264 68.7113 26.264C67.8313 26.264 67.0793 26.968 67.0793 28.344ZM73.7797 28.728C73.7797 26.2 75.2677 24.296 77.5717 24.296C78.5957 24.296 79.4597 24.744 80.0997 25.56V21.512H82.3077V33H80.2757V31.768C79.6037 32.664 78.6757 33.16 77.5717 33.16C75.2677 33.16 73.7797 31.224 73.7797 28.728ZM76.0677 28.728C76.0677 30.328 76.9797 31.176 78.0677 31.176C79.1717 31.176 80.0837 30.312 80.0837 28.696C80.0837 27.08 79.1557 26.264 78.0677 26.264C76.9797 26.264 76.0677 27.096 76.0677 28.728ZM88.0688 33.16C85.5888 33.16 83.7328 31.208 83.7328 28.728C83.7328 26.232 85.5888 24.296 88.0688 24.296C90.5488 24.296 92.4048 26.232 92.4048 28.728C92.4048 31.208 90.5488 33.16 88.0688 33.16ZM88.0688 31.192C89.1728 31.192 90.1168 30.312 90.1168 28.728C90.1168 27.144 89.1728 26.28 88.0688 26.28C86.9648 26.28 86.0208 27.144 86.0208 28.728C86.0208 30.312 86.9648 31.192 88.0688 31.192ZM96.048 28.856V33H93.824V24.456H95.872V26.104C96.496 25.016 97.824 24.36 99.2 24.36V26.664C97.312 26.52 96.048 26.968 96.048 28.856ZM112.707 29.432C112.707 31.624 110.947 33.16 108.067 33.16C105.171 33.16 103.363 31.608 103.187 29.176H105.651C105.715 30.44 106.531 31.256 108.019 31.256C109.251 31.256 110.131 30.712 110.131 29.784C110.131 29.064 109.571 28.632 108.595 28.44L106.707 28.072C104.963 27.736 103.619 26.792 103.619 24.888C103.619 22.84 105.427 21.368 107.907 21.368C110.483 21.368 112.371 22.872 112.531 25.272H110.067C109.987 24.072 109.155 23.256 107.939 23.256C106.755 23.256 106.083 23.928 106.083 24.728C106.083 25.512 106.803 25.848 107.635 26.008L109.603 26.408C111.619 26.808 112.707 27.736 112.707 29.432ZM116.532 28.344V33H114.308V21.512H116.532V25.576C117.124 24.792 117.86 24.296 118.98 24.296C120.692 24.296 121.876 25.416 121.876 27.48V33H119.668V28.232C119.668 26.968 119.172 26.264 118.164 26.264C117.284 26.264 116.532 26.968 116.532 28.344ZM127.569 33.16C125.089 33.16 123.233 31.208 123.233 28.728C123.233 26.232 125.089 24.296 127.569 24.296C130.049 24.296 131.905 26.232 131.905 28.728C131.905 31.208 130.049 33.16 127.569 33.16ZM127.569 31.192C128.673 31.192 129.617 30.312 129.617 28.728C129.617 27.144 128.673 26.28 127.569 26.28C126.465 26.28 125.521 27.144 125.521 28.728C125.521 30.312 126.465 31.192 127.569 31.192ZM135.548 28.856V33H133.324V24.456H135.372V26.104C135.996 25.016 137.324 24.36 138.7 24.36V26.664C136.812 26.52 135.548 26.968 135.548 28.856ZM145.714 30.84V32.776C145.17 33.048 144.658 33.16 144.002 33.16C142.242 33.16 141.138 32.152 141.138 30.232V26.36H139.41V24.456H141.138V21.928H143.346V24.456H145.794V26.36H143.346V29.72C143.346 30.712 143.794 31.112 144.594 31.112C145.01 31.112 145.394 31.016 145.714 30.84ZM149.392 33H147.152V21.512H149.392V33ZM153.963 22.472C153.963 23.224 153.355 23.784 152.475 23.784C151.611 23.784 151.003 23.224 151.003 22.472C151.003 21.688 151.611 21.128 152.475 21.128C153.355 21.128 153.963 21.688 153.963 22.472ZM153.611 33H151.387V24.456H153.611V33ZM162.806 30.264C162.806 32.056 161.446 33.16 159.014 33.16C156.582 33.16 155.222 31.992 155.046 30.088H157.174C157.19 30.968 157.942 31.528 159.046 31.528C159.91 31.528 160.566 31.256 160.566 30.648C160.566 30.104 160.214 29.88 159.398 29.72L157.862 29.432C156.326 29.16 155.398 28.312 155.398 26.984C155.398 25.4 156.758 24.296 158.886 24.296C161.03 24.296 162.502 25.432 162.662 27.272H160.534C160.454 26.44 159.83 25.928 158.886 25.928C158.07 25.928 157.526 26.232 157.526 26.776C157.526 27.288 157.878 27.496 158.646 27.64L160.294 27.944C161.958 28.264 162.806 29.032 162.806 30.264ZM169.464 30.84V32.776C168.92 33.048 168.408 33.16 167.752 33.16C165.992 33.16 164.888 32.152 164.888 30.232V26.36H163.16V24.456H164.888V21.928H167.096V24.456H169.544V26.36H167.096V29.72C167.096 30.712 167.544 31.112 168.344 31.112C168.76 31.112 169.144 31.016 169.464 30.84Z" fill="#101828"/>
        <circle cx="10.0508" cy="115.5" r="45.5" fill="white" fill-opacity="0.16"/>
        <path d="M257.121 -9.44336L350.553 -9.44336V80.2236C350.553 80.2236 308.562 84.6727 298.532 37.9569C288.502 -8.75888 257.121 -9.44336 257.121 -9.44336Z" fill="#EBB850"/>
        <path d="M251.472 -18L344.904 -18V71.6669C344.904 71.6669 345.075 31.2826 292.883 29.4003C240.692 27.5179 251.472 -18 251.472 -18Z" fill="#F94DC6"/>
        <path d="M23.6308 58H22.6648V49.376H20.8028V48.536H23.6308V58ZM27.9101 58H26.9441V49.376H25.0821V48.536H27.9101V58ZM41.0092 47.948L37.2432 58H36.0952L32.3432 47.948H33.4352L36.6832 56.796L39.9592 47.948H41.0092ZM44.2003 58.14C42.1283 58.14 40.7563 56.586 40.7563 54.248C40.7563 52.092 42.1843 50.482 44.1443 50.482C46.2443 50.482 47.6163 52.176 47.4483 54.542H41.7363C41.8203 56.292 42.7443 57.37 44.1863 57.37C45.4183 57.37 46.2723 56.684 46.5103 55.508H47.4763C47.1403 57.146 45.8943 58.14 44.2003 58.14ZM44.1303 51.238C42.8003 51.238 41.8623 52.26 41.7363 53.87H46.4263C46.3423 52.218 45.4883 51.238 44.1303 51.238ZM50.0479 53.702V58H49.0679V50.622H49.9779V52.008C50.4539 51.098 51.3499 50.482 52.4139 50.482C53.9539 50.482 54.9479 51.462 54.9479 53.212V58H53.9679V53.548C53.9679 52.134 53.3239 51.336 52.1199 51.336C50.9719 51.336 50.0479 52.33 50.0479 53.702ZM56.4653 54.304C56.4653 52.036 57.7253 50.482 59.7133 50.482C60.8193 50.482 61.7573 51.112 62.2473 52.162V47.948H63.2273V58H62.3173V56.446C61.7993 57.524 60.8473 58.14 59.7133 58.14C57.7253 58.14 56.4653 56.572 56.4653 54.304ZM57.4593 54.304C57.4593 56.18 58.4113 57.286 59.8533 57.286C61.2813 57.286 62.2613 56.124 62.2613 54.276C62.2613 52.414 61.2533 51.336 59.8533 51.336C58.4113 51.336 57.4593 52.428 57.4593 54.304ZM68.3051 58.14C66.2751 58.14 64.8051 56.53 64.8051 54.304C64.8051 52.092 66.2751 50.496 68.3051 50.496C70.3491 50.496 71.8191 52.092 71.8191 54.304C71.8191 56.53 70.3491 58.14 68.3051 58.14ZM68.3051 57.286C69.7471 57.286 70.8251 56.138 70.8251 54.304C70.8251 52.498 69.7471 51.35 68.3051 51.35C66.8771 51.35 65.7991 52.498 65.7991 54.304C65.7991 56.138 66.8771 57.286 68.3051 57.286ZM74.3838 54.052V58H73.4038V50.622H74.3138V52.302C74.8178 51.21 75.9098 50.51 77.1278 50.51V51.532C75.5738 51.476 74.3838 52.442 74.3838 54.052ZM83.8417 55.942C83.8417 57.3 82.7497 58.14 80.9297 58.14C79.0957 58.14 77.9757 57.216 77.8357 55.69H78.7737C78.8437 56.74 79.6697 57.398 80.9297 57.398C82.1337 57.398 82.8617 56.936 82.8617 56.096C82.8617 55.368 82.4417 55.032 81.3217 54.808L80.2577 54.598C78.8577 54.332 78.1157 53.646 78.1157 52.582C78.1157 51.35 79.2077 50.482 80.8177 50.482C82.5117 50.482 83.6317 51.392 83.7437 52.862H82.8197C82.7217 51.84 81.9797 51.238 80.8177 51.238C79.7817 51.238 79.0677 51.728 79.0677 52.498C79.0677 53.226 79.5157 53.576 80.6077 53.786L81.7137 53.996C83.1837 54.276 83.8417 54.892 83.8417 55.942Z" fill="#101828"/>
        <rect x="90.5508" y="51.5" width="3" height="3" rx="1.5" fill="#101828"/>
        <path d="M106.033 57.132V58H100.321V57.44L103.345 54.024C104.493 52.722 104.913 52.022 104.913 51.112C104.913 50.048 104.129 49.264 103.023 49.264C101.875 49.264 101.063 50.062 101.063 51.238H100.111C100.111 49.586 101.329 48.396 103.065 48.396C104.717 48.396 105.935 49.502 105.935 51.028C105.935 52.05 105.529 52.82 104.073 54.444L101.763 57.132H106.033ZM111.811 58H110.761V47.948H116.529V48.858H111.811V52.778H115.871V53.688H111.811V58ZM119.293 48.914C119.293 49.348 118.971 49.656 118.495 49.656C118.033 49.656 117.711 49.348 117.711 48.914C117.711 48.494 118.033 48.186 118.495 48.186C118.971 48.186 119.293 48.494 119.293 48.914ZM118.999 58H118.019V50.622H118.999V58ZM122.103 53.702V58H121.123V50.622H122.033V52.008C122.509 51.098 123.405 50.482 124.469 50.482C126.009 50.482 127.003 51.462 127.003 53.212V58H126.023V53.548C126.023 52.134 125.379 51.336 124.175 51.336C123.027 51.336 122.103 52.33 122.103 53.702ZM133.602 58V56.656C133.168 57.58 132.272 58.14 131.124 58.14C129.598 58.14 128.604 57.286 128.604 55.956C128.604 54.514 129.752 53.758 131.992 53.758C132.44 53.758 132.776 53.786 133.504 53.842V53.226C133.504 51.994 132.846 51.266 131.726 51.266C130.522 51.266 129.766 52.008 129.752 53.212H128.856C128.898 51.574 130.032 50.482 131.712 50.482C133.434 50.482 134.442 51.49 134.442 53.198V58H133.602ZM129.542 55.928C129.542 56.824 130.228 57.426 131.264 57.426C132.636 57.426 133.504 56.53 133.504 55.144V54.486C132.874 54.43 132.44 54.416 132.034 54.416C130.354 54.416 129.542 54.906 129.542 55.928ZM137.483 58H136.503V47.948H137.483V58ZM140.881 48.914C140.881 49.348 140.559 49.656 140.083 49.656C139.621 49.656 139.299 49.348 139.299 48.914C139.299 48.494 139.621 48.186 140.083 48.186C140.559 48.186 140.881 48.494 140.881 48.914ZM140.587 58H139.607V50.622H140.587V58ZM147.96 58H142.052V57.286L146.588 51.462H142.192V50.622H147.792V51.378L143.284 57.16H147.96V58ZM152.157 58.14C150.085 58.14 148.713 56.586 148.713 54.248C148.713 52.092 150.141 50.482 152.101 50.482C154.201 50.482 155.573 52.176 155.405 54.542H149.693C149.777 56.292 150.701 57.37 152.143 57.37C153.375 57.37 154.229 56.684 154.467 55.508H155.433C155.097 57.146 153.851 58.14 152.157 58.14ZM152.087 51.238C150.757 51.238 149.819 52.26 149.693 53.87H154.383C154.299 52.218 153.445 51.238 152.087 51.238ZM156.342 54.304C156.342 52.036 157.602 50.482 159.59 50.482C160.696 50.482 161.634 51.112 162.124 52.162V47.948H163.104V58H162.194V56.446C161.676 57.524 160.724 58.14 159.59 58.14C157.602 58.14 156.342 56.572 156.342 54.304ZM157.336 54.304C157.336 56.18 158.288 57.286 159.73 57.286C161.158 57.286 162.138 56.124 162.138 54.276C162.138 52.414 161.13 51.336 159.73 51.336C158.288 51.336 157.336 52.428 157.336 54.304Z" fill="#101828"/>
    </g>
    <defs>
        <linearGradient id="paint0_linear_652_260977" x1="566.9" y1="43.9572" x2="-53.8039" y2="465.441" gradientUnits="userSpaceOnUse">
            <stop offset="0.0834599" stop-color="white"/>
            <stop offset="0.379577" stop-color="#F8D0C6"/>
            <stop offset="0.491738" stop-color="#FDCFE9"/>
            <stop offset="0.661368" stop-color="#FE75C1"/>
        </linearGradient>
        <clipPath id="clip0_652_260977">
            <rect x="0.550781" width="343" height="92" rx="10" fill="white"/>
        </clipPath>
    </defs>
</svg>
