<svg width="27" height="24" viewBox="0 0 27 24" fill="none" xmlns="http://www.w3.org/2000/svg">
<path d="M7.08912 14.29L6.77814 14.59V7C6.77814 6.73478 6.66516 6.48043 6.46406 6.29289C6.26296 6.10536 5.9902 6 5.7058 6C5.4214 6 5.14864 6.10536 4.94754 6.29289C4.74643 6.48043 4.63345 6.73478 4.63345 7V14.59L4.32247 14.29C4.12055 14.1017 3.84668 13.9959 3.56111 13.9959C3.27554 13.9959 3.00167 14.1017 2.79974 14.29C2.59782 14.4783 2.48438 14.7337 2.48438 15C2.48438 15.2663 2.59782 15.5217 2.79974 15.71L4.94443 17.71C5.04642 17.801 5.16668 17.8724 5.29831 17.92C5.42667 17.9729 5.56546 18.0002 5.7058 18.0002C5.84614 18.0002 5.98493 17.9729 6.11329 17.92C6.24492 17.8724 6.36518 17.801 6.46716 17.71L8.61186 15.71C8.71184 15.6168 8.79115 15.5061 8.84526 15.3842C8.89937 15.2624 8.92722 15.1319 8.92722 15C8.92722 14.8681 8.89937 14.7376 8.84526 14.6158C8.79115 14.4939 8.71184 14.3832 8.61186 14.29C8.51187 14.1968 8.39317 14.1228 8.26254 14.0723C8.1319 14.0219 7.99189 13.9959 7.85049 13.9959C7.70909 13.9959 7.56908 14.0219 7.43844 14.0723C7.30781 14.1228 7.18911 14.1968 7.08912 14.29ZM12.1399 8H22.8633C23.1477 8 23.4205 7.89464 23.6216 7.70711C23.8227 7.51957 23.9357 7.26522 23.9357 7C23.9357 6.73478 23.8227 6.48043 23.6216 6.29289C23.4205 6.10536 23.1477 6 22.8633 6H12.1399C11.8555 6 11.5827 6.10536 11.3816 6.29289C11.1805 6.48043 11.0675 6.73478 11.0675 7C11.0675 7.26522 11.1805 7.51957 11.3816 7.70711C11.5827 7.89464 11.8555 8 12.1399 8ZM22.8633 11H12.1399C11.8555 11 11.5827 11.1054 11.3816 11.2929C11.1805 11.4804 11.0675 11.7348 11.0675 12C11.0675 12.2652 11.1805 12.5196 11.3816 12.7071C11.5827 12.8946 11.8555 13 12.1399 13H22.8633C23.1477 13 23.4205 12.8946 23.6216 12.7071C23.8227 12.5196 23.9357 12.2652 23.9357 12C23.9357 11.7348 23.8227 11.4804 23.6216 11.2929C23.4205 11.1054 23.1477 11 22.8633 11ZM22.8633 16H12.1399C11.8555 16 11.5827 16.1054 11.3816 16.2929C11.1805 16.4804 11.0675 16.7348 11.0675 17C11.0675 17.2652 11.1805 17.5196 11.3816 17.7071C11.5827 17.8946 11.8555 18 12.1399 18H22.8633C23.1477 18 23.4205 17.8946 23.6216 17.7071C23.8227 17.5196 23.9357 17.2652 23.9357 17C23.9357 16.7348 23.8227 16.4804 23.6216 16.2929C23.4205 16.1054 23.1477 16 22.8633 16Z" fill="#BCC1CD"/>
</svg>
