<svg width="21" height="18" viewBox="0 0 21 18" fill="none" xmlns="http://www.w3.org/2000/svg">
    <path d="M7.23358 16.1203C4.54449 15.9682 2.40334 13.7325 2.40334 11.0057C2.40334 8.18078 4.7014 5.88253 7.52608 5.88253C8.78939 5.88253 10.0025 6.34608 10.9419 7.18777C12.0268 8.15816 12.6492 9.54987 12.6492 11.0057C12.6492 12.2265 12.2112 13.4022 11.4298 14.3224C11.984 14.6815 12.6203 14.896 13.2834 14.9449C14.0814 13.7832 14.5018 12.4278 14.5018 11.0057C14.5018 9.48208 14.0194 8.03493 13.107 6.82068C12.3819 5.85549 11.417 5.09139 10.3163 4.61089C9.70626 4.34406 9.06841 4.16855 8.41141 4.08576C9.73939 3.10818 10.2472 2.28883 10.2472 1.57421C10.2472 0.716654 9.55204 0.0214844 8.69449 0.0214844C8.22852 0.0214844 7.81084 0.227003 7.52623 0.552005C7.24163 0.227003 6.82392 0.0214844 6.35798 0.0214844C5.50043 0.0214844 4.80526 0.716654 4.80526 1.57421C4.80526 2.28895 5.31323 3.10841 6.64168 4.08619C3.21155 4.52215 0.550781 7.45904 0.550781 11.0057C0.550781 14.8519 3.67987 17.981 7.52608 17.981C8.05785 17.981 8.57989 17.922 9.0881 17.8057C8.38984 17.344 7.76274 16.7756 7.23358 16.1203Z" fill="#344054"/>
    <path d="M13.5733 4.03027C13.0415 4.03027 12.5195 4.08927 12.0113 4.20555C12.7095 4.6673 13.3366 5.23565 13.8658 5.89092C16.5549 6.04307 18.6961 8.27881 18.6961 11.0055C18.6961 13.8304 16.3981 16.1287 13.5734 16.1287C12.3101 16.1287 11.097 15.6651 10.1575 14.8235C9.07264 13.853 8.45022 12.4613 8.45022 11.0055C8.45022 9.78465 8.88818 8.60897 9.66958 7.68875C9.11538 7.32967 8.47913 7.11517 7.81604 7.06625C7.01799 8.22794 6.59766 9.58339 6.59766 11.0055C6.59766 12.5291 7.07996 13.9762 7.99249 15.1905C8.71751 16.1557 9.68247 16.9198 10.7831 17.4003C11.664 17.7855 12.6026 17.9808 13.5734 17.9808C17.4196 17.9808 20.5486 14.8517 20.5486 11.0055C20.5486 7.15936 17.4195 4.03027 13.5733 4.03027Z" fill="#344054"/>
</svg>
