<svg width="55" height="55" viewBox="0 0 55 55" fill="none" xmlns="http://www.w3.org/2000/svg">
<rect x="0.75" y="0.75" width="53.5" height="53.5" rx="7.25" stroke="black" stroke-width="1.5" fill="#101828"/>
<path d="M19 23C18.9996 22.1129 19.294 21.2508 19.8371 20.5493C20.3802 19.8478 21.141 19.3468 22 19.125L22 16L24 16L24 19.126C24.7243 19.313 25.3817 19.6994 25.8975 20.2413C26.4132 20.7832 26.7667 21.4589 26.9177 22.1916C27.0687 22.9243 27.0112 23.6846 26.7517 24.3863C26.4923 25.0879 26.0412 25.7028 25.4499 26.1609C24.8585 26.6191 24.1505 26.9023 23.4063 26.9783C22.6621 27.0543 21.9115 26.92 21.2397 26.5908C20.568 26.2616 20.002 25.7506 19.6061 25.1159C19.2102 24.4811 19.0002 23.7481 19 23ZM25 23C24.9996 22.6084 24.8842 22.2254 24.6682 21.8988C24.4521 21.5721 24.145 21.3161 23.7847 21.1624C23.4245 21.0087 23.027 20.9642 22.6417 21.0344C22.2564 21.1045 21.9002 21.2863 21.6172 21.557C21.3343 21.8278 21.137 22.1757 21.05 22.5576C20.963 22.9394 20.99 23.3384 21.1276 23.7051C21.2653 24.0717 21.5076 24.3899 21.8244 24.6201C22.1413 24.8503 22.5188 24.9824 22.91 25L22.51 25L23 25C23.5304 25 24.0391 24.7893 24.4142 24.4142C24.7893 24.0391 25 23.5304 25 23ZM22 37L22 28L24 28L24 37L22 37ZM27 28C26.9998 27.113 27.2944 26.2512 27.8374 25.5499C28.3805 24.8486 29.1412 24.3477 30 24.126L30 17L32 17L32 24.126C32.7243 24.313 33.3817 24.6994 33.8975 25.2413C34.4132 25.7832 34.7667 26.4589 34.9177 27.1916C35.0687 27.9243 35.0112 28.6846 34.7517 29.3863C34.4923 30.0879 34.0413 30.7028 33.4499 31.1609C32.8585 31.6191 32.1505 31.9023 31.4063 31.9783C30.6621 32.0543 29.9115 31.92 29.2397 31.5908C28.568 31.2616 28.002 30.7506 27.6061 30.1159C27.2102 29.4811 27.0002 28.7481 27 28ZM33 28C32.9996 27.6084 32.8842 27.2254 32.6682 26.8988C32.4521 26.5721 32.145 26.3161 31.7847 26.1624C31.4245 26.0087 31.027 25.9642 30.6417 26.0344C30.2564 26.1045 29.9002 26.2863 29.6172 26.557C29.3343 26.8278 29.137 27.1757 29.05 27.5576C28.963 27.9394 28.99 28.3384 29.1276 28.7051C29.2653 29.0717 29.5076 29.3899 29.8244 29.6201C30.1413 29.8503 30.5188 29.9824 30.91 30L30.51 30L31 30C31.5304 30 32.0391 29.7893 32.4142 29.4142C32.7893 29.0391 33 28.5304 33 28ZM30 37L30 33L32 33L32 37L30 37Z" fill="white"/>
</svg>
