<svg width="17" height="18" viewBox="0 0 17 18" fill="none" xmlns="http://www.w3.org/2000/svg">
<path d="M8.01422 1.22764C8.17912 0.83167 8.74033 0.83167 8.90522 1.22764L10.8974 6.01771C10.9669 6.18465 11.124 6.29872 11.3034 6.31316L16.4749 6.72774C16.903 6.76201 17.0756 7.29551 16.7506 7.57451L12.8106 10.9495C12.6727 11.0672 12.6129 11.2517 12.6553 11.4275L13.8588 16.4738C13.9581 16.891 13.5039 17.2207 13.1384 16.9971L8.7114 14.293C8.55712 14.1988 8.36233 14.1988 8.20805 14.293L3.78101 16.9971C3.41555 17.2207 2.96137 16.891 3.06069 16.4738L4.26412 11.4275C4.30654 11.2517 4.24676 11.0672 4.10887 10.9495L0.169176 7.57451C-0.15656 7.29551 0.0168238 6.76201 0.444292 6.72774L5.61605 6.31316C5.79541 6.29872 5.95258 6.18465 6.02201 6.01771L8.01422 1.22764Z" fill="#FDB022"/>
</svg>
