<svg width="20" height="20" viewBox="0 0 20 20" fill="none" xmlns="http://www.w3.org/2000/svg">
<path d="M17.5574 4.35768C16.2157 4.22435 14.8741 4.12435 13.5241 4.04935V4.04102L13.3407 2.95768C13.2157 2.19102 13.0324 1.04102 11.0824 1.04102H8.89907C6.95741 1.04102 6.77407 2.14102 6.64074 2.94935L6.46574 4.01602C5.69074 4.06602 4.91574 4.11602 4.14074 4.19102L2.44074 4.35768C2.09074 4.39102 1.84074 4.69935 1.87407 5.04102C1.90741 5.38268 2.20741 5.63268 2.55741 5.59935L4.25741 5.43268C8.62407 4.99935 13.0241 5.16602 17.4407 5.60768C17.4657 5.60768 17.4824 5.60768 17.5074 5.60768C17.8241 5.60768 18.0991 5.36602 18.1324 5.04102C18.1574 4.69935 17.9074 4.39102 17.5574 4.35768Z" fill="#667085"/>
<path d="M16.0225 6.78398C15.8225 6.57565 15.5475 6.45898 15.2642 6.45898H4.73085C4.44751 6.45898 4.16418 6.57565 3.97251 6.78398C3.78085 6.99232 3.67251 7.27565 3.68918 7.56732L4.20585 16.1173C4.29751 17.384 4.41418 18.9673 7.32251 18.9673H12.6725C15.5808 18.9673 15.6975 17.3923 15.7892 16.1173L16.3058 7.57565C16.3225 7.27565 16.2142 6.99232 16.0225 6.78398ZM11.3808 14.7923H8.60585C8.26418 14.7923 7.98085 14.509 7.98085 14.1673C7.98085 13.8257 8.26418 13.5423 8.60585 13.5423H11.3808C11.7225 13.5423 12.0058 13.8257 12.0058 14.1673C12.0058 14.509 11.7225 14.7923 11.3808 14.7923ZM12.0808 11.459H7.91418C7.57251 11.459 7.28918 11.1757 7.28918 10.834C7.28918 10.4923 7.57251 10.209 7.91418 10.209H12.0808C12.4225 10.209 12.7058 10.4923 12.7058 10.834C12.7058 11.1757 12.4225 11.459 12.0808 11.459Z" fill="#667085"/>
</svg>
