<svg width="25" height="24" viewBox="0 0 25 24" fill="none" xmlns="http://www.w3.org/2000/svg">
    <path d="M22.8596 8.27L22.5696 5.5C22.1496 2.48 20.7796 1.25 17.8497 1.25H15.4896H14.0097H10.9697H9.48965H7.08965C4.14965 1.25 2.78965 2.48 2.35965 5.53L2.08965 8.28C1.98965 9.35 2.27965 10.39 2.90965 11.2C3.66965 12.19 4.83965 12.75 6.13965 12.75C7.39965 12.75 8.60965 12.12 9.36965 11.11C10.0496 12.12 11.2097 12.75 12.4997 12.75C13.7896 12.75 14.9197 12.15 15.6096 11.15C16.3797 12.14 17.5696 12.75 18.8096 12.75C20.1396 12.75 21.3396 12.16 22.0896 11.12C22.6896 10.32 22.9597 9.31 22.8596 8.27Z" fill="#B0B0B0"/>
    <path d="M11.8472 16.6602C10.5772 16.7902 9.61719 17.8702 9.61719 19.1502V21.8902C9.61719 22.1602 9.83719 22.3802 10.1072 22.3802H14.8772C15.1472 22.3802 15.3672 22.1602 15.3672 21.8902V19.5002C15.3772 17.4102 14.1472 16.4202 11.8472 16.6602Z" fill="#B0B0B0"/>
    <path d="M21.8728 14.4001V17.3801C21.8728 20.1401 19.6328 22.3801 16.8728 22.3801C16.6028 22.3801 16.3828 22.1601 16.3828 21.8901V19.5001C16.3828 18.2201 15.9928 17.2201 15.2328 16.5401C14.5628 15.9301 13.6528 15.6301 12.5228 15.6301C12.2728 15.6301 12.0228 15.6401 11.7528 15.6701C9.97281 15.8501 8.62281 17.3501 8.62281 19.1501V21.8901C8.62281 22.1601 8.40281 22.3801 8.13281 22.3801C5.37281 22.3801 3.13281 20.1401 3.13281 17.3801V14.4201C3.13281 13.7201 3.82281 13.2501 4.47281 13.4801C4.74281 13.5701 5.01281 13.6401 5.29281 13.6801C5.41281 13.7001 5.54281 13.7201 5.66281 13.7201C5.82281 13.7401 5.98281 13.7501 6.14281 13.7501C7.30281 13.7501 8.44281 13.3201 9.34281 12.5801C10.2028 13.3201 11.3228 13.7501 12.5028 13.7501C13.6928 13.7501 14.7928 13.3401 15.6528 12.6001C16.5528 13.3301 17.6728 13.7501 18.8128 13.7501C18.9928 13.7501 19.1728 13.7401 19.3428 13.7201C19.4628 13.7101 19.5728 13.7001 19.6828 13.6801C19.9928 13.6401 20.2728 13.5501 20.5528 13.4601C21.2028 13.2401 21.8728 13.7201 21.8728 14.4001Z" fill="#B0B0B0"/>
</svg>
