<svg width="66" height="66" viewBox="0 0 66 66" fill="none" xmlns="http://www.w3.org/2000/svg">
<path d="M9.78 2.01L22.77 15H0.27C0.729133 12.242 1.82867 9.63011 3.48029 7.37411C5.13191 5.11812 7.28958 3.28089 9.78 2.01ZM27.24 1.41707e-06H18C17.43 1.41707e-06 16.86 0.0300014 16.29 0.0600014L31.23 15H42.24L27.24 1.41707e-06ZM48 1.41707e-06H35.76L50.76 15H65.73C65.0272 10.8062 62.86 6.99754 59.6137 4.25107C56.3673 1.5046 52.2523 -0.00168651 48 1.41707e-06ZM28.446 49.878L43.446 41.628C43.9164 41.369 44.3086 40.9886 44.5818 40.5263C44.855 40.064 44.9991 39.5369 44.9991 39C44.9991 38.4631 44.855 37.936 44.5818 37.4737C44.3086 37.0114 43.9164 36.631 43.446 36.372L28.446 28.122C27.9892 27.8707 27.4749 27.7428 26.9536 27.7509C26.4324 27.7589 25.9222 27.9027 25.4735 28.1679C25.0247 28.4332 24.6528 28.8108 24.3944 29.2636C24.136 29.7164 24.0001 30.2287 24 30.75V47.25C24.0001 47.7713 24.136 48.2836 24.3944 48.7364C24.6528 49.1892 25.0247 49.5668 25.4735 49.8321C25.9222 50.0973 26.4324 50.2411 26.9536 50.2491C27.4749 50.2572 27.9892 50.1293 28.446 49.878ZM66 21V48C65.996 52.7727 64.0983 57.3487 60.7235 60.7235C57.3487 64.0983 52.7727 65.996 48 66H18C13.2273 65.996 8.65126 64.0983 5.27646 60.7235C1.90167 57.3487 0.00397227 52.7727 0 48V21H66Z" fill="#0A0B12"/>
</svg>
