<svg width="37" height="37" viewBox="0 0 37 37" fill="none" xmlns="http://www.w3.org/2000/svg">
<rect width="37" height="37" rx="4.98077" fill="#F2F3F7"/>
<path d="M15.7394 24.6814C15.7169 24.6814 15.6869 24.6964 15.6644 24.6964C14.2094 23.9764 13.0244 22.7839 12.2969 21.3289C12.2969 21.3064 12.3119 21.2764 12.3119 21.2539C13.2269 21.5239 14.1719 21.7264 15.1094 21.8839C15.2744 22.8289 15.4694 23.7664 15.7394 24.6814Z" fill="#292D32"/>
<path d="M25.7062 21.3364C24.9637 22.8289 23.7262 24.0364 22.2188 24.7639C22.5037 23.8114 22.7437 22.8514 22.9012 21.8839C23.8462 21.7264 24.7762 21.5239 25.6912 21.2539C25.6837 21.2839 25.7062 21.3139 25.7062 21.3364Z" fill="#292D32"/>
<path d="M25.7662 14.7819C24.8212 14.4969 23.8687 14.2644 22.9012 14.0994C22.7437 13.1319 22.5112 12.1719 22.2188 11.2344C23.7713 11.9769 25.0237 13.2294 25.7662 14.7819Z" fill="#292D32"/>
<path d="M15.7369 11.3174C15.4669 12.2324 15.2719 13.1624 15.1144 14.1074C14.1469 14.2574 13.1869 14.4974 12.2344 14.7824C12.9619 13.2749 14.1694 12.0374 15.6619 11.2949C15.6844 11.2949 15.7144 11.3174 15.7369 11.3174Z" fill="#292D32"/>
<path d="M21.6178 13.9425C19.8778 13.7475 18.1228 13.7475 16.3828 13.9425C16.5703 12.915 16.8103 11.8875 17.1478 10.8975C17.1628 10.8375 17.1553 10.7925 17.1628 10.7325C17.7553 10.59 18.3628 10.5 19.0003 10.5C19.6303 10.5 20.2453 10.59 20.8303 10.7325C20.8378 10.7925 20.8378 10.8375 20.8528 10.8975C21.1903 11.895 21.4303 12.915 21.6178 13.9425Z" fill="#292D32"/>
<path d="M14.9425 20.6168C13.9075 20.4293 12.8875 20.1893 11.8975 19.8518C11.8375 19.8368 11.7925 19.8443 11.7325 19.8368C11.59 19.2443 11.5 18.6368 11.5 17.9993C11.5 17.3693 11.59 16.7543 11.7325 16.1693C11.7925 16.1618 11.8375 16.1618 11.8975 16.1468C12.895 15.8168 13.9075 15.5693 14.9425 15.3818C14.755 17.1218 14.755 18.8768 14.9425 20.6168Z" fill="#292D32"/>
<path d="M26.4972 17.9993C26.4972 18.6368 26.4072 19.2443 26.2647 19.8368C26.2047 19.8443 26.1597 19.8368 26.0997 19.8518C25.1022 20.1818 24.0822 20.4293 23.0547 20.6168C23.2497 18.8768 23.2497 17.1218 23.0547 15.3818C24.0822 15.5693 25.1097 15.8093 26.0997 16.1468C26.1597 16.1618 26.2047 16.1693 26.2647 16.1693C26.4072 16.7618 26.4972 17.3693 26.4972 17.9993Z" fill="#292D32"/>
<path d="M21.6178 22.0586C21.4303 23.0936 21.1903 24.1136 20.8528 25.1036C20.8378 25.1636 20.8378 25.2086 20.8303 25.2686C20.2453 25.4111 19.6303 25.5011 19.0003 25.5011C18.3628 25.5011 17.7553 25.4111 17.1628 25.2686C17.1553 25.2086 17.1628 25.1636 17.1478 25.1036C16.8178 24.1061 16.5703 23.0936 16.3828 22.0586C17.2528 22.1561 18.1228 22.2236 19.0003 22.2236C19.8778 22.2236 20.7553 22.1561 21.6178 22.0586Z" fill="#292D32"/>
<path d="M21.8225 20.8225C19.9467 21.0592 18.0533 21.0592 16.1775 20.8225C15.9408 18.9467 15.9408 17.0533 16.1775 15.1775C18.0533 14.9408 19.9467 14.9408 21.8225 15.1775C22.0592 17.0533 22.0592 18.9467 21.8225 20.8225Z" fill="#292D32"/>
</svg>
